<svg width="46" height="46" viewBox="0 0 46 46" fill="none" xmlns="http://www.w3.org/2000/svg">
<path d="M13.5773 23.1515C15.5495 27.2241 18.8427 30.5089 22.9204 32.4706C23.2212 32.6131 23.5539 32.6747 23.8858 32.6495C24.2176 32.6243 24.5372 32.5131 24.813 32.3269L30.8022 28.3261C31.0668 28.1466 31.3726 28.0371 31.6909 28.0078C32.0093 27.9785 32.33 28.0303 32.6229 28.1584L43.8346 32.9737C44.2178 33.1332 44.538 33.4142 44.7458 33.7735C44.9535 34.1328 45.0375 34.5505 44.9846 34.9621C44.6292 37.7357 43.2754 40.2847 41.1765 42.1323C39.0776 43.9799 36.3774 44.9994 33.5812 45C24.9401 45 16.653 41.5674 10.5428 35.4572C4.43265 29.347 1 21.0599 1 12.4188C1.00063 9.6226 2.02011 6.92239 3.86768 4.82348C5.71525 2.72457 8.26431 1.37078 11.0379 1.01543C11.4495 0.962546 11.8672 1.04646 12.2265 1.25424C12.5858 1.46203 12.8668 1.78216 13.0263 2.16535L17.8416 13.4011C17.9668 13.6894 18.0192 14.0041 17.9941 14.3174C17.9691 14.6307 17.8673 14.9331 17.6978 15.1978L13.6971 21.2828C13.519 21.5581 13.4144 21.8744 13.3934 22.2015C13.3725 22.5287 13.4358 22.8557 13.5773 23.1515Z" stroke="#133447" stroke-width="2" stroke-linecap="round" stroke-linejoin="round"/>
</svg>
