<svg width="38" height="36" viewBox="0 0 38 36" fill="none" xmlns="http://www.w3.org/2000/svg">
<path d="M27.9584 6.45018C27.9896 6.54379 27.9945 6.60295 27.9929 6.70013C27.9925 6.72646 27.9922 6.75246 27.9922 6.77976C27.9916 6.80966 27.9916 6.80966 27.9909 6.84022H28.0559V7.00273H28.1209C28.1287 7.09569 28.1349 7.17142 28.1209 7.26275C28.0436 7.35214 28.0436 7.35214 27.9584 7.42527C27.9161 7.4958 27.9161 7.4958 27.8934 7.55528H27.8284V7.62028H27.7634V7.71779H27.6984L27.6659 7.8478H27.6009V7.91281H27.5359V8.01032H27.4709V8.07532H27.4059L27.3733 8.20534H27.3083L27.2433 8.36785H27.1783V8.49786H27.1133V8.56287C27.0685 8.61552 27.0685 8.61552 27.0158 8.66037H26.9508V8.72538H26.8858V8.85539H26.8208V8.9204C26.7759 8.97305 26.7759 8.97305 26.7233 9.01791H26.6583V9.08291H26.5933V9.18042H26.5283L26.4958 9.31043H26.4308V9.37544H26.3658L26.3008 9.53795H26.2358V9.66796H26.1707V9.73297L26.0407 9.86298L26.0082 9.96049H25.9432V10.0255H25.8782V10.0905H25.8132C25.7739 10.1662 25.7427 10.2368 25.7157 10.318H25.6507V10.383H25.5857V10.448C25.5408 10.5007 25.5408 10.5007 25.4882 10.5455H25.4232L25.3582 10.7406H25.2932V10.8381H25.2282V10.9031H25.1632L25.1307 11.0331H25.0656V11.1306H25.0006V11.1956H24.9356C24.9269 11.2138 24.9181 11.2317 24.9093 11.2505C24.8671 11.3324 24.8245 11.4114 24.7731 11.4881H24.7081V11.5531H24.6431C24.6038 11.6289 24.5726 11.6994 24.5456 11.7806H24.4806V11.8456H24.4156V11.9107H24.3506C24.3418 11.9289 24.333 11.9467 24.3243 11.9656C24.282 12.0475 24.2394 12.1265 24.1881 12.2032H24.1231V12.2682H24.0581V12.3657H23.9931V12.4307H23.9281L23.8955 12.5607H23.8305V12.6582H23.7655V12.7232H23.7005V12.7882H23.6355L23.603 12.9832H23.668L23.7005 13.1133H23.7655V13.1783H23.8305V13.2758H23.8955V13.3408H23.9931V13.4058H24.0581V13.5033H24.1231V13.5683H24.1881L24.2206 13.6983H24.2856V13.7633H24.3506V13.8608H24.4156V13.9258H24.4806V13.9908H24.5456C24.5983 14.0357 24.5983 14.0357 24.6431 14.0883V14.1533H24.7081V14.2184H24.7731C24.8706 14.3607 24.8706 14.3607 24.8706 14.4459H24.9356V14.5109H25.0006V14.5759H25.0656V14.6409H25.1307V14.7384H25.1957L25.2282 14.8684H25.2932V14.9334H25.3582V14.9984H25.4232C25.5083 15.0755 25.5083 15.0755 25.5857 15.1609V15.2259H25.6507V15.3235H25.7157V15.3885H25.7807L25.8132 15.5185H25.8782V15.5835H25.9432V15.681H26.0082V15.746H26.0732V15.811H26.1382L26.1707 15.941H26.2358V16.006H26.3008V16.071C26.3203 16.0756 26.3398 16.0804 26.3596 16.0853C26.4165 16.0999 26.4727 16.1175 26.5283 16.136V16.071H26.5933V16.006C26.6359 15.9621 26.6794 15.9186 26.7233 15.876L26.7558 15.811H26.8208V15.746H26.8858V15.681H26.9508L26.9833 15.5835H27.0483V15.5185H27.1133V15.4535H27.1783C27.1809 15.4353 27.1835 15.4174 27.1865 15.3985C27.2186 15.2994 27.271 15.2373 27.3408 15.1609H27.4059V15.0959H27.4709V14.9984H27.5359V14.9334H27.6334V14.8684H27.6984V14.7709H27.7634V14.6734C27.8082 14.6185 27.8082 14.6185 27.8609 14.5759H27.9259V14.5109H27.9909V14.4459H28.0559V14.3484H28.1209V14.2834H28.1859V14.2184H28.2509L28.2834 14.1208H28.3484V14.0233H28.4134V13.9258C28.4388 13.9184 28.4645 13.9112 28.4908 13.9034C28.5831 13.868 28.5831 13.868 28.6185 13.7757C28.626 13.75 28.6335 13.7246 28.641 13.6983H28.706V13.6333H28.771L28.8035 13.5033H28.8685L28.9335 13.3408H28.9985V13.2758H29.0635C29.0723 13.2576 29.081 13.2397 29.0898 13.2208C29.1321 13.1389 29.1747 13.06 29.226 12.9832H29.291V12.9182H29.356V12.8532H29.421L29.4535 12.7557H29.5185V12.6907H29.5835V12.6257H29.6485V12.5282H29.7136L29.7461 12.3982H29.8111V12.3332H29.8761V12.2682H29.9411V12.2032C29.9726 12.1512 29.9726 12.1512 30.0386 12.1057C30.1322 12.0959 30.219 12.0923 30.3126 12.093C30.3409 12.0927 30.3691 12.0923 30.3981 12.0923C30.4933 12.0917 30.5885 12.092 30.6838 12.092C30.7517 12.0917 30.8196 12.0914 30.8879 12.091C31.0728 12.0904 31.2584 12.0904 31.4437 12.0904C31.5981 12.0904 31.7521 12.0901 31.9052 12.0897C32.2692 12.0894 32.6333 12.0891 32.9973 12.0894C33.3743 12.0897 33.7481 12.0888 34.1252 12.0878C34.4476 12.0868 34.7687 12.0862 35.0937 12.0865C35.2865 12.0865 35.4805 12.0862 35.6723 12.0855C35.8533 12.0849 36.0363 12.0849 36.2151 12.0855C36.2817 12.0855 36.3483 12.0855 36.415 12.0849C36.5057 12.0845 36.5963 12.0849 36.687 12.0855C36.7137 12.0852 36.7403 12.0845 36.7676 12.0842C36.8411 12.0855 36.8411 12.0855 36.961 12.1057C37.029 12.1821 37.029 12.1821 37.0585 12.2682L37.026 12.3657C37.0231 12.4271 37.0218 12.4886 37.0218 12.55V12.6673V12.7967V12.9335C37.0215 13.0593 37.0218 13.1848 37.0218 13.3106V13.7168C37.0215 13.9824 37.0215 14.2466 37.0215 14.5132C37.0218 14.729 37.0218 14.9454 37.0218 15.16V15.2532C37.0218 15.3156 37.0218 15.3781 37.0215 15.4405C37.0215 16.0255 37.0218 16.6106 37.0218 17.1989C37.0221 17.6994 37.0218 18.2032 37.0218 18.707C37.0215 19.2888 37.0215 19.8738 37.0218 20.4556V20.6425V20.7352C37.0218 20.9507 37.0218 21.1675 37.0215 21.382C37.0215 21.6449 37.0215 21.9085 37.0218 22.1718V22.5748C37.0215 22.6977 37.0218 22.8209 37.0218 22.9454V23.1404C37.0221 23.3978 37.0351 23.6507 37.0585 23.9074H36.9935V23.9724C36.7163 23.9971 36.441 24.0098 36.1647 24.0101C36.1257 24.0101 36.087 24.0105 36.0474 24.0105C35.9411 24.0111 35.8348 24.0111 35.7288 24.0114C35.6138 24.0118 35.4987 24.0121 35.3843 24.0128C35.1854 24.0134 34.9878 24.0141 34.7863 24.0144C34.4989 24.015 34.211 24.016 33.9249 24.017C33.4602 24.0186 32.9921 24.0199 32.5273 24.0212C32.0755 24.0225 31.6205 24.0238 31.1687 24.0254C31.1268 24.0254 31.1268 24.0254 31.0839 24.0258C30.9438 24.0261 30.8037 24.0264 30.6646 24.0271C29.5042 24.0306 28.3406 24.0342 27.1868 24.0375V23.9724H27.1218V23.9074H27.0568V23.8424H26.9918C26.9391 23.7976 26.9391 23.7976 26.8943 23.7449V23.6799H26.8293V23.6149H26.7642V23.5499H26.6992C26.6017 23.4374 26.6017 23.4374 26.6017 23.3549H26.5367V23.2574H26.4717V23.1924H26.4067V23.1274C26.3745 23.1166 26.3424 23.1059 26.3092 23.0949V23.0299H26.2442V22.9649H26.1792V22.8999H26.1142C26.0167 22.7575 26.0167 22.7575 26.0167 22.6723H25.9517V22.6073H25.8867V22.5423H25.8217C25.7365 22.4653 25.7365 22.4653 25.6592 22.3798V22.3148H25.5941V22.1848H25.5291V22.1198C25.497 22.1091 25.4648 22.0983 25.4316 22.0873V22.0223H25.3666V21.9573H25.3016L25.2366 21.7948H25.1716V21.7298H25.1066L25.0741 21.5997H25.0091V21.5347H24.9441V21.4372H24.8791V21.3722H24.7816V21.3072H24.7166V21.2097H24.6516V21.1447H24.5866L24.5541 21.0147H24.489L24.424 20.8522H24.359V20.7222H24.1315V20.7872H24.0665C24.0603 20.8164 24.0603 20.8164 24.0542 20.846C24.034 20.9172 24.034 20.9172 23.969 21.0147H23.904V21.0797H23.839V21.1447H23.774V21.2097H23.709L23.6765 21.3072H23.6115V21.3722H23.5465V21.4372H23.4815V21.5347H23.4165L23.384 21.6647H23.3189V21.7298H23.2539V21.7948H23.1889V21.8923H23.1239V21.9573H23.0589C23.0502 21.9781 23.0414 21.9989 23.0326 22.0203C22.9939 22.0873 22.9939 22.0873 22.8964 22.1198V22.1848H22.8314V22.3798H22.8964V22.4773H22.9614V22.5423H23.0264L23.0589 22.6723H23.1239V22.7698H23.1889V22.8348H23.2539V22.8999H23.3189C23.4165 23.0422 23.4165 23.0422 23.4165 23.1274H23.4815V23.1924H23.5465C23.5861 23.2411 23.5861 23.2411 23.6277 23.3042C23.6859 23.3949 23.6859 23.3949 23.774 23.4524V23.5174H23.839V23.6149H23.904L23.9365 23.7449H24.0015V23.8099H24.0665V23.8749H24.1315V23.9724H24.1965L24.229 24.1025H24.294V24.1675H24.359V24.265H24.424V24.33H24.489C24.5596 24.4262 24.6139 24.5091 24.6516 24.6225H24.7166V24.6875H24.7816C24.7962 24.719 24.8112 24.7506 24.8264 24.7831C24.868 24.8848 24.868 24.8848 24.9441 24.915V24.98H25.0091V25.045H25.0741V25.175H25.1391C25.1918 25.2199 25.1918 25.2199 25.2366 25.2726V25.3376H25.3016V25.4351H25.3666L25.4316 25.6301H25.4966V25.6951H25.5941V25.7926H25.6592V25.9226H25.7242V25.9876H25.7892V26.0526C25.8213 26.0634 25.8535 26.0741 25.8867 26.0851V26.1501H25.9517V26.2801H26.0167V26.3452H26.0817C26.2442 26.5194 26.2442 26.5194 26.2442 26.6377H26.3092L26.3742 26.8002H26.4392V26.8652H26.5042L26.5367 26.9952H26.6017V27.0927H26.6667V27.1577H26.7317V27.2227H26.7967L26.8293 27.3527H26.8943V27.4502H26.9593V27.5153H27.0243C27.099 27.5985 27.1218 27.6284 27.1218 27.7428H27.1868V27.8078H27.2518V27.8728H27.3168C27.4143 28.0151 27.4143 28.0151 27.4143 28.1003H27.4793V28.1653H27.5443C27.5862 28.2128 27.5862 28.2128 27.6295 28.2752C27.6512 28.3054 27.6512 28.3054 27.6737 28.3366C27.7068 28.3928 27.7068 28.3928 27.7068 28.4578H27.7718V28.5228H27.8368V28.6203H27.9018V28.6854H27.9668L27.9994 28.8154H28.0644V28.9779H28.1294V29.1079H28.0644C28.0598 29.1501 28.0549 29.1924 28.0501 29.236C28.0471 29.2623 28.0442 29.2889 28.0413 29.3162C28.0351 29.3715 28.0293 29.4271 28.0237 29.4826C28.0208 29.5086 28.0182 29.5343 28.0156 29.561C28.0133 29.5847 28.0111 29.6084 28.0085 29.6328C27.9994 29.6929 27.9994 29.6929 27.9668 29.7579H27.6093V29.6929H27.5443V29.7579H27.3493V29.6929H27.1218V29.6279H27.0568V29.5629C27.0246 29.5522 26.9924 29.5415 26.9593 29.5304V29.4654H26.8943V29.4004H26.8293V29.3354H26.7642C26.6667 29.193 26.6667 29.193 26.6667 29.1079H26.6017V29.0429H26.5367V28.9454H26.4717L26.4392 28.8154H26.3742V28.7504H26.3092V28.6854H26.2442V28.5878H26.1792V28.5228H26.1142C26.0167 28.3805 26.0167 28.3805 26.0167 28.2953H25.9517V28.2303H25.8867V28.1653H25.8217C25.7242 28.0229 25.7242 28.0229 25.7242 27.9378H25.6592V27.8728H25.5941C25.5291 27.7753 25.5291 27.7753 25.5291 27.6778C25.5096 27.6683 25.4901 27.6589 25.4703 27.6492C25.3991 27.6128 25.3991 27.6128 25.3016 27.5478V27.4177H25.2366C25.1515 27.3404 25.1515 27.3404 25.0741 27.2552V27.1902H25.0091V27.0927H24.9441C24.9353 27.0612 24.9265 27.0297 24.9178 26.9972C24.9051 26.9643 24.8921 26.9315 24.8791 26.8977C24.8469 26.887 24.8147 26.8762 24.7816 26.8652V26.8002H24.7166V26.7352H24.6516V26.6052H24.5866V26.5402H24.5216C24.4689 26.4953 24.4689 26.4953 24.424 26.4427V26.3777H24.359V26.2476H24.294V26.1826H24.229C24.1764 26.1378 24.1764 26.1378 24.1315 26.0851V26.0201H24.0665V25.8901H24.0015L23.9365 25.7276H23.839V25.6626H23.774V25.5326H23.709V25.4351H23.644V25.3701H23.579C23.526 25.3294 23.526 25.3294 23.4815 25.2726V25.1425H23.4165V25.0775H23.3515V25.0125H23.2864C23.2338 24.9719 23.2338 24.9719 23.1889 24.915V24.785H23.1239V24.72H23.0589C23.004 24.6557 22.95 24.5906 22.8964 24.525L22.8314 24.4925V24.3625H22.7664L22.7014 24.2H22.6039V24.135H22.5389V24.0049H22.4739V23.9074H22.4089V23.8424H22.3439C22.2909 23.7999 22.2909 23.7999 22.2464 23.7449V23.6474H22.1814V23.5499H22.1163V23.4849H22.0513L21.9863 23.3549H21.8563L21.7913 23.4849H21.7263V23.5499H21.6613V23.6149H21.5963V23.7124H21.5313L21.4988 23.8424H21.4338V23.9074H21.3688V23.9724C21.2157 24.0027 21.0668 24.0098 20.9105 24.0098C20.8848 24.0101 20.8588 24.0101 20.8322 24.0101C20.7457 24.0108 20.6592 24.0108 20.5728 24.0111C20.5107 24.0114 20.4486 24.0118 20.3865 24.0118C20.253 24.0124 20.1194 24.0131 19.9868 24.0134C19.7755 24.014 19.5642 24.015 19.353 24.016C18.9044 24.018 18.4559 24.0196 18.0073 24.0212C17.523 24.0231 17.0388 24.0248 16.5545 24.0271C16.3445 24.028 16.1352 24.0287 15.9239 24.0293C15.7932 24.0297 15.6626 24.0303 15.5306 24.031C15.4702 24.0313 15.4094 24.0313 15.3489 24.0316C15.2664 24.0316 15.1835 24.0323 15.1006 24.0326H15.0285C14.8845 24.0336 14.7483 24.0466 14.6059 24.07V24.135H14.4759V24.265H14.4109L14.3784 24.3625H14.3134V24.4275H14.2484V24.525H14.1834V24.6225H14.1184V24.72H14.0209V24.785H13.9559V24.8825H13.8909V24.98H13.8259V25.0775H13.7283C13.7189 25.1016 13.7095 25.126 13.6997 25.1507C13.6692 25.2261 13.6357 25.2979 13.5983 25.3701H13.5333V25.4351H13.4683C13.429 25.5108 13.3978 25.5813 13.3708 25.6626H13.3058V25.7276H13.2408V25.7926H13.1758C13.1657 25.818 13.1556 25.8436 13.1452 25.87C13.1108 25.9551 13.1108 25.9551 13.0783 26.0201H13.0133V26.0851H12.9483V26.1826H12.8833V26.2476H12.8183V26.3126H12.7533L12.7208 26.4427H12.6558V26.5402H12.5907V26.6052H12.5257V26.6702L12.4607 26.7027L12.4282 26.8002H12.3632V26.8977H12.2982V26.9627H12.2332V27.0277H12.1682C12.1581 27.0531 12.1481 27.0787 12.1377 27.1051C12.1032 27.1902 12.1032 27.1902 12.0707 27.2552H12.0057V27.3202H11.9407C11.9277 27.3475 11.9277 27.3475 11.9144 27.3752C11.8721 27.4571 11.8295 27.5361 11.7782 27.6128H11.7132V27.6778C11.6706 27.7216 11.627 27.7652 11.5832 27.8078L11.5507 27.8728H11.4857V27.9378H11.4206V28.0028H11.3556V28.1003H11.2906L11.2581 28.2303H11.1931V28.2953H11.1281V28.3928H11.0631V28.4578H10.9981L10.9656 28.5878H10.9006V28.6854H10.8356V28.7504H10.7706V28.8154H10.7056C10.7017 28.8349 10.6975 28.8544 10.6932 28.8742C10.6731 28.9454 10.6731 28.9454 10.6081 29.0429H10.5431V29.1079H10.4781V29.1729H10.4131V29.2704H10.3481L10.3155 29.4004H10.2505V29.4654H10.1855V29.5304H10.1205V29.6279H10.023V29.6929H9.40547V29.7579H9.24296V29.6929H9.11295V28.8479H9.17795V28.7504H9.24296V28.6203H9.30796C9.31804 28.595 9.32811 28.5693 9.33852 28.543C9.37297 28.4578 9.37297 28.4578 9.40547 28.3928H9.47048V28.3278H9.53548V28.2303H9.60049V28.1653H9.66549V28.1003H9.7305L9.763 27.9703H9.82801V27.9053H9.89301V27.8078H9.99052L10.0555 27.6128H10.1205V27.5153H10.1855V27.4502H10.2505C10.2899 27.3745 10.3211 27.304 10.3481 27.2227H10.4131V27.1577H10.4781C10.4911 27.1304 10.4911 27.1304 10.5044 27.1028C10.5466 27.0209 10.5892 26.9419 10.6406 26.8652H10.7056V26.8002H10.7706V26.7027H10.8356V26.6377H10.9006L10.9331 26.5077H10.9981V26.4427H11.0631V26.3452H11.1281V26.2801H11.1931L11.2237 26.219C11.2458 26.1745 11.2682 26.13 11.2906 26.0851H11.3556V25.9876H11.4206V25.9226H11.4857L11.5182 25.7926H11.5832V25.6951H11.6482V25.6301H11.7132V25.5651H11.7782C11.7883 25.5397 11.7983 25.5141 11.8087 25.4877C11.8432 25.4026 11.8432 25.4026 11.8757 25.3376H11.9407V25.2726H12.0057V25.175H12.0707V25.11H12.1357L12.1682 24.98H12.2332V24.915H12.2982V24.8175H12.3632V24.7525H12.4282L12.4607 24.6225H12.5257V24.525H12.5907V24.46H12.6558C12.6688 24.4327 12.6688 24.4327 12.6821 24.4051C12.7243 24.3232 12.7669 24.2442 12.8183 24.1675H12.8833V24.1025H12.9483V24.0049H13.0133L13.0438 23.9438C13.0659 23.8993 13.0884 23.8548 13.1108 23.8099H13.1758V23.7449H13.2408V23.6474H13.3058V23.5824H13.3708L13.4033 23.4524H13.4683L13.4033 23.2574H13.3058V23.1924H13.2408V23.0949H13.1758V23.0299H13.1108V22.9649H13.0458L13.0133 22.8348H12.9483V22.7373H12.8833V22.6723H12.8183V22.6073H12.7533V22.5423C12.7211 22.5316 12.6889 22.5209 12.6558 22.5098V22.4448H12.5907V22.3798H12.5257V22.3148H12.4607L12.4282 22.1848H12.3632V22.0873H12.2982V22.0223H12.2332V21.9573H12.1682C12.1156 21.9124 12.1156 21.9124 12.0707 21.8598V21.7948H12.0057V21.7298H11.9407V21.6647H11.8757C11.7782 21.5224 11.7782 21.5224 11.7782 21.4372H11.7132V21.3722H11.6482V21.3072H11.5832C11.498 21.2299 11.498 21.2299 11.4206 21.1447V21.0797H11.3556C11.3137 21.0322 11.3137 21.0322 11.2705 20.9698C11.2559 20.9497 11.2412 20.9292 11.2263 20.9084C11.1931 20.8522 11.1931 20.8522 11.1931 20.7872H11.1281V20.7222H11.0631V20.6572H10.9981V20.5597H10.9331L10.9006 20.4296H10.8356V20.3646H10.5431V20.4296H10.4781V20.4946H10.4131C10.403 20.52 10.3929 20.5457 10.3825 20.572C10.3481 20.6572 10.3481 20.6572 10.3155 20.7222H10.2505V20.7872H10.1855V20.8522H10.1205V20.9172C10.0757 20.9698 10.0757 20.9698 10.023 21.0147H9.95802V21.0797H9.89301V21.1772H9.82801V21.2747C9.78315 21.3296 9.78315 21.3296 9.7305 21.3722H9.66549V21.4372H9.60049V21.5022H9.53548V21.5997H9.47048V21.6647H9.40547L9.37297 21.7948H9.30796V21.8598H9.24296V21.9573H9.17795V22.0223H9.11295V22.0873C9.06809 22.1399 9.06809 22.1399 9.01544 22.1848H8.95043V22.2498H8.88543C8.88283 22.268 8.88023 22.2859 8.8773 22.3047C8.84512 22.4039 8.79279 22.4659 8.72291 22.5423H8.65791V22.6073H8.5929V22.6723H8.5279C8.51489 22.6996 8.51489 22.6996 8.50157 22.7273C8.45931 22.8092 8.41674 22.8882 8.36538 22.9649H8.30038V23.0299C8.22334 23.115 8.22334 23.115 8.13786 23.1924H8.07286V23.2574H8.00785V23.3224H7.94284V23.4199H7.87784V23.4849H7.81283L7.78033 23.6149H7.71533V23.6799H7.65032V23.7774H7.58531V23.8424H7.52031L7.48781 23.9399C7.33407 24.0111 7.18358 24.0147 7.01651 24.0144C6.97556 24.0147 6.97556 24.0147 6.93363 24.015C6.8423 24.016 6.75129 24.016 6.65996 24.0163C6.5943 24.0167 6.52897 24.0173 6.46332 24.0176C6.28553 24.0189 6.10904 24.0196 5.93027 24.0202C5.74436 24.0209 5.55974 24.0222 5.37122 24.0231C5.0592 24.0248 4.74717 24.0261 4.43514 24.0274C4.07436 24.0287 3.71358 24.0306 3.3528 24.0329C3.04305 24.0345 2.73199 24.0362 2.42322 24.0375C2.23795 24.0384 2.05269 24.0391 1.86742 24.0404C1.69353 24.0414 1.51964 24.042 1.34412 24.0427C1.28009 24.0427 1.21639 24.043 1.15236 24.0436C1.06525 24.0443 0.978143 24.0443 0.891035 24.0446C0.865683 24.0446 0.840006 24.0449 0.813678 24.0453C0.690493 24.0449 0.635564 24.0427 0.530255 23.9724C0.518229 23.8886 0.518229 23.8886 0.518229 23.78C0.517904 23.7391 0.517903 23.6978 0.517578 23.6552L0.518554 23.5168C0.518554 23.468 0.518554 23.4192 0.518229 23.3705C0.517904 23.2363 0.518554 23.1017 0.51888 22.9675C0.519205 22.8228 0.519203 22.6779 0.519203 22.5319C0.519203 22.281 0.519529 22.0314 0.519854 21.7779C0.520829 21.4138 0.521153 21.053 0.521153 20.689C0.521478 20.1007 0.52213 19.5124 0.52278 18.9241C0.523755 18.3521 0.524403 17.78 0.525053 17.208V17.1014C0.525053 16.9245 0.525378 16.7471 0.525378 16.5716C0.526354 15.1057 0.527979 13.6366 0.530255 12.1837H0.59526V12.1187H9.82606V12.1837C9.84556 12.1876 9.86506 12.1918 9.88489 12.196C9.95607 12.2162 9.95607 12.2162 10.0536 12.2812V12.3462H10.1186V12.4112H10.1836L10.2486 12.5737H10.3136V12.6387H10.3786L10.4111 12.7687H10.4761V12.8337H10.5411V12.9312H10.6061V12.9962H10.7036V13.0613H10.7686V13.1588H10.8336L10.8987 13.3538H10.9962V13.4188H11.0612V13.5163H11.1262V13.5813H11.1912L11.2237 13.7113H11.2887V13.7763H11.3537V13.8738H11.4187V13.9388H11.4837V14.0038H11.5487C11.6014 14.0487 11.6014 14.0487 11.6462 14.1013V14.1664H11.7112V14.2314H11.7762C11.8182 14.2788 11.8182 14.2788 11.8614 14.3412C11.876 14.3614 11.8906 14.3818 11.9056 14.4026C11.9387 14.4589 11.9387 14.4589 11.9387 14.5239H12.0037V14.5889H12.0688V14.6539H12.1338C12.2189 14.7312 12.2189 14.7312 12.2963 14.8164V14.8814H12.3613V15.0114H12.4263C12.5114 15.0888 12.5114 15.0888 12.5888 15.1739V15.2389H12.6538V15.3365H12.7188L12.7838 15.5315H12.8813V15.629C12.9564 15.6183 13.0315 15.6075 13.1088 15.5965V15.5315H13.1738V15.4665H13.2389V15.4015H13.3039L13.3364 15.3039H13.4014V15.2389H13.4664V15.1739H13.5314V15.0764H13.5964C13.6113 15.0462 13.6113 15.0462 13.6269 15.0153C13.649 14.9708 13.6715 14.9263 13.6939 14.8814H13.7589V14.8164H13.8239V14.7189H13.8889V14.6539H13.9539V14.5889H14.0189L14.0495 14.5278C14.0716 14.4833 14.094 14.4387 14.1164 14.3939H14.1814V14.2964H14.2789V14.2314H14.3439L14.409 13.9388H14.3439C14.2464 13.7965 14.2464 13.7965 14.2464 13.7113H14.1814V13.6463H14.1164C14.0189 13.5039 14.0189 13.5039 14.0189 13.4188H13.9539V13.3538H13.8889V13.2563H13.8239V13.1913H13.7589L13.6939 12.9962H13.5964V12.8987H13.5314V12.8337H13.4664C13.4576 12.8077 13.4488 12.7814 13.44 12.7544C13.4274 12.7271 13.4144 12.6995 13.4014 12.6712C13.3692 12.6605 13.337 12.6498 13.3039 12.6387V12.5737H13.2389V12.5087H13.1738V12.3787H13.1088C13.0237 12.3056 13.0237 12.3056 12.9463 12.2162V12.0862H12.8813V12.0212H12.8163L12.7513 11.8587H12.6538V11.7611H12.5888V11.6636H12.5238V11.5661H12.4588V11.5011H12.3613V11.4036H12.2963V11.3386H12.2313V11.2086H12.1663V11.1436C12.1341 11.1329 12.1019 11.1221 12.0688 11.1111V11.0461H12.0037V10.9161H11.9387V10.8511H11.8737C11.7886 10.7779 11.7886 10.7779 11.7112 10.6885V10.5585H11.6462V10.4935H11.5812V10.396H11.5162V10.331H11.4187V10.2335H11.3537L11.2887 10.0385H11.2237V9.97349H11.1262V9.87598H11.0612V9.74597H10.9962V9.68096H10.9312V9.61596H10.8661L10.8336 9.48595H10.7686V9.38844H10.7036V9.32343H10.6386V9.22592H10.5736L10.5411 9.09591H10.4761V9.03091H10.4111V8.9659H10.3461V8.86839H10.2811V8.80339H10.2161L10.1836 8.67338H10.1186V8.57587H10.0536V8.51086H9.98857V8.44586H9.92357L9.89106 8.31584H9.82606V8.21834H9.76105V8.15333H9.69605L9.66354 8.02332H9.59854V7.92581H9.53353V7.86081H9.46853V7.7958H9.40352C9.38889 7.76427 9.37394 7.73274 9.35867 7.70024C9.31706 7.59851 9.31706 7.59851 9.24101 7.56828V7.43827H9.176C9.05444 7.08074 8.99204 6.84997 9.1435 6.49569H9.24101V6.43068C9.31739 6.42906 9.3941 6.42776 9.47048 6.42678C9.53451 6.42548 9.53451 6.42548 9.59984 6.42418C9.73245 6.43101 9.83093 6.45441 9.95737 6.49569V6.56069H10.0549V6.6257C10.1192 6.64195 10.1192 6.64195 10.1849 6.6582V6.75571C10.2171 6.76644 10.2492 6.77716 10.2824 6.78821V6.85322H10.3474V6.91822H10.4124V6.98323H10.4774V7.08074H10.5424V7.14574H10.6074C10.7049 7.28811 10.7049 7.28811 10.7049 7.37326H10.7699V7.43827H10.8349C10.8769 7.48572 10.8769 7.48572 10.9201 7.54813C10.9347 7.56828 10.9494 7.58876 10.9643 7.60956C10.9975 7.66579 10.9975 7.66579 10.9975 7.73079H11.0625V7.7958H11.1275C11.225 7.93816 11.225 7.93816 11.225 8.02332H11.29V8.08833H11.355V8.15333H11.42V8.25084H11.485L11.5175 8.38085H11.5825V8.44586H11.6475V8.51086H11.7125V8.60837H11.7775C11.7863 8.63437 11.7951 8.6607 11.8039 8.68768C11.8165 8.71498 11.8295 8.74261 11.8425 8.77088C11.8747 8.78161 11.9069 8.79234 11.94 8.80339V8.86839H12.005V8.9334H12.0701V9.06341H12.1351V9.12841C12.1672 9.13914 12.1994 9.14987 12.2326 9.16092V9.22592H12.2976V9.29093H12.3626V9.42094H12.4276C12.5127 9.4983 12.5127 9.4983 12.5901 9.58345V9.64846H12.6551V9.74597H12.7201L12.7851 9.94099H12.8826V10.006H12.9476V10.1035H13.0126V10.2335H13.0776V10.2985C13.1098 10.3092 13.142 10.32 13.1751 10.331V10.396H13.2402V10.461H13.3052C13.3182 10.5082 13.3182 10.5082 13.3315 10.5566C13.3442 10.5894 13.3572 10.6222 13.3702 10.656C13.4023 10.6668 13.4345 10.6775 13.4677 10.6885V10.7536H13.5327V10.8186H13.5977C13.6373 10.8741 13.6373 10.8741 13.6789 10.9466C13.7335 11.0477 13.7335 11.0477 13.8252 11.1111V11.1761H13.8902V11.2736H13.9552C13.9884 11.3276 14.0209 11.3815 14.0527 11.4361L14.1177 11.4686V11.5336H14.1827C14.2302 11.6198 14.2477 11.6601 14.2477 11.7611H14.3127V11.8261C14.3449 11.8369 14.3771 11.8476 14.4103 11.8587V11.9237H14.4753V12.0212H14.5403V12.1187H14.6053V12.1837H14.6703C14.7229 12.2243 14.7229 12.2243 14.7678 12.2812V12.4112H14.8328V12.4762H14.8978L14.9628 12.6387H15.0278L15.0603 12.7687H15.1253V12.8662H15.1903V12.9312H15.2553V12.9962H15.4178V12.9312H15.4828C15.4929 12.9059 15.503 12.8802 15.5134 12.8539C15.5479 12.7687 15.5479 12.7687 15.5804 12.7037H15.6454V12.6387H15.7104V12.5737H15.7754L15.8079 12.4762H15.8729V12.4112H15.9379V12.3462H16.0029V12.2812H16.0679V12.1837H16.1329V12.1187H22.536V12.0537H22.666V11.9887C22.7108 11.936 22.7108 11.936 22.7635 11.8912H22.8285V11.7611H22.926V11.6961H22.991L23.056 11.5336H23.121V11.4036H23.186V11.3386C23.2309 11.286 23.2309 11.286 23.2835 11.2411H23.3485V11.1111H23.4135V11.0461H23.4785V10.9486H23.5435V10.8836H23.6085L23.6411 10.7536H23.7061V10.656H23.7711V10.591H23.8361V10.526H23.9011L23.9336 10.396H23.9986V10.2985H24.0636V10.2335H24.1286V10.1685H24.1936L24.2261 10.0385H24.2911V9.94099H24.3561V9.87598H24.4211C24.4312 9.85063 24.4413 9.82495 24.4517 9.79862C24.4861 9.71347 24.4861 9.71347 24.5186 9.64846H24.5836V9.58345H24.6486V9.51845H24.7136V9.42094H24.7786L24.8112 9.29093H24.8762V9.22592H24.9412V9.12841H25.0062V9.06341H25.0712L25.1037 8.9334H25.1687V8.86839H25.2337L25.2987 8.70588H25.3637V8.64087C25.4063 8.59699 25.4498 8.55344 25.4937 8.51086L25.5262 8.44586H25.5912V8.38085H25.6562C25.6601 8.36135 25.6644 8.34185 25.6686 8.32202C25.6887 8.25084 25.6887 8.25084 25.7537 8.15333H25.8187V8.08833H25.8837V7.95831H25.9487V7.86081H26.0138V7.7958H26.1113V7.73079H26.1763V7.63329H26.2413V7.50327H26.3063V7.43827H26.4038V7.37326H26.4688V7.27575H26.5338V7.21075H26.5988V7.08074H26.6963L26.7613 6.91822H26.8263V6.85322H26.8913V6.75571C26.9502 6.68453 26.9502 6.68453 27.0213 6.6257H27.1189V6.56069H27.1839V6.49569H27.4764V6.43068C27.6532 6.40175 27.7975 6.37998 27.9639 6.46318L27.9584 6.45018ZM1.82614 13.4058V13.5033C1.79396 13.5195 1.79396 13.5195 1.76114 13.5358H1.82614V15.811H1.76114V22.7341C1.85052 22.7786 1.92138 22.7705 2.02148 22.7705H2.14759C2.19407 22.7705 2.24055 22.7705 2.28703 22.7702H2.43297C2.56558 22.7702 2.69787 22.7702 2.8295 22.7698C2.96764 22.7698 3.1061 22.7695 3.24554 22.7695C3.50751 22.7695 3.76883 22.7692 4.03211 22.7689C4.33048 22.7685 4.63016 22.7685 4.92593 22.7682C5.54024 22.7679 6.15454 22.7672 6.76559 22.7666V22.7016L6.92811 22.6691V22.6041H6.99311V22.4741H7.05812V22.4091H7.12312C7.1774 22.3658 7.1774 22.3658 7.22063 22.3116V22.2465H7.28564V22.1165H7.35064V22.0515H7.41565V21.954H7.51316V21.889H7.57816V21.824H7.64317V21.7265H7.70817V21.6615H7.77318V21.5965H7.83818C7.89376 21.5572 7.89376 21.5572 7.93569 21.499V21.369H8.0007V21.304H8.09821V21.239H8.16321L8.22822 21.0764H8.29322V21.0114H8.35823V20.9464H8.42324C8.49799 20.8632 8.52074 20.8333 8.52074 20.7189H8.58575V20.6539H8.65076V20.5889C8.68293 20.5782 8.71511 20.5675 8.74826 20.5564V20.4914H8.81327V20.4264H8.87827V20.3614H8.94328C9.01869 20.2567 9.01869 20.2567 9.04079 20.1339H9.10579V20.0689H9.1708V20.0039H9.23581V19.9063H9.30081V19.8413H9.36582L9.39832 19.7113H9.46333V19.6463H9.52833V19.5488H9.59334V19.4838H9.69084L9.75585 19.3213H9.82086V19.1913H9.91836V19.1263H9.98337V19.0613H10.0484V18.9638H10.1134V18.8988H10.1784L10.2109 18.7687H10.2759L10.3409 18.6062H10.4059V18.5412H10.4709V18.4762H10.5359C10.6107 18.393 10.6334 18.3631 10.6334 18.2487H10.6984V18.1837H10.7634V18.1187H10.8284C10.9133 18.0261 10.9724 17.952 10.991 17.8262H11.056V17.7612H11.121V17.6637H11.2185V17.5986H11.2835V17.5336H11.3485V17.4361H11.4135V17.3711H11.4785L11.511 17.2411H11.576V17.1761H11.641V17.1111H11.706V17.0136H11.8035V16.9486H11.8685V16.8836H11.9335V16.7861H11.9985V16.6561H12.0636V16.5261H11.9985V16.396L11.8685 16.3635V16.2985H11.8035V16.2335H11.706V16.1035H11.641V16.0385H11.576C11.563 16.0073 11.563 16.0073 11.5497 15.9755C11.5146 15.8978 11.5146 15.8978 11.4135 15.876V15.811H11.3485V15.7135H11.2835L11.186 15.5185H11.121V15.4535H11.056V15.356H10.991V15.2909H10.926V15.2259H10.8609L10.8284 15.1284H10.7634V15.0309H10.6984V14.9334H10.6334V14.8684H10.5359V14.8034H10.4709V14.7059H10.4059V14.6409H10.3409V14.5759H10.2759L10.1784 14.3809H10.1134V14.2834H10.0484V14.2184H9.98337C9.97459 14.1976 9.96582 14.1768 9.95704 14.1553C9.92194 14.0776 9.92194 14.0776 9.82086 14.0558V13.9258H9.75585V13.8608H9.69084L9.65834 13.7633H9.59334V13.6983H9.52833V13.5683H9.46333L9.43082 13.4708H9.23581V13.4058H1.82517H1.82614ZM16.7124 13.4058V13.4708H16.5824C16.5051 13.5745 16.5051 13.5745 16.4849 13.6983H16.4199V13.7633H16.3549V13.8608H16.2899V13.9258H16.2249C16.1947 14.0438 16.1836 14.1017 16.235 14.2145C16.2532 14.2372 16.2714 14.26 16.2899 14.2834H16.3549V14.3484H16.4199V14.4459H16.4849L16.5174 14.5759H16.5824V14.6409H16.6474V14.7384H16.7124V14.8034H16.7774L16.8099 14.9334H16.8749V14.9984H16.9399V15.0959H17.005V15.1609H17.07C17.0787 15.185 17.0875 15.2094 17.0963 15.2341C17.1333 15.3199 17.1704 15.3839 17.2325 15.4535H17.2975V15.5185H17.3625V15.616H17.4275L17.46 15.746H17.525V15.811H17.59V15.876H17.655C17.6576 15.8961 17.6602 15.9163 17.6631 15.9371C17.6813 16.0119 17.6813 16.0119 17.7545 16.0466C17.7857 16.0587 17.7857 16.0587 17.8175 16.071V16.136H17.8825V16.2335H17.9475C17.9586 16.2768 17.9586 16.2768 17.97 16.321C18.0184 16.4435 18.0749 16.5062 18.1751 16.5911H18.2401V16.7211H18.3051V16.7861H18.3701L18.4026 16.8836H18.4676V16.9486H18.5326V17.0136H18.6301V16.9486H18.6951V16.8836H18.7601V16.7861H18.8251V16.7211H18.8901C18.9064 16.6567 18.9064 16.6567 18.9226 16.5911H18.9876V16.5261H19.0526V16.4285H19.1176V16.3635H19.1826C19.2268 16.3151 19.2268 16.3151 19.2678 16.2537C19.2824 16.2335 19.2971 16.2131 19.312 16.1923C19.3507 16.1376 19.3507 16.1376 19.3452 16.071H19.4102V16.006H19.4752C19.5532 15.9202 19.5532 15.9202 19.5727 15.811H19.6377V15.746H19.7027V15.6485H19.7677C19.8457 15.5627 19.8457 15.5627 19.8652 15.4535H19.9302V15.3885H19.9952V15.2909H20.0602V15.1609H20.1577V15.0959H20.2227V14.9984H20.2877V14.9334H20.3527V14.8684H20.4177C20.4932 14.7638 20.4932 14.7638 20.5153 14.6409H20.5803V14.5759H20.6453V14.4784H20.7103C20.7883 14.3926 20.7883 14.3926 20.8078 14.2834H20.8728V14.2184H20.9378V14.1208H21.0028C21.0808 14.035 21.0808 14.035 21.1003 13.9258H21.1653V13.8608H21.2303V13.7633H21.2953V13.6333C21.3161 13.6239 21.3369 13.6145 21.3584 13.6047C21.4302 13.5738 21.4302 13.5738 21.4578 13.5033L21.4253 13.4058H16.7124ZM30.5261 13.4708V13.5358C30.4939 13.5465 30.4618 13.5572 30.4286 13.5683V13.6333H30.3636V13.6983H30.2986V13.7958H30.2336V13.8608H30.1686V13.9258H30.1036L30.0711 14.0558H30.0061V14.1208H29.9411V14.2184H29.8761V14.2834H29.7786L29.7136 14.4459H29.6485V14.5759H29.551V14.6409H29.486V14.7059H29.421V14.8034H29.356V14.8684H29.291V14.9334H29.226C29.1513 15.0166 29.1285 15.0465 29.1285 15.1609H29.0635V15.2259H28.9985V15.2909H28.9335C28.8792 15.3342 28.8792 15.3342 28.836 15.3885V15.4535H28.771V15.5185H28.706V15.6485C28.6748 15.6615 28.6748 15.6615 28.6429 15.6748C28.5652 15.7099 28.5652 15.7099 28.5434 15.811H28.4784V15.876H28.4134V15.941H28.3484V16.0385H28.2834V16.1035H28.1859V16.201H28.1209V16.2985H28.0559C28.0016 16.3418 28.0016 16.3418 27.9584 16.396V16.461H27.8934V16.5261H27.8284V16.6236H27.7634V16.6886H27.6984V16.7536H27.6334C27.6174 16.8179 27.6174 16.8179 27.6009 16.8836H27.5359V16.9811H27.4709V17.0461H27.4059C27.3899 17.1105 27.3899 17.1105 27.3733 17.1761H27.3083V17.2736H27.2433V17.3386H27.1783V17.4036H27.1133C27.0379 17.5083 27.0379 17.5083 27.0158 17.6311H26.9508V17.6962H26.8858V17.7612H26.8208C26.7616 17.8242 26.7616 17.8242 26.7031 17.9035C26.6723 17.9429 26.6723 17.9429 26.6407 17.9835C26.5871 18.0485 26.5871 18.0485 26.5933 18.1187H26.5283V18.1837C26.4961 18.1944 26.4639 18.2051 26.4308 18.2162V18.2812H26.3658V18.3462H26.3008V18.4112H26.2358V18.5087H26.1707V18.5737H26.1057L26.0732 18.7037H26.0082V18.7687H25.9432V18.8663H25.8782V18.9313H25.7807V18.9963H25.7157V19.0938H25.6507V19.2238H25.5857V19.2888C25.5545 19.3018 25.5545 19.3018 25.5226 19.3151C25.445 19.3502 25.445 19.3502 25.4232 19.4513H25.3582V19.5163H25.2932V19.5813H25.2282V19.6463C25.196 19.657 25.1638 19.6678 25.1307 19.6788C25.1469 19.7594 25.1469 19.7594 25.1632 19.8413H25.2282V19.9063H25.2932V20.0039H25.3582V20.0689H25.4232V20.1339H25.4882L25.5207 20.2314H25.5857V20.2964H25.6507C25.6618 20.3396 25.6618 20.3396 25.6731 20.3838C25.7216 20.5063 25.7781 20.5691 25.8782 20.6539H25.9432V20.7189H26.0082V20.7839H26.0732C26.082 20.8047 26.0908 20.8255 26.0996 20.847C26.1347 20.9247 26.1347 20.9247 26.2358 20.9464V21.0764H26.3008V21.1415H26.3658L26.3983 21.239H26.4633V21.304H26.5283V21.369H26.5933V21.4665H26.6583V21.5315H26.7233L26.7558 21.6615H26.8208V21.7265H26.8858V21.824H26.9508V21.889H27.0158V21.954H27.1133V22.0515H27.1783V22.1165H27.2433L27.2758 22.2465H27.3408V22.3116H27.4059V22.4091H27.4709V22.4741H27.5359L27.6009 22.6691L27.7634 22.7016V22.7666H35.7591C35.762 21.1155 35.762 21.1155 35.7639 19.4513C35.7639 19.229 35.7643 19.006 35.7643 18.785C35.7646 18.757 35.7646 18.7291 35.7646 18.7005C35.7649 18.252 35.7656 17.8002 35.7665 17.3484C35.7675 16.8868 35.7682 16.4253 35.7682 15.9638C35.7685 15.6787 35.7688 15.3917 35.7695 15.1089C35.7701 14.9136 35.7701 14.7189 35.7701 14.5239C35.7701 14.4111 35.7701 14.2983 35.7708 14.1859C35.7711 14.0636 35.7711 13.9414 35.7708 13.8186C35.7711 13.7825 35.7714 13.7464 35.7717 13.7094C35.7714 13.6769 35.7714 13.6444 35.7711 13.6109V13.5254C35.7652 13.4919 35.7652 13.4919 35.7591 13.4578C35.6463 13.3827 35.6037 13.3847 35.4708 13.3847C35.4311 13.3843 35.3911 13.384 35.3502 13.384C35.306 13.384 35.2618 13.3843 35.2176 13.3843C35.1711 13.3843 35.1246 13.384 35.0781 13.384C34.9517 13.3837 34.8253 13.384 34.6979 13.384C34.5656 13.3843 34.433 13.384 34.3013 13.384C34.0787 13.3837 33.856 13.384 33.6318 13.3843C33.375 13.3847 33.1182 13.3847 32.8614 13.3843C32.6408 13.384 32.4194 13.384 32.1984 13.384H31.8019C31.6774 13.3837 31.5532 13.384 31.4281 13.3843C31.3829 13.3843 31.3374 13.3843 31.2922 13.384C31.0283 13.3834 30.7819 13.3993 30.5251 13.4578L30.5261 13.4708ZM22.5954 13.9908V14.1533H22.5304V14.2184H22.4654L22.4329 14.3484H22.3679L22.3029 14.5109H22.2379V14.5759H22.1729C22.1287 14.6243 22.1287 14.6243 22.0877 14.6857C22.066 14.716 22.066 14.716 22.0435 14.7472C22.0049 14.8018 22.0049 14.8018 22.0104 14.8684H21.9454V14.9334H21.8804V15.0309H21.8154L21.7829 15.1609H21.7179V15.2259H21.6529V15.2909H21.5878V15.421H21.5228V15.5185H21.4253C21.3204 15.6501 21.3204 15.6501 21.2953 15.811H21.2303V15.876C21.2108 15.8841 21.1913 15.8922 21.1715 15.9004C21.0893 15.9472 21.0516 15.9907 21.0028 16.071V16.1685H20.9378V16.2335C20.9056 16.2443 20.8734 16.255 20.8403 16.266V16.331H20.7753V16.396H20.7103V16.4936H20.6453V16.5911C20.6131 16.6018 20.5809 16.6125 20.5478 16.6236V16.6886H20.4828V16.7536H20.4177V16.8836H20.3527V16.9811H20.2877V17.0461H20.2227L20.1902 17.1761H20.1252V17.2411H20.0602V17.3386H19.9952V17.4036H19.9302L19.8977 17.5336H19.8327V17.5986H19.7677V17.6962H19.7027V17.7612H19.6377C19.5834 17.8044 19.5834 17.8044 19.5402 17.8587V17.9237H19.4752V18.0537H19.4102V18.1187H19.4752V18.2487H19.5402V18.3137C19.5834 18.368 19.5834 18.368 19.6377 18.4112H19.7027V18.4762H19.7677V18.5412H19.8327V18.6712H19.8977L19.9302 18.7687H19.9952V18.8338H20.0602V18.9313H20.1252C20.1324 18.9615 20.1324 18.9615 20.1395 18.9924C20.1554 19.0622 20.1554 19.0622 20.1902 19.1263H20.2877V19.1913H20.3527V19.2888H20.4177V19.4188H20.4828V19.4838H20.5803V19.5488H20.6453V19.6463H20.7103V19.7763H20.7753V19.8413H20.8403L20.8728 19.9388H20.9378V20.0039H21.0028V20.1339H21.0678V20.1989H21.1328L21.1653 20.2964H21.2303V20.3614H21.2953V20.4914H21.3603L21.4253 20.6539H21.4903L21.5228 20.7839H21.5878V20.8489H21.6529V20.9464H21.7179C21.7309 20.9825 21.7309 20.9825 21.7442 21.0196C21.7829 21.1086 21.8105 21.1717 21.8804 21.239C21.9821 21.2497 21.9821 21.2497 22.0754 21.239L22.1079 21.1415H22.1729V21.0114H22.2379V20.9464H22.3029C22.3572 20.9032 22.3572 20.9032 22.4004 20.8489V20.7839H22.4654V20.7189H22.5304V20.6539H22.5954C22.6708 20.5493 22.6708 20.5493 22.6929 20.4264H22.7579V20.3614H22.823V20.2964H22.888V20.1989H22.953L22.9855 20.0689H23.0505V20.0039H23.1155V19.9063H23.1805V19.8413H23.2455V19.7763H23.3105L23.343 19.6463H23.408V19.5488H23.473V19.4838H23.538V19.4188H23.603C23.6573 19.3756 23.6573 19.3756 23.7005 19.3213V19.2563H23.7655V19.1263H23.863V19.0613H23.9281L23.9931 18.8988H24.0581V18.8338H24.1231V18.7687H24.1881C24.2628 18.6855 24.2856 18.6556 24.2856 18.5412H24.3506V18.4762H24.4156V18.4112H24.4806C24.5654 18.3186 24.6246 18.2445 24.6431 18.1187H24.7081C24.7624 18.0755 24.7624 18.0755 24.8056 18.0212V17.9562H24.8706V17.8912H24.9356V17.8262H25.0006V17.7287H25.0656V17.6637H25.1307L25.1632 17.5336H25.2282V17.4686H25.2932V17.3711H25.3582V17.3061H25.4557C25.5639 17.1946 25.5639 17.1946 25.5857 17.0461H25.4882C25.4801 17.0253 25.4723 17.0045 25.4638 16.983C25.429 16.9099 25.429 16.9099 25.3543 16.8917C25.3341 16.8891 25.314 16.8865 25.2932 16.8836V16.8186H25.2282C25.2152 16.7815 25.2152 16.7815 25.2018 16.7435C25.1648 16.6596 25.1368 16.6148 25.0656 16.5586H25.0006V16.461H24.9356V16.396H24.8706V16.331C24.8274 16.2768 24.8274 16.2768 24.7731 16.2335H24.7081V16.1685H24.6431L24.5781 16.006H24.5131L24.4156 15.811H24.3506V15.746H24.2856C24.2534 15.6654 24.2534 15.6654 24.2206 15.5835H24.1556V15.5185H24.0581V15.3885H23.9931C23.9609 15.3078 23.9609 15.3078 23.9281 15.2259H23.8305V15.1609H23.7655V15.0634H23.7005V14.9984H23.6355L23.603 14.8684H23.538V14.8034H23.473V14.7059H23.408V14.6409H23.343V14.5759H23.278C23.2617 14.5275 23.2617 14.5275 23.2455 14.4784H23.1805V14.4134H23.1155V14.3484H23.0505V14.2184H22.9855C22.9692 14.1699 22.9692 14.1699 22.953 14.1208H22.888V14.0558H22.823V13.9908H22.5954ZM15.1848 15.0959V15.1609H15.1198V15.2259H15.0548C14.9794 15.3306 14.9794 15.3306 14.9573 15.4535H14.8923V15.5185H14.8273V15.5835H14.7623C14.6638 15.6829 14.6638 15.6829 14.6322 15.811H14.5347V15.941H14.4697V16.006H14.4047C14.3504 16.0492 14.3504 16.0492 14.3072 16.1035V16.1685H14.2422V16.2335H14.1772V16.331H14.1122V16.396H14.0472L14.0147 16.5261H13.9497V16.6236H13.8847V16.7536H13.8197V16.8186C13.7989 16.8274 13.7781 16.8361 13.7566 16.8449C13.6789 16.88 13.6789 16.88 13.6572 16.9811H13.5922V17.0461H13.5272V17.1761C13.4959 17.1891 13.4959 17.1891 13.4641 17.2024C13.3864 17.2375 13.3864 17.2375 13.3646 17.3386H13.2996V17.4036H13.2346V17.5011C13.2054 17.5132 13.2054 17.5132 13.1758 17.5255C13.0942 17.572 13.0565 17.6172 13.0071 17.6962V17.7612H12.9421V17.8262H12.8771C12.8228 17.8694 12.8228 17.8694 12.7796 17.9237V17.9887H12.7146V18.0537H12.6496V18.1187H12.5846V18.2162H12.5196V18.2812H12.4546L12.4221 18.4112H12.3571V18.4762H12.292V18.5737H12.1945V18.6387H12.1295V18.7037H12.0645V18.8013H11.9995V18.9313H11.9345V18.9963H11.837L11.772 19.1588H11.707V19.2238H11.642C11.6088 19.357 11.6088 19.357 11.642 19.4838H11.772C11.8042 19.5644 11.8042 19.5644 11.837 19.6463H11.902L11.9345 19.7763H11.9995V19.8413H12.0645V19.9063H12.1295L12.162 20.0039H12.227V20.0689H12.292V20.1339H12.3571V20.2314H12.4221V20.2964H12.4871C12.5033 20.3607 12.5033 20.3607 12.5196 20.4264H12.5846V20.4914H12.6496V20.5889H12.7146V20.6539H12.7796V20.7189H12.8771V20.7839H12.9421V20.8814H13.0071L13.1046 21.0764H13.1696V21.1415H13.2346V21.239H13.2996V21.304H13.3646V21.369H13.4296V21.434C13.4729 21.4883 13.4729 21.4883 13.5272 21.5315H13.5922L13.6572 21.7265H13.7222L13.7547 21.824H13.8197V21.889H13.8847V21.954H13.9497V22.019H14.0147L14.0472 22.1165H14.1122V22.1815H14.1772V22.2465H14.2422V22.3116H14.4047V22.2465H14.4697V22.149H14.5347L14.5672 22.019H14.6322V21.954H14.6973L14.7623 21.7915H14.8273V21.6615H14.9248V21.5965H14.9898V21.499H15.0548V21.369H15.1198V21.304H15.1848V21.239C15.217 21.2282 15.2492 21.2175 15.2823 21.2065C15.3564 21.1148 15.3564 21.1148 15.3473 21.0114H15.4123V20.9464H15.4773C15.5622 20.8538 15.6213 20.7797 15.6398 20.6539H15.7048V20.5889H15.7698C15.8547 20.4963 15.9138 20.4222 15.9324 20.2964H15.9974V20.1989H16.0624V20.1339H16.1274V20.0689H16.1924L16.2249 19.9388H16.2899V19.8413H16.3549V19.7763H16.4199C16.4979 19.6905 16.4979 19.6905 16.5174 19.5813H16.5824V19.4838H16.6474V19.4188H16.7124C16.7566 19.3704 16.7566 19.3704 16.7976 19.3089C16.8122 19.2888 16.8268 19.2683 16.8418 19.2475C16.8805 19.1929 16.8805 19.1929 16.8749 19.1263H16.9399V19.0613H17.005L17.07 18.8988H17.135L17.1675 18.7687H17.2325V18.7037H17.2975V18.6062H17.3625V18.5412H17.4275L17.46 18.4112H17.525V18.3462H17.59V18.2487H17.6875C17.7265 18.173 17.7265 18.173 17.7525 18.0862L17.6875 17.9887H17.59V17.8587H17.525V17.7612H17.46V17.6962H17.395L17.2975 17.5011H17.2325V17.4036H17.1675V17.3386H17.1025L17.07 17.2411H17.005V17.1761H16.9399L16.8749 16.9811H16.8099L16.7774 16.8836H16.7124V16.8186H16.6474V16.6886H16.5824C16.5502 16.608 16.5502 16.608 16.5174 16.5261H16.4524L16.4199 16.396H16.3549V16.331H16.2899V16.2335H16.2249V16.1685H16.1599V16.1035H16.0949L16.0624 15.9735H15.9974V15.876H15.9324V15.811H15.8674C15.8586 15.7902 15.8498 15.7694 15.841 15.7479C15.8059 15.6703 15.8059 15.6703 15.7048 15.6485V15.5185H15.6398V15.4535H15.5748C15.5618 15.4223 15.5618 15.4223 15.5485 15.3904C15.5134 15.3127 15.5134 15.3127 15.4123 15.2909V15.2259H15.3473C15.3311 15.1616 15.3311 15.1616 15.3148 15.0959H15.1848ZM18.4676 19.2238V19.2888C18.4481 19.2963 18.4286 19.3034 18.4087 19.3112C18.3184 19.3655 18.2869 19.423 18.2401 19.5163V19.5813H18.1751V19.6463H18.11C18.0252 19.739 17.9661 19.8131 17.9475 19.9388H17.8825V20.0364H17.8175C17.6992 20.1495 17.6992 20.1495 17.655 20.2964H17.59V20.3614H17.525V20.4264H17.46L17.4275 20.5564H17.3625L17.2975 20.7189H17.2325V20.7839H17.1675C17.0927 20.8671 17.07 20.897 17.07 21.0114H17.005V21.0764H16.9399V21.1415H16.8749C16.7995 21.2461 16.7995 21.2461 16.7774 21.369H16.7124V21.434H16.6474V21.564C16.599 21.5802 16.599 21.5802 16.5499 21.5965V21.6615H16.4849V21.7265H16.4199L16.3549 21.889H16.2899L16.2574 22.019H16.1924V22.084H16.1274V22.1815H16.0624V22.2465H15.9974V22.3116H15.9324V22.3766H15.8674C15.7926 22.4598 15.7698 22.4897 15.7698 22.6041H15.7048V22.6691H15.6398V22.7341C15.7286 22.7786 15.7991 22.7708 15.8986 22.7711C15.9402 22.7715 15.9814 22.7715 16.024 22.7718H16.1622C16.2106 22.7721 16.2587 22.7721 16.3071 22.7724C16.4384 22.7728 16.5701 22.7731 16.7004 22.7731C16.7823 22.7731 16.8645 22.7734 16.9468 22.7734C17.2039 22.7741 17.4603 22.7744 17.7171 22.7744C18.0138 22.7744 18.3086 22.775 18.6077 22.776C18.8371 22.7767 19.066 22.777 19.2967 22.777C19.4336 22.777 19.5707 22.7773 19.7063 22.778C19.8353 22.7783 19.964 22.7786 20.093 22.7783C20.1405 22.7783 20.1876 22.7783 20.2348 22.7786C20.5663 22.7835 20.5663 22.7835 20.8718 22.6691V22.6041H20.9368V22.5391H21.0018V22.1815H20.9368V22.0515H20.8718V21.954H20.8068C20.7675 21.8783 20.7363 21.8078 20.7093 21.7265H20.6443V21.6615H20.5793L20.5143 21.499H20.4493L20.4168 21.369H20.3518V21.304H20.2868V21.2065H20.2218L20.1893 21.0764H20.1242V21.0114H20.0592V20.9139H19.9942L19.9292 20.7189H19.8317C19.7995 20.6383 19.7995 20.6383 19.7667 20.5564H19.7017V20.4914H19.6367C19.6279 20.4667 19.6192 20.4417 19.6104 20.4163C19.5733 20.3325 19.5454 20.2876 19.4742 20.2314H19.4092V20.1664H19.3442V20.0689H19.2792L19.1817 19.8738H19.1167V19.8088H19.0517V19.7113H18.9866C18.9704 19.647 18.9704 19.647 18.9541 19.5813H18.8891V19.5163H18.8241V19.4188H18.7591C18.7429 19.3544 18.7429 19.3544 18.7266 19.2888H18.6616V19.2238H18.4666H18.4676Z" fill="black"/>
</svg>
