<svg width="37" height="36" viewBox="0 0 37 36" fill="none" xmlns="http://www.w3.org/2000/svg">
<path d="M18.6894 3.90597C18.7988 3.9788 18.8128 4.00274 18.861 4.11901C18.8733 4.14842 18.8857 4.17748 18.8983 4.20792C18.911 4.23938 18.924 4.27084 18.9373 4.30333C18.965 4.36932 18.9924 4.43498 19.02 4.50064C19.0402 4.54954 19.0402 4.54954 19.0611 4.59946C19.2194 4.97904 19.3907 5.35178 19.5774 5.71768C19.6123 5.78607 19.6469 5.85515 19.6807 5.92422C19.7915 6.14787 19.9044 6.36877 20.0227 6.59105C20.2121 6.94327 20.392 7.29891 20.5527 7.66481C20.6803 7.9565 20.8177 8.24272 20.9562 8.52997C20.9679 8.55357 20.9795 8.5775 20.9911 8.60178C21.2021 9.03607 21.4186 9.46695 21.634 9.89782C21.8105 10.25 21.9828 10.6023 22.1401 10.9613C22.3477 11.4332 22.5778 11.8949 22.8206 12.3497C23.1253 12.9173 23.3951 13.5055 23.6653 14.0903C23.8116 14.41 23.9604 14.7263 24.1303 15.0341C24.2367 15.23 24.3345 15.4308 24.4333 15.6291C24.4672 15.6975 24.502 15.7655 24.5373 15.8336C24.6559 16.0654 24.7636 16.2987 24.8587 16.538C24.937 16.7367 25.028 16.9176 25.1429 17.0988C25.1559 17.119 25.1685 17.1395 25.1819 17.1604C25.2475 17.2589 25.2756 17.2999 25.3908 17.3382C25.3993 17.3174 25.4082 17.2962 25.4171 17.2746C25.4653 17.1905 25.4995 17.1679 25.585 17.1242C25.6237 17.104 25.6237 17.104 25.663 17.0835L25.7478 17.0411C25.7769 17.026 25.8063 17.0113 25.8364 16.9959C26.2159 16.802 26.6058 16.6232 26.9922 16.4419C27.0756 16.4033 27.1591 16.3647 27.2429 16.326C27.2634 16.3164 27.2842 16.3069 27.3054 16.2969C27.6577 16.1331 28.0065 15.9632 28.3553 15.784C28.5587 15.68 28.7656 15.5905 28.9776 15.5039C29.0809 15.4608 29.0809 15.4608 29.1513 15.4041C29.2464 15.333 29.348 15.2947 29.4577 15.2499C29.6233 15.1825 29.6233 15.1825 29.7802 15.0984C29.8702 15.0447 29.9604 15.0006 30.0555 14.9571C30.0907 14.9411 30.1256 14.925 30.1618 14.9086C30.2162 14.884 30.2162 14.884 30.272 14.8587C30.3079 14.8422 30.3434 14.8262 30.3804 14.8094C30.539 14.7369 30.698 14.6651 30.8591 14.595C30.9791 14.5417 31.0968 14.4845 31.2147 14.425C31.4151 14.3235 31.6183 14.226 31.82 14.1299C31.8501 14.1156 31.8802 14.1012 31.9113 14.0865C31.9746 14.0564 32.0375 14.0267 32.1008 13.9966C32.268 13.9172 32.4352 13.8379 32.6035 13.7582C32.6366 13.7421 32.6701 13.7264 32.7043 13.71C32.8928 13.6197 33.0805 13.5277 33.2651 13.4334C33.4891 13.3195 33.7165 13.2166 33.9491 13.1153C34.1392 13.0305 34.3252 12.9396 34.5099 12.8442C34.8997 12.6427 35.2759 12.4748 35.7239 12.4475C35.7478 12.4458 35.7721 12.4441 35.7967 12.442C36.048 12.4318 36.3507 12.4851 36.5456 12.6527C36.7166 12.9105 36.7166 12.9105 36.7166 13.0288H36.6482C36.6448 13.0572 36.641 13.0852 36.6376 13.1143C36.5579 13.5178 36.352 13.764 36.0323 14.0205C35.9225 14.0886 35.808 14.1392 35.6903 14.1915C35.6284 14.2226 35.5662 14.2534 35.5043 14.2848C35.2273 14.4257 34.9469 14.5591 34.6665 14.6918C34.4924 14.7738 34.3177 14.8566 34.1467 14.94C33.8892 15.0631 33.6304 15.1859 33.3739 15.3094C33.3137 15.3381 33.2532 15.3668 33.1927 15.3955C33.1024 15.4383 33.0124 15.481 32.9222 15.5234C32.6058 15.6732 32.2895 15.8244 31.9783 15.9817C31.8091 16.0668 31.6388 16.1496 31.4688 16.2299C31.4418 16.2426 31.4148 16.2556 31.3871 16.2686C31.1747 16.3684 30.9631 16.4676 30.7476 16.5661C30.5739 16.6485 30.4022 16.7353 30.2313 16.8225C29.9758 16.9525 29.7183 17.0756 29.455 17.1884C29.322 17.2452 29.192 17.3064 29.0618 17.3721C28.9267 17.4398 28.7899 17.5037 28.6548 17.5687C28.4076 17.6863 28.1624 17.805 27.9162 17.9243C26.9826 18.3791 26.9826 18.3791 26.5347 18.5877C26.5018 18.6031 26.4687 18.6185 26.4345 18.6346C26.4044 18.6483 26.3739 18.6623 26.3428 18.6763C26.3168 18.6883 26.2908 18.7003 26.2645 18.7126C26.1828 18.744 26.1038 18.7611 26.0176 18.7758C26.2902 19.4392 26.5818 20.0924 26.9067 20.7284C26.9638 20.8406 27.0199 20.9534 27.076 21.0659C27.1433 21.2007 27.2107 21.3358 27.2788 21.4695C27.4518 21.8114 27.6177 22.1602 27.7814 22.5056C28.0519 23.0767 28.3252 23.6409 28.6193 24.2017C28.7017 24.3577 28.7817 24.5143 28.8593 24.6736C29.0802 25.125 29.2765 25.4738 29.7484 25.6824C29.772 25.6934 29.7956 25.704 29.8199 25.7153C29.8965 25.7501 29.9731 25.7847 30.0497 25.8192C30.3055 25.9345 30.5592 26.0528 30.8123 26.1749C30.8471 26.1913 30.8817 26.208 30.9176 26.2251C31.093 26.3092 31.2664 26.3944 31.4408 26.4826C31.7003 26.6136 31.964 26.7343 32.2307 26.8554C32.4896 26.975 32.7471 27.0964 33.0001 27.2247C33.4447 27.449 33.8926 27.6555 34.344 27.8641C34.7817 28.0659 35.216 28.2677 35.6367 28.5036C35.6972 28.5368 35.7584 28.5682 35.8206 28.5983C36.2276 28.7994 36.484 29.0873 36.655 29.4977C36.7012 29.6841 36.6673 29.8465 36.5808 30.0141C36.5627 30.052 36.5627 30.052 36.5446 30.0903C36.3849 30.2565 36.1376 30.2753 35.9188 30.2798C35.2246 30.2743 34.7014 30.0243 34.0859 29.7155C34.037 29.6912 33.9881 29.6666 33.9392 29.6423C33.8738 29.6095 33.8085 29.577 33.7432 29.5439C33.47 29.4064 33.1926 29.2768 32.9157 29.1472C32.783 29.0843 32.6506 29.0207 32.519 28.9574C31.9992 28.7088 31.4794 28.4615 30.9562 28.2256C30.801 28.1555 30.6471 28.084 30.4946 28.0064C30.5982 28.2899 30.7319 28.5535 30.8673 28.8237C30.9025 28.8938 30.9378 28.9639 30.9726 29.0343C31.0831 29.2576 31.1959 29.4789 31.3139 29.6977C31.5181 30.0773 31.7106 30.4603 31.8816 30.857C31.9342 30.9798 31.9893 31.1001 32.0502 31.2195C32.1979 31.5074 32.3241 31.8076 32.4434 32.1086C30.4464 32.1093 28.4425 32.1096 26.4591 32.1099H26.3685C25.7153 32.1103 25.0656 32.1103 24.4124 32.1103H23.4515C23.4197 32.1106 23.3879 32.1106 23.3551 32.1106C22.401 32.1106 21.447 32.111 20.4929 32.111C19.019 32.1116 17.5452 32.112 16.0816 32.112H15.9014C12.8887 32.112 9.88284 32.1106 4.99278 32.0744C5.00886 32.0251 5.02493 31.9762 5.041 31.9273C5.04989 31.9 5.05878 31.8726 5.06802 31.8442C5.10324 31.7437 5.14872 31.6517 5.19796 31.5573C5.30534 31.348 5.40724 31.1367 5.50778 30.9247C5.65414 30.6173 5.80426 30.3126 5.95575 30.0082L5.98687 29.946C6.08056 29.7593 6.17426 29.5733 6.26898 29.3852C6.40816 29.1109 6.53742 28.8346 6.65882 28.5508C6.7385 28.3692 6.83049 28.202 6.94026 28.0379C6.65096 28.1268 6.37602 28.2471 6.09903 28.3692C6.07441 28.3798 6.04979 28.3908 6.02448 28.4017C5.72014 28.5358 5.41921 28.6725 5.1217 28.8257C4.66005 29.0631 4.18815 29.2771 3.71624 29.4891C3.52919 29.5739 3.3435 29.6618 3.16226 29.7545C3.12943 29.7709 3.12944 29.7709 3.09626 29.7877L2.83911 29.9176C2.23726 30.2196 1.61831 30.3861 0.954901 30.1908C0.887535 30.1584 0.887534 30.1584 0.819141 30.0558C0.805121 29.9785 0.805121 29.9785 0.79794 29.8954C0.793836 29.854 0.793837 29.854 0.790075 29.8116C0.788366 29.7908 0.786655 29.7696 0.784945 29.748H0.716553C0.824955 29.2556 1.02637 28.941 1.43467 28.6537C1.52324 28.5994 1.61352 28.5587 1.70824 28.5169C1.78895 28.4766 1.86931 28.4359 1.94967 28.3952C2.0673 28.3357 2.18425 28.2786 2.30531 28.227C2.43457 28.1716 2.55938 28.1104 2.68488 28.0467C2.72079 28.0286 2.72079 28.0286 2.75772 28.0105C2.86783 27.9548 2.97795 27.899 3.08772 27.8423C3.3329 27.7168 3.58014 27.6056 3.83319 27.4969C4.11394 27.3768 4.38717 27.2462 4.6539 27.1002C4.98526 26.922 5.32414 26.7593 5.67294 26.618C5.84085 26.55 5.99883 26.4689 6.15853 26.3831C6.54153 26.1766 6.92794 25.983 7.34172 25.8428C7.44602 25.8021 7.53082 25.7402 7.62247 25.6766C7.67205 25.6554 7.72198 25.6346 7.77225 25.6147C8.25441 25.4051 8.43223 24.924 8.64767 24.4794C8.69315 24.3867 8.73932 24.2944 8.78582 24.2021C8.81352 24.1463 8.84122 24.0906 8.86858 24.0349C8.94928 23.8717 9.03169 23.711 9.12129 23.5527C9.25328 23.313 9.35861 23.0603 9.47009 22.8106C9.65714 22.3866 9.86676 21.9728 10.0754 21.5591C10.1492 21.412 10.2227 21.2646 10.2966 21.1179C10.3506 21.0099 10.4047 20.9018 10.4594 20.7937C10.6974 20.3218 10.9279 19.8465 11.1433 19.3643C11.1977 19.2467 11.2568 19.1315 11.3167 19.0155C11.3495 18.9451 11.3697 18.8798 11.3858 18.8039C11.3464 18.7926 11.3068 18.7813 11.2661 18.7697C11.1132 18.7187 10.972 18.6507 10.8284 18.5775C10.5387 18.4308 10.247 18.2916 9.95294 18.1535C9.90438 18.1305 9.85582 18.108 9.80726 18.0851C9.71049 18.0396 9.61371 17.9941 9.51694 17.949C9.48069 17.9319 9.48069 17.9319 9.4441 17.9148C9.39315 17.8908 9.34219 17.8669 9.29124 17.8433C9.21327 17.8067 9.13497 17.7701 9.057 17.7332C9.02178 17.7168 9.02178 17.7168 8.98587 17.7C8.84054 17.6316 8.69657 17.5612 8.55158 17.4887C8.37 17.397 8.18568 17.3085 8.00102 17.2216C7.97366 17.2086 7.94596 17.1956 7.91758 17.1823C7.85979 17.1549 7.802 17.1276 7.74455 17.1006C7.22819 16.8571 6.71524 16.6081 6.2023 16.3585C5.54574 16.0374 4.88575 15.719 4.21892 15.4147C4.00178 15.3155 3.78805 15.2122 3.57604 15.1042C3.25767 14.9431 2.93315 14.793 2.60828 14.646C2.57511 14.6309 2.54194 14.6159 2.50775 14.6005C2.44346 14.5714 2.37883 14.5427 2.3142 14.514C2.11723 14.4254 1.92778 14.3283 1.7397 14.2202C1.68191 14.187 1.68191 14.187 1.62309 14.1532C1.25719 13.933 0.898134 13.6915 0.76135 13.2641C0.729205 13.0852 0.731599 12.9119 0.783236 12.7375C0.877275 12.614 0.983625 12.5682 1.1252 12.5111C1.15119 12.4988 1.17718 12.4868 1.20385 12.4742C1.77151 12.2816 2.3802 12.5966 2.87604 12.8401C2.9034 12.8534 2.9311 12.8671 2.95914 12.8811C3.09148 12.9461 3.22484 13.0083 3.35923 13.0712C3.59895 13.1844 3.83798 13.2986 4.07735 13.4132C4.11052 13.4289 4.14369 13.4446 4.17755 13.4611C4.34203 13.5397 4.50617 13.6184 4.66997 13.6974C5.07349 13.8912 5.48042 14.0803 5.88736 14.2684C6.06894 14.3522 6.24983 14.4374 6.42765 14.5276C6.65061 14.6401 6.87562 14.7444 7.10474 14.8487C7.47406 15.019 7.83996 15.1975 8.20244 15.3822C8.51807 15.5429 8.83848 15.693 9.15993 15.837C9.36887 15.9314 9.5737 16.0299 9.77888 16.1338C9.9608 16.2262 10.1448 16.3144 10.3294 16.4019C10.3595 16.4163 10.3896 16.4307 10.4207 16.4454C10.5476 16.5055 10.6748 16.5657 10.8037 16.6259C11.2551 16.8393 11.6997 17.0602 12.1408 17.2962C12.2533 17.1248 12.347 16.9556 12.425 16.7661C12.5159 16.5517 12.6151 16.3421 12.7204 16.1369C12.8035 15.9731 12.8822 15.8076 12.9595 15.6411C13.0501 15.4461 13.1458 15.2546 13.2481 15.0666C13.4273 14.7335 13.5873 14.3929 13.7473 14.0475C13.9255 13.6679 14.1064 13.2918 14.2945 12.919C14.3516 12.8059 14.408 12.6923 14.4648 12.5788C14.5308 12.4465 14.5971 12.3138 14.6638 12.1821C14.9719 11.57 15.2657 10.9545 15.5529 10.3321C15.7458 9.91492 15.9427 9.50114 16.165 9.09763C16.3179 8.81619 16.4495 8.52313 16.5822 8.23246C16.8944 7.55538 17.208 6.87488 17.5671 6.21831C17.7726 5.83873 17.9432 5.44206 18.121 5.05222C18.1908 4.89936 18.2609 4.74651 18.3313 4.59399C18.3597 4.5321 18.3881 4.4702 18.4165 4.40797C18.5006 4.22536 18.5827 4.05233 18.7024 3.88818L18.6894 3.90597ZM18.6552 7.80433C18.5074 8.06354 18.3799 8.32753 18.2585 8.6011C18.0349 9.11062 17.7934 9.60647 17.5301 10.0955C17.4614 10.2244 17.395 10.3543 17.3297 10.4853C17.3181 10.5086 17.3061 10.5322 17.2942 10.5564C17.1618 10.8221 17.0363 11.0899 16.9112 11.36C16.7744 11.6534 16.6369 11.9448 16.494 12.2355C16.483 12.2574 16.4724 12.2789 16.4612 12.3015C16.3746 12.4735 16.284 12.6431 16.1927 12.811C16.0867 13.0086 15.9865 13.2077 15.8873 13.4094C15.8415 13.5018 15.795 13.5941 15.7478 13.6857C15.6357 13.9046 15.5314 14.1234 15.4424 14.3526C15.344 14.6059 15.2256 14.845 15.1015 15.0878C15.0547 15.1794 15.0092 15.2717 14.9637 15.3637C14.8642 15.5645 14.7619 15.7638 14.6559 15.9587C14.409 16.4204 14.1874 16.8889 13.9789 17.3676C13.8386 17.6894 13.8386 17.6894 13.7521 17.8053C13.6913 17.8871 13.6913 17.8871 13.6916 17.9814C13.7528 18.1032 13.8544 18.1394 13.9737 18.1924C14.024 18.2164 14.0743 18.24 14.1245 18.2636C14.1505 18.2755 14.1762 18.2875 14.2028 18.2998C14.3208 18.3549 14.4367 18.4137 14.5516 18.4725C14.5975 18.4954 14.6433 18.5183 14.6891 18.5409C14.7787 18.5857 14.868 18.6308 14.9572 18.6763C15.2345 18.8175 15.5146 18.9489 15.7984 19.0764C16.1814 19.2477 16.5644 19.4252 16.9406 19.6167C17.1683 19.7296 17.3988 19.8362 17.6279 19.9436C17.6936 19.9744 17.7596 20.0052 17.8252 20.036C17.8673 20.0554 17.9094 20.0749 17.9514 20.0944C18.0615 20.1454 18.171 20.1977 18.2797 20.2524C18.3026 20.2637 18.3255 20.275 18.3491 20.2866C18.3929 20.3082 18.4363 20.33 18.4794 20.3526C18.6223 20.422 18.7075 20.4357 18.859 20.3882C18.9636 20.3396 19.0638 20.2842 19.1647 20.2278C19.4044 20.0975 19.64 19.9891 19.8965 19.8916C20.1041 19.8079 20.3 19.7049 20.5018 19.6027C20.615 19.5449 20.7281 19.4878 20.842 19.4307C20.8642 19.4194 20.8865 19.4081 20.9097 19.3968C21.2329 19.2358 21.5595 19.0822 21.8877 18.9352C22.1128 18.8336 22.3323 18.7215 22.5511 18.6103C22.6537 18.5587 22.756 18.5077 22.8586 18.4564C22.8969 18.4373 22.9352 18.4181 22.9745 18.3983C23.0655 18.3528 23.1568 18.3073 23.2481 18.2622C23.2734 18.2495 23.2987 18.2372 23.3243 18.2242C23.3736 18.2 23.4228 18.1757 23.472 18.1514C23.5828 18.1011 23.5828 18.1011 23.6793 18.029C23.6731 17.8806 23.6506 17.7876 23.5671 17.6665C23.469 17.5147 23.3965 17.3563 23.3243 17.1912C23.2976 17.1303 23.2706 17.0698 23.2436 17.0089C23.2306 16.9792 23.2173 16.9494 23.204 16.919C23.0658 16.6078 22.9198 16.3034 22.7594 16.0025C22.6397 15.7809 22.5276 15.5545 22.4174 15.3289C22.3836 15.2608 22.3494 15.1931 22.3149 15.1257C22.1794 14.8593 22.0536 14.5923 21.9319 14.3187C21.8559 14.1457 21.7749 13.9767 21.6887 13.8092C21.6244 13.6806 21.5629 13.551 21.5017 13.4228C21.3225 13.0432 21.1323 12.6704 20.9374 12.3011C20.7292 11.9044 20.5339 11.5044 20.3424 11.0974C20.1143 10.6118 19.8842 10.1297 19.6414 9.65434C19.5733 9.51892 19.5056 9.38351 19.4379 9.24741C19.3805 9.13251 19.323 9.01761 19.2646 8.90203C19.1343 8.64521 19.0132 8.38908 18.9055 8.12235C18.8535 8.00916 18.795 7.91102 18.7202 7.81151H18.6518L18.6552 7.80433ZM24.2975 19.6362C24.2651 19.6506 24.2326 19.6649 24.1987 19.6796C24.1642 19.6954 24.1296 19.7111 24.0941 19.7272C24.0585 19.7429 24.0229 19.759 23.986 19.7754C23.7641 19.8749 23.5449 19.9792 23.3295 20.0903C23.1684 20.1727 23.0046 20.25 22.8404 20.3276C21.7427 20.8064 21.7427 20.8064 20.7066 21.3843V21.4527C21.0759 21.6329 21.0759 21.6329 21.4555 21.7926C21.8282 21.9366 22.1873 22.1226 22.5429 22.3021C22.8066 22.4358 23.0764 22.5576 23.3431 22.6783C23.5678 22.7809 23.7877 22.8872 24.01 22.9987C24.1792 23.0845 24.3505 23.1649 24.5229 23.2439C24.7277 23.3376 24.9333 23.434 25.135 23.5301C25.2267 23.5735 25.3183 23.6163 25.4099 23.6594C25.7827 23.8348 26.1486 24.0184 26.5042 24.2236C26.6157 24.2903 26.6157 24.2903 26.7238 24.3228C26.6578 24.0732 26.5648 23.8475 26.4502 23.6183C26.4163 23.5489 26.3828 23.4799 26.349 23.4104C26.3233 23.3574 26.3233 23.3574 26.297 23.3031C26.2122 23.1266 26.1315 22.9474 26.0504 22.7696C25.9157 22.4735 25.7758 22.1814 25.6264 21.8908C25.5577 21.7557 25.4906 21.6203 25.4229 21.4838C25.3662 21.3706 25.3094 21.2574 25.252 21.1446C25.0133 20.6761 24.7869 20.2042 24.6433 19.6981C24.6135 19.601 24.6135 19.601 24.5417 19.577C24.4429 19.5678 24.3875 19.5924 24.2969 19.6328L24.2975 19.6362ZM12.8076 19.6075C12.7984 19.6345 12.7892 19.6615 12.7799 19.6892C12.5416 20.3731 12.2328 21.016 11.8908 21.6555C11.8002 21.8254 11.7127 21.9964 11.6275 22.1684C11.5892 22.2454 11.5509 22.322 11.5119 22.3986C11.3769 22.6643 11.2507 22.932 11.1324 23.2056C10.9993 23.5079 10.8513 23.804 10.6981 24.0947C10.6475 24.1863 10.6475 24.1863 10.6546 24.2906C10.8379 24.2373 10.9963 24.1542 11.1642 24.0643C11.222 24.0331 11.2801 24.0024 11.3382 23.9713C11.3669 23.9559 11.396 23.9405 11.4258 23.9247C11.8498 23.7011 12.2841 23.4973 12.7218 23.3024C13.139 23.1187 13.5493 22.9296 13.9529 22.7245C14.0989 22.6509 14.2449 22.5808 14.394 22.5155C14.7154 22.3729 15.03 22.2201 15.3446 22.0607C15.7892 21.8378 16.2372 21.6504 16.7057 21.4828V21.4144C16.2714 21.1706 15.8371 20.9425 15.3857 20.7339C15.2356 20.6635 15.0858 20.592 14.9377 20.5205C14.9052 20.5048 14.8727 20.4894 14.8389 20.4733C14.6488 20.3824 14.4593 20.2904 14.2712 20.1974C13.5668 19.7938 13.5668 19.7938 12.8111 19.6023L12.8076 19.6075ZM18.279 22.5005C18.0995 22.6014 17.92 22.6916 17.7285 22.772C17.5445 22.8503 17.366 22.9337 17.1847 23.0244C16.9895 23.1232 16.7915 23.2193 16.5966 23.3126C16.5696 23.3253 16.5429 23.3379 16.5148 23.3513C16.4875 23.3643 16.4598 23.3769 16.4314 23.3906C16.2433 23.4792 16.0552 23.5691 15.8672 23.659C15.5857 23.7938 15.3029 23.9282 15.0225 24.0626C14.7664 24.1843 14.5096 24.3067 14.2565 24.4285C14.0168 24.5434 13.7778 24.6569 13.5384 24.7701C13.3992 24.8361 13.2614 24.9031 13.1246 24.9732C12.9215 25.0758 12.7143 25.1695 12.5057 25.2639C12.2437 25.3829 11.9859 25.5046 11.726 25.6332C11.5653 25.7146 11.4029 25.7919 11.2404 25.8674C10.7719 26.0856 10.3 26.3051 9.8418 26.5479C9.81923 26.5596 9.79666 26.5712 9.77375 26.5832C9.48342 26.7275 9.48342 26.7275 9.30868 26.9798C9.29945 27.0188 9.29056 27.0575 9.28098 27.0975C9.25978 27.118 9.23858 27.1385 9.21669 27.1597C9.12915 27.2496 9.09632 27.3314 9.05016 27.448C8.97595 27.6299 8.89525 27.807 8.80634 27.9814C8.79505 28.004 8.78343 28.0269 8.77146 28.0505C8.72495 28.1425 8.6781 28.2341 8.6316 28.3254C8.48079 28.6212 8.33888 28.9205 8.20415 29.2214C8.09027 29.4765 7.97024 29.7275 7.84851 29.9805C7.82765 30.0236 7.82765 30.0236 7.80644 30.0674C7.79413 30.093 7.78182 30.1184 7.76917 30.1443C7.73805 30.2062 7.73805 30.2062 7.7425 30.2757H7.67411V30.344C14.9579 30.3553 22.2075 30.3666 29.6964 30.3782C29.6492 30.2367 29.6024 30.1105 29.5402 29.9747C29.5231 29.9381 29.506 29.9012 29.4882 29.8632C29.4704 29.8246 29.4523 29.786 29.4335 29.746C29.415 29.7059 29.3962 29.6659 29.377 29.6246C29.324 29.5107 29.271 29.3965 29.2177 29.2826C29.1948 29.2337 29.1722 29.1845 29.1493 29.1356C29.0347 28.8883 28.9178 28.6431 28.8005 28.3969C28.7793 28.3521 28.7793 28.3521 28.7574 28.3063C28.6941 28.1736 28.6305 28.0416 28.5645 27.9096C28.5112 27.804 28.4613 27.6973 28.4124 27.5895C28.0947 26.8919 27.725 26.6526 27.0445 26.314C27.0237 26.3034 27.0025 26.2932 26.9809 26.2822C26.55 26.0678 26.1192 25.8616 25.6815 25.6599C25.6237 25.6332 25.6237 25.6332 25.5649 25.6062C25.4903 25.572 25.4161 25.5378 25.3416 25.5039C25.1412 25.4119 24.9415 25.3165 24.7465 25.2174C24.4613 25.0734 24.172 24.9376 23.8814 24.8036C23.5678 24.6576 23.2556 24.5088 22.9478 24.3522C22.7485 24.252 22.5477 24.1586 22.3426 24.0673C22.0933 23.9542 21.8467 23.8389 21.6039 23.7151C21.265 23.5435 20.92 23.3814 20.578 23.2159C20.4703 23.1642 20.3623 23.1122 20.2545 23.0603C19.9256 22.9019 19.5945 22.746 19.2628 22.5952C19.2317 22.5808 19.2006 22.5665 19.1685 22.5518C18.8368 22.4013 18.6111 22.3001 18.2759 22.4967L18.279 22.5005Z" fill="#000100"/>
</svg>
