<svg width="37" height="36" viewBox="0 0 37 36" fill="none" xmlns="http://www.w3.org/2000/svg">
<path d="M8.96618 4.99564C9.0019 4.99533 9.03792 4.99533 9.07489 4.99501C9.1742 4.99439 9.27351 4.99501 9.37281 4.99564C9.48089 4.99627 9.58898 4.99595 9.69862 4.99564C9.88815 4.99501 10.0777 4.99533 10.2688 4.99595C10.5504 4.99721 10.8327 4.99721 11.1146 4.99689C11.5877 4.99658 12.0639 4.99689 12.5369 4.99815C13.0068 4.99909 13.4767 4.99971 13.9466 4.99971H14.0353C14.1835 4.99971 14.332 5.00003 14.4802 5.00003C15.5296 5.00003 16.5822 5.00128 17.6442 5.00285C18.6655 5.00441 19.6837 5.00567 20.705 5.00629H20.7999C21.0527 5.00629 21.3043 5.00661 21.558 5.00661C22.6482 5.00723 23.7384 5.00786 24.8161 5.00911C24.9925 5.00911 25.1701 5.00911 25.3455 5.00943C25.9909 5.01005 26.6393 5.01068 27.2878 5.01162C27.5432 5.01193 27.7985 5.01224 28.0554 5.01256C28.2671 5.01287 28.4783 5.01318 28.6913 5.0135C28.7978 5.01381 28.9043 5.01381 29.0108 5.01381C29.1258 5.01381 29.2408 5.01412 29.3555 5.01444H29.4554C30.1603 5.01694 30.1603 5.01694 30.3545 5.17546C30.4541 5.33711 30.5083 5.5044 30.5465 5.68923C30.554 5.72589 30.554 5.72589 30.5622 5.76317C30.6151 6.02099 30.643 6.28007 30.6678 6.54323C30.6728 6.59492 30.6781 6.64661 30.6831 6.6983C30.6941 6.80575 30.7044 6.91352 30.7148 7.02097C30.7298 7.17542 30.7451 7.32986 30.7608 7.48462L30.7758 7.63593C30.7784 7.661 30.7809 7.68606 30.7834 7.71206C30.7912 7.78944 30.799 7.86682 30.8065 7.9442C30.8347 8.22928 30.8639 8.51436 30.894 8.79944C30.9673 9.49178 31.0365 10.181 31.0957 10.8733C31.1183 11.1365 31.1421 11.3996 31.1706 11.6628C31.1731 11.6863 31.1756 11.7095 31.1781 11.7336C31.1897 11.837 31.2022 11.9375 31.2317 12.0375C31.3686 11.9967 31.4779 11.9441 31.5982 11.867C31.9929 11.6183 32.4002 11.3909 32.8074 11.1622C32.9716 11.0701 33.1364 10.9764 33.2993 10.8827C33.3742 10.8398 33.4493 10.7969 33.5242 10.7543C33.5524 10.738 33.5806 10.722 33.6097 10.7054L33.7827 10.6067C33.9337 10.5206 34.0837 10.4335 34.2338 10.3445L34.3983 10.2505C34.4333 10.2286 34.4333 10.2286 34.4691 10.2064C34.6201 10.1221 34.72 10.1218 34.8889 10.1566C35.105 10.2186 35.2429 10.2812 35.3619 10.4761C35.5082 10.7653 35.5405 11.0651 35.4618 11.3815C35.3437 11.7229 35.0828 11.8482 34.7758 12.0018C34.7021 12.0425 34.6291 12.0848 34.5565 12.1271C34.3159 12.2652 34.074 12.4021 33.8328 12.5375C33.6436 12.6421 33.4569 12.7486 33.2689 12.857C32.9866 13.0224 32.7019 13.1828 32.4168 13.3426C32.3024 13.4068 32.1897 13.4726 32.0784 13.5415C31.888 13.6574 31.6869 13.7533 31.4864 13.8507C31.5161 14.4052 31.5628 14.9566 31.6176 15.5079C31.6211 15.5421 31.6245 15.5762 31.628 15.6113C31.711 16.454 31.7996 17.2936 31.8883 18.1363C31.9243 18.4778 31.9603 18.8193 31.9961 19.1607C32.0051 19.2463 32.0142 19.3318 32.023 19.4173C32.1032 20.1786 32.1821 20.9398 32.2608 21.7011C32.2695 21.7854 32.2783 21.8696 32.2868 21.9539C32.3137 22.2121 32.3403 22.4708 32.367 22.7277L32.4829 23.8492C32.486 23.8787 32.4892 23.9081 32.4923 23.9382C32.5305 24.3079 32.5706 24.6744 32.612 25.0441C32.6925 25.7615 32.7514 26.4726 32.7708 27.1963C32.6474 27.2069 32.5242 27.2173 32.4011 27.2276C32.3667 27.2307 32.3322 27.2336 32.2965 27.2367C31.7044 27.2856 31.7044 27.2856 31.4224 27.2101C31.351 27.1919 31.351 27.1919 31.2354 27.1963C31.2545 27.2054 31.2736 27.2148 31.2934 27.2242C31.6349 27.3918 31.9669 27.5782 32.3021 27.7599L32.4666 27.8501C33.0556 28.1728 33.6414 28.4986 34.2209 28.8369C34.3027 28.8848 34.3854 28.9318 34.4678 28.9785C34.6996 29.1098 34.9283 29.2445 35.1539 29.3889C35.1742 29.4011 35.1946 29.4136 35.2156 29.4262C35.4007 29.5543 35.4647 29.7927 35.5195 30.0026C35.5646 30.2777 35.4719 30.5634 35.3146 30.7889C35.2159 30.918 35.0903 30.9769 34.9324 31.0067C34.6298 31.017 34.4218 30.928 34.1649 30.7817C34.0781 30.7322 33.9907 30.684 33.903 30.6357C33.502 30.4142 33.1041 30.1846 32.7094 29.9559C32.2426 29.684 32.2426 29.684 31.7696 29.4234C31.5647 29.3128 31.3623 29.2 31.1587 29.085C31.0403 29.017 30.9218 28.95 30.8015 28.8836C30.6086 28.7755 30.4162 28.6655 30.2251 28.5515C29.9159 28.3686 29.6048 28.1912 29.2915 28.0127C29.269 28.0001 29.2467 27.9873 29.2236 27.9741C29.1221 27.9168 29.0206 27.8595 28.9187 27.8028C28.8238 27.7498 28.7295 27.6956 28.6355 27.6411C28.2189 27.4021 27.868 27.2589 27.3887 27.2433C27.3549 27.2417 27.321 27.2404 27.2863 27.2392C26.8101 27.2232 26.3308 27.2279 25.8546 27.2301C24.7895 27.2351 24.7895 27.2351 24.3916 27.2163C24.365 27.2151 24.3386 27.2141 24.3114 27.2126C24.2111 27.2072 24.1253 27.1994 24.0298 27.1675C24.0382 27.1875 24.0467 27.2072 24.0551 27.2276C24.1319 27.4099 24.2061 27.5941 24.2791 27.7758C24.3675 27.9983 24.4564 28.2207 24.5579 28.4368C24.5971 28.5227 24.6328 28.6095 24.6682 28.6969C24.7434 28.8814 24.8333 29.0571 24.927 29.2326C24.9686 29.3281 24.9793 29.3848 24.9696 29.4873C24.844 29.4697 24.7791 29.4071 24.6876 29.3228C24.661 29.2987 24.6347 29.2746 24.6074 29.2498C24.5332 29.1762 24.4705 29.0991 24.4057 29.0173C24.3703 28.9835 24.3336 28.9509 24.296 28.9196C24.2162 28.8513 24.1375 28.7824 24.0608 28.7107C24.0442 28.6953 24.0279 28.6803 24.011 28.6643C23.9784 28.6339 23.9461 28.6035 23.9138 28.5731C23.8224 28.4879 23.7309 28.4215 23.6225 28.3595C23.5473 28.2884 23.4765 28.2141 23.4054 28.1389C23.2547 27.9832 23.099 27.8563 22.923 27.7317C22.844 27.6721 22.7776 27.6101 22.7093 27.5384C22.4988 27.3203 22.3208 27.2401 22.017 27.2282C21.9352 27.227 21.8537 27.227 21.7723 27.227H21.678H21.3663H21.1423C20.9606 27.2267 20.7789 27.2267 20.5972 27.227H20.1523H20.0881H19.959C19.5549 27.2267 19.1508 27.227 18.7498 27.227C18.4052 27.2273 18.0606 27.2273 17.7191 27.227C17.3181 27.227 16.9171 27.2267 16.5161 27.227H16.3871H16.3228C16.1756 27.227 16.0284 27.227 15.8811 27.2267C14.8223 27.2248 14.8223 27.2248 13.7665 27.243C13.7283 27.2439 13.6901 27.2451 13.6509 27.2461C13.6168 27.247 13.5826 27.2483 13.5475 27.2495C13.519 27.2505 13.4905 27.2514 13.4611 27.2524C13.3508 27.2664 13.2578 27.2931 13.1782 27.3726C13.1647 27.3905 13.1516 27.4084 13.1378 27.4268C13.0522 27.5324 12.9605 27.6073 12.8505 27.6862C12.7214 27.7802 12.6027 27.8845 12.4902 27.9986C12.4232 28.0641 12.3583 28.1161 12.2828 28.1709C12.1813 28.2448 12.1115 28.3225 12.0341 28.4215C12.009 28.4365 11.9837 28.4513 11.9577 28.4666C11.8815 28.513 11.8515 28.5443 11.7991 28.6135C11.7114 28.7141 11.6873 28.7116 11.5642 28.7348C11.5557 28.7567 11.5473 28.7786 11.5388 28.8015C11.489 28.9215 11.411 28.9776 11.3123 29.0593C11.2475 29.1116 11.2475 29.1116 11.1823 29.1831C11.1256 29.236 11.1256 29.236 11.0435 29.2655C10.9445 29.3096 10.9439 29.3576 10.9063 29.4553C10.8399 29.4807 10.8399 29.4807 10.781 29.4866C10.796 29.3081 10.8324 29.1702 10.9141 29.0105C10.9972 28.8425 11.072 28.6721 11.1435 28.4998C11.1939 28.378 11.2456 28.2564 11.2973 28.1364C11.3164 28.0913 11.3358 28.0465 11.3549 28.0014C11.3844 27.9322 11.4138 27.8632 11.4433 27.794C11.4724 27.726 11.5012 27.658 11.5303 27.5901C11.5391 27.5697 11.5479 27.5493 11.557 27.528C11.6068 27.4106 11.6506 27.2928 11.6895 27.1709C11.6372 27.1862 11.6372 27.1862 11.5836 27.2022C11.3674 27.2498 11.1482 27.2392 10.9289 27.2364C10.7841 27.2348 10.6394 27.2342 10.4934 27.2339C10.4621 27.2339 10.4304 27.2336 10.3982 27.2336C9.97838 27.2326 9.55859 27.2401 9.13566 27.2473C9.07771 27.2483 9.07771 27.2483 9.01819 27.2492C8.66105 27.2549 8.30392 27.2608 7.94991 27.2787C7.92798 27.2796 7.90574 27.2805 7.88287 27.2818C7.71778 27.2912 7.58087 27.3257 7.42862 27.3902L7.49128 27.4528C7.46904 27.4629 7.44648 27.4726 7.42361 27.4826C7.25225 27.5594 7.0884 27.6389 6.92863 27.7348C6.87914 27.763 6.87914 27.763 6.8287 27.7915C6.73064 27.8479 6.6329 27.9049 6.53516 27.9619C6.07778 28.2288 5.61726 28.4882 5.15048 28.742C5.00606 28.8203 4.86352 28.9014 4.72129 28.9832C4.58157 29.0634 4.44153 29.1427 4.3015 29.2216C4.26986 29.2391 4.26986 29.2391 4.23759 29.2573C4.15395 29.3043 4.0703 29.3513 3.98634 29.3983C3.59161 29.6198 3.19689 29.8431 2.80529 30.0687C2.64207 30.1621 2.47948 30.2554 2.31658 30.3485C2.2251 30.4005 2.13394 30.4528 2.04278 30.5051C1.06222 31.0659 1.06222 31.0659 0.736415 30.9844C0.559727 30.928 0.416874 30.8419 0.319758 30.6796C0.188808 30.3413 0.175651 29.981 0.319758 29.6458C0.374581 29.5596 0.374581 29.5596 0.445068 29.4891C0.458853 29.4747 0.472324 29.4606 0.486421 29.4459C0.634914 29.3034 0.812228 29.2222 0.997061 29.1355C1.10232 29.0853 1.10232 29.0853 1.18973 29.0246C1.33321 28.929 1.48421 28.8497 1.63458 28.7686C1.69598 28.7357 1.75707 28.7028 1.81847 28.6699C1.86452 28.6452 1.86452 28.6452 1.91151 28.6201C2.25925 28.4343 2.25925 28.4343 2.59446 28.2317C2.79182 28.1063 2.99858 28.0005 3.20535 27.8933C3.51862 27.7301 3.82563 27.555 4.12951 27.3701C4.24636 27.3006 4.36541 27.2351 4.48351 27.17C4.4431 27.175 4.403 27.1803 4.36133 27.1853C4.2072 27.2025 4.05495 27.2054 3.90082 27.2044C3.87356 27.2044 3.846 27.2044 3.8178 27.2041C3.73134 27.2041 3.64487 27.2038 3.55841 27.2032C3.4992 27.2032 3.4403 27.2029 3.38109 27.2029C3.2373 27.2025 3.09319 27.2019 2.94877 27.2013C2.93812 25.8636 2.9541 24.5353 3.08599 23.1914C3.09037 23.1437 3.09037 23.1437 3.09539 23.0952C3.14175 22.6284 3.21098 22.1679 3.29338 21.7042C3.29995 21.6673 3.29995 21.6673 3.30653 21.6294C3.62294 19.8499 4.19937 18.1207 5.26764 16.6483C5.28738 16.6204 5.30712 16.5925 5.32779 16.5637C5.56588 16.241 5.84783 15.9653 6.13291 15.6834L6.28234 15.5349C6.40327 15.4152 6.52451 15.2955 6.64574 15.1777C6.55145 15.1029 6.45527 15.0468 6.34782 14.9923C6.3143 14.9751 6.28078 14.9578 6.24632 14.94C6.21154 14.9221 6.17646 14.9043 6.14074 14.8861C5.92176 14.7746 5.70529 14.6608 5.49539 14.5321C5.37948 14.4619 5.26106 14.3967 5.14139 14.3313C5.11696 14.3178 5.09252 14.3043 5.06715 14.2902C4.93745 14.2185 4.80775 14.1474 4.67868 14.0769C4.42368 13.9381 4.17118 13.7946 3.92369 13.6446C3.61542 13.4585 3.29714 13.2874 2.98386 13.112C2.96036 13.0992 2.93687 13.086 2.91275 13.0728C2.79245 13.0058 2.67184 12.9391 2.55248 12.873C2.51582 12.8529 2.51582 12.8529 2.47886 12.8322C2.43343 12.8075 2.38832 12.7824 2.3429 12.7577C2.20631 12.6825 2.07379 12.6026 1.9419 12.5202C1.69692 12.3683 1.44379 12.2311 1.19004 12.0942C0.441309 11.6838 0.441309 11.6838 0.337927 11.3987C0.329782 11.3539 0.322578 11.3088 0.316312 11.2637C0.311926 11.237 0.307227 11.2104 0.302528 11.1832C0.260549 10.8746 0.317252 10.6412 0.506158 10.3906C0.635227 10.2436 0.778708 10.1158 0.972939 10.0742C1.04625 10.0964 1.04625 10.0964 1.12958 10.1368C1.16466 10.1509 1.19975 10.1653 1.23578 10.1801C1.53464 10.3044 1.80907 10.4545 2.08476 10.6218C2.2392 10.7145 2.39521 10.805 2.55154 10.8959C2.58224 10.9141 2.61325 10.9322 2.64489 10.9507C2.84821 11.0694 3.05215 11.1838 3.25892 11.2953C3.60665 11.4827 3.94812 11.6775 4.28646 11.8811C4.41083 11.9566 4.5352 12.0293 4.66553 12.0926C4.8325 12.1731 4.99133 12.268 5.1511 12.363C5.36476 12.4898 5.58029 12.6117 5.79959 12.7326C5.86381 12.7687 5.92772 12.805 5.99194 12.8413C6.20559 12.9629 6.42113 13.0794 6.64042 13.1859C6.87851 13.3072 7.11033 13.4431 7.34216 13.5775C7.38132 13.5998 7.42079 13.6223 7.45995 13.6446C7.48752 13.6602 7.51477 13.6759 7.54297 13.6922C7.63914 13.7467 7.73563 13.8003 7.83212 13.8542C7.86439 13.8726 7.89697 13.8914 7.93049 13.9105C8.2469 14.0857 8.438 14.111 8.78574 14.0142C8.8202 14.0039 8.85466 13.9939 8.89037 13.9832C8.94112 13.9691 8.94112 13.9691 8.99312 13.9544C9.13379 13.9146 9.27413 13.8742 9.41291 13.8307C10.9104 13.3764 12.671 13.5049 14.206 13.4986C14.4576 13.4976 14.7104 13.4964 14.961 13.4948C15.4748 13.492 15.9917 13.4898 16.5055 13.4879C16.5396 13.3438 16.5738 13.1994 16.6079 13.0556C16.6195 13.0064 16.6311 12.9576 16.6427 12.9087C16.7129 12.6126 16.7802 12.3166 16.8404 12.019C16.8836 11.806 16.9312 11.5961 16.9892 11.3862C17.0738 11.0779 17.1336 10.7659 17.195 10.4526C17.1991 10.4322 17.2032 10.4119 17.2072 10.3909C17.2113 10.3702 17.2154 10.3495 17.2194 10.3282C17.2661 10.0917 17.3153 9.85518 17.3651 9.62023C17.3717 9.58827 17.3717 9.58827 17.3789 9.55538C17.4547 9.19824 17.5362 8.84111 17.6208 8.48397C17.6806 8.23178 17.7367 7.9796 17.7899 7.72584L17.9152 7.69452C17.9704 7.87684 18.0105 8.06105 18.0484 8.24588C18.0584 8.29444 18.0584 8.29444 18.0687 8.34425C18.0985 8.48867 18.1279 8.63309 18.1577 8.77657C18.2454 9.20576 18.3347 9.63495 18.4331 10.061C18.5076 10.3868 18.5803 10.7095 18.653 11.0353C18.7091 11.2843 18.7651 11.5334 18.8225 11.7809C18.9208 12.2069 19.0123 12.633 19.0869 13.0653C19.0928 13.0979 19.0985 13.1305 19.1044 13.1643C19.1091 13.1925 19.1141 13.221 19.1192 13.2505C19.1379 13.3341 19.1671 13.408 19.1997 13.487C20.3651 13.4886 21.5273 13.4895 22.677 13.4901C22.8146 13.4904 22.9521 13.4904 23.0906 13.4904H23.1736C23.6153 13.4908 24.0601 13.4914 24.5019 13.492C24.9561 13.4923 25.4104 13.4929 25.8646 13.4929C26.145 13.4929 26.4254 13.4933 26.7073 13.4939C26.8997 13.4942 27.0927 13.4942 27.2838 13.4942C27.3947 13.4942 27.5059 13.4942 27.6158 13.4945C27.7361 13.4948 27.8567 13.4948 27.9761 13.4945C28.0112 13.4948 28.046 13.4948 28.0817 13.4951C28.3837 13.4939 28.6424 13.4604 28.9056 13.305C29.1149 13.1869 29.3285 13.0985 29.5541 13.0171C29.6064 12.9964 29.6587 12.9754 29.7107 12.9544C29.7229 12.5566 29.6875 12.1587 29.6578 11.7608C29.6549 11.7232 29.6524 11.686 29.6496 11.6474C29.6089 11.1023 29.5559 10.5604 29.4892 10.0184C29.4344 9.57041 29.3902 9.12243 29.3486 8.67758C29.2975 8.13248 29.2414 7.59051 29.1722 7.04854C29.165 6.99278 29.165 6.99278 29.1578 6.93576C29.1525 6.89347 29.1524 6.89347 29.1468 6.85024C28.0441 6.81358 26.9413 6.81515 25.8261 6.81672C25.5532 6.81703 25.281 6.81734 25.0084 6.81734C24.5385 6.81766 24.0717 6.81797 23.6018 6.81828C22.3675 6.81922 21.1332 6.81954 19.9052 6.81954C19.8112 6.81954 19.7172 6.81954 19.6232 6.81985C17.2454 6.81985 14.8614 6.81703 12.4805 6.80888C12.139 6.80763 11.8007 6.80669 11.4592 6.80575C11.077 6.80481 10.6948 6.80356 10.3126 6.80199C10.1203 6.80105 9.92731 6.80043 9.73622 6.80011C9.56203 6.7998 9.38848 6.79886 9.21304 6.79792C9.15008 6.79761 9.08711 6.79761 9.02445 6.79761C8.93955 6.79729 8.85466 6.79698 8.76976 6.79635C8.74532 6.79635 8.72057 6.79635 8.6952 6.79667C8.57678 6.79541 8.5229 6.79228 8.42202 6.72493C8.41889 6.7055 8.41544 6.68608 8.41231 6.66634C8.39539 6.58928 8.39539 6.58928 8.30266 6.54479C8.13287 6.42512 8.06583 6.23715 8.02259 6.03728C7.99315 5.79669 8.06927 5.5611 8.1714 5.34494C8.24189 5.25691 8.24189 5.25691 8.32804 5.18831C8.34464 5.17296 8.36156 5.15729 8.37879 5.14131C8.55892 4.9853 8.7046 4.97371 8.93955 4.97716L8.96618 4.99564ZM17.8632 10.6346C17.7746 10.822 17.726 11.0105 17.6793 11.211C17.6712 11.2455 17.663 11.2796 17.6546 11.315C17.5929 11.5795 17.5362 11.8445 17.482 12.1108C17.4322 12.3548 17.378 12.5963 17.3213 12.8407C17.232 13.2072 17.232 13.2072 17.2053 13.58C17.382 13.581 17.5593 13.5813 17.7348 13.5819C17.7946 13.5819 17.8548 13.5822 17.9149 13.5825C18.0014 13.5829 18.0878 13.5829 18.1743 13.5832C18.2147 13.5835 18.2147 13.5835 18.2558 13.5835H18.3319C18.3538 13.5838 18.3761 13.5838 18.3986 13.5838C18.4647 13.5822 18.4647 13.5822 18.5515 13.5487C18.4954 13.2229 18.4259 12.8971 18.3576 12.5713C18.3513 12.5418 18.3454 12.5124 18.3388 12.482C18.3009 12.3019 18.263 12.1217 18.2247 11.9432C18.2078 11.8623 18.1909 11.7815 18.1737 11.7007C18.1492 11.5838 18.1242 11.467 18.0991 11.3498C18.09 11.3075 18.0813 11.2652 18.0722 11.2229C18.029 11.0178 17.987 10.8251 17.8936 10.634H17.8623L17.8632 10.6346ZM10.4699 15.3651C10.7124 15.6135 11.062 15.7661 11.3627 15.929C11.4793 15.9923 11.5949 16.0568 11.7105 16.1226C11.7547 16.1476 11.7547 16.1476 11.7998 16.173C11.8555 16.2044 11.911 16.2363 11.9664 16.2683C12.4144 16.5192 12.8781 16.5878 13.3824 16.6348C13.4442 16.6414 13.5056 16.6476 13.5673 16.6542C13.6935 16.6671 13.8201 16.6799 13.9463 16.6924C14.0992 16.7078 14.2518 16.7235 14.4037 16.7397C14.5171 16.7516 14.6308 16.7635 14.7452 16.7755C14.7981 16.7808 14.8514 16.7864 14.9043 16.7921C15.3335 16.8453 15.3335 16.8453 15.7627 16.8365C15.8373 16.762 15.842 16.7231 15.8623 16.621C15.872 16.5743 15.872 16.5743 15.8818 16.5264C15.8918 16.4766 15.8918 16.4766 15.9018 16.4255C15.9087 16.3917 15.9153 16.3579 15.9225 16.3228C15.9425 16.2225 15.9623 16.1223 15.982 16.022C15.9873 15.9948 15.993 15.9675 15.9983 15.9396C16.055 15.6696 16.055 15.6696 16.076 15.3945C15.7652 15.3651 15.4557 15.3588 15.1456 15.3598H14.9914C14.8536 15.3598 14.7157 15.3598 14.5779 15.3601C14.4332 15.3604 14.2887 15.3604 14.1456 15.3604C13.8721 15.3604 13.6005 15.3607 13.3248 15.361C13.0134 15.3613 12.7014 15.3616 12.3912 15.3616C11.7521 15.362 11.1099 15.3626 10.4708 15.3632L10.4699 15.3651ZM19.6489 15.3651C19.6871 15.6129 19.726 15.8569 19.7742 16.1044C19.8156 16.3178 19.8547 16.5305 19.8873 16.7466C19.8936 16.8083 19.8936 16.8083 19.9309 16.84C20.2081 16.861 20.4885 16.8234 20.761 16.7943C20.8074 16.7896 20.8541 16.7849 20.9008 16.7798C21.0229 16.7673 21.1451 16.7548 21.2673 16.7419C21.3898 16.7294 21.5126 16.7169 21.6338 16.7043C21.8622 16.6808 22.0912 16.657 22.3199 16.6329C22.3913 16.6254 22.4631 16.6179 22.5345 16.6104C22.6134 16.6022 22.6924 16.5941 22.7713 16.5856C22.8308 16.579 22.8308 16.579 22.8916 16.5728C23.4117 16.502 23.8377 16.262 24.2857 16.0026C25.0908 15.539 25.0908 15.539 25.4762 15.398V15.3667H19.6492L19.6489 15.3651ZM27.8881 15.8569C27.8489 15.8782 27.8489 15.8782 27.8088 15.8998C27.6672 15.9791 27.556 16.0587 27.4485 16.1799C27.4792 16.1702 27.5096 16.1602 27.5413 16.1502C27.6735 16.1126 27.8032 16.1016 27.9391 16.0928C27.9648 16.0909 27.9905 16.0891 28.0168 16.0872C28.0986 16.0812 28.1804 16.0759 28.2621 16.0703C28.8573 16.0662 28.8573 16.0662 29.4212 15.9293V15.992C29.4043 16.0001 29.3874 16.0082 29.3702 16.0167C29.2818 16.0618 29.1969 16.1116 29.1114 16.1617C29.0936 16.1724 29.0754 16.183 29.0569 16.1937C28.9983 16.2282 28.9394 16.2629 28.8808 16.2974C28.7984 16.346 28.7161 16.3942 28.6337 16.4428C28.6026 16.4609 28.6026 16.4609 28.5707 16.4797C28.4059 16.5765 28.2418 16.6727 28.0757 16.7686C27.8242 16.9149 27.5745 17.0621 27.327 17.2165C27.2064 17.2905 27.0848 17.3619 26.9636 17.4333C26.806 17.5258 26.6503 17.6191 26.4937 17.7153C26.1585 17.922 25.8201 18.1194 25.4787 18.3136C25.1742 18.4891 24.8709 18.6676 24.5702 18.8462C24.3891 18.9537 24.2068 19.0611 24.0251 19.1689C23.7867 19.3089 23.5489 19.4511 23.3108 19.5949C23.0003 19.782 22.6905 19.9677 22.3772 20.1494C22.308 20.1902 22.2391 20.2306 22.1701 20.2713C22.1473 20.2848 22.1244 20.2982 22.1009 20.312C22.0561 20.3383 22.011 20.365 21.9659 20.3916C21.8653 20.4508 21.7648 20.5097 21.6639 20.568C21.6304 20.5871 21.5972 20.6065 21.563 20.6262C21.5342 20.6425 21.5057 20.6591 21.4762 20.6761C21.4054 20.719 21.3403 20.7653 21.2751 20.8161C21.345 21.1889 21.486 21.5961 21.7952 21.8342C21.8976 21.9003 22.0013 21.9599 22.1084 22.0156C22.2428 22.0861 22.3738 22.1626 22.5032 22.239C22.5555 22.2691 22.6075 22.2995 22.6595 22.3295C22.6849 22.3443 22.7099 22.359 22.7359 22.374C23.0339 22.5469 23.3343 22.7155 23.635 22.8815C23.9953 23.0798 24.3556 23.2825 24.7096 23.4924C24.9195 23.6165 25.1294 23.7377 25.3424 23.8589C25.3621 23.8702 25.3822 23.8815 25.4025 23.8931C25.6315 24.0231 25.8599 24.1512 26.0949 24.2753C26.2362 24.3498 26.3743 24.4272 26.5084 24.514C26.5924 24.5669 26.6794 24.6139 26.7662 24.6616C26.859 24.7126 26.9507 24.7653 27.0425 24.8176C27.0604 24.8279 27.0786 24.8382 27.097 24.8486C27.2155 24.9162 27.3336 24.9849 27.451 25.0541C27.4799 25.071 27.5087 25.0879 27.5388 25.1055C27.5958 25.1387 27.6528 25.1722 27.7095 25.206C28.1544 25.4648 28.6462 25.4313 29.1474 25.4297C29.2026 25.4297 29.2574 25.4297 29.3125 25.4294C29.4557 25.4294 29.5992 25.4291 29.7417 25.4288C29.8883 25.4285 30.0353 25.4281 30.1803 25.4281C30.4676 25.4278 30.7536 25.4272 31.0418 25.4266C31.0255 25.1875 31.0086 24.9473 30.9917 24.7092C30.9861 24.6277 30.9804 24.5466 30.9748 24.4654C30.9666 24.3483 30.9585 24.2311 30.95 24.1146C30.9475 24.0785 30.9453 24.0425 30.9428 24.0056C30.9287 23.8129 30.9052 23.6265 30.8683 23.4354C30.8488 23.3326 30.8369 23.2296 30.826 23.1256C30.8225 23.0939 30.8225 23.0939 30.8191 23.0617C30.8116 22.9924 30.8044 22.9229 30.7971 22.8536C30.7918 22.8029 30.7862 22.7521 30.7809 22.7014C30.7339 22.2565 30.6894 21.8148 30.6443 21.37C30.5907 20.8405 30.534 20.3111 30.476 19.7817L30.4516 19.5589C30.4397 19.4511 30.4278 19.3434 30.4162 19.2362C30.3849 18.9505 30.3535 18.6661 30.3232 18.3779C30.321 18.3562 30.3188 18.3346 30.3163 18.3124C30.2793 17.9647 30.2452 17.6138 30.2116 17.266C30.2044 17.1899 30.1972 17.1138 30.1897 17.0377C30.1859 16.9998 30.1859 16.9998 30.1822 16.9612C30.1775 16.9099 30.1725 16.8582 30.1675 16.8068C30.1524 16.6533 30.138 16.4998 30.1236 16.3463C30.1142 16.2498 30.1051 16.1533 30.0957 16.0565C30.0913 16.0111 30.087 15.9656 30.0829 15.9199C30.0769 15.8569 30.0707 15.794 30.0647 15.7307C30.0613 15.6953 30.0578 15.6596 30.0544 15.6229C30.0396 15.5305 30.0152 15.4559 29.9767 15.371C29.181 15.356 28.5826 15.481 27.8809 15.8629L27.8881 15.8569ZM16.7354 15.4277C16.7232 15.4794 16.7126 15.5314 16.7025 15.5834C16.6963 15.616 16.69 15.6483 16.6834 15.6818C16.6765 15.7169 16.67 15.752 16.6631 15.788C16.6133 16.043 16.5606 16.2955 16.4989 16.5493C16.4504 16.751 16.4106 16.9534 16.3717 17.157C16.3645 17.1943 16.3645 17.1943 16.3573 17.2325C16.3532 17.2545 16.3492 17.2761 16.3448 17.2986C16.3241 17.387 16.295 17.4716 16.2655 17.5571C16.2361 17.5508 16.2066 17.5445 16.1765 17.5383C15.8699 17.4756 15.5688 17.4418 15.2555 17.4211C14.8671 17.3954 14.4849 17.3663 14.0995 17.3011C13.9852 17.282 13.9006 17.2736 13.7897 17.3065C13.8119 17.3187 13.8119 17.3187 13.8348 17.3309C13.9673 17.4033 14.0973 17.4784 14.2264 17.5574C14.4332 17.684 14.6431 17.8002 14.8592 17.9114C15.1722 18.073 15.4764 18.2466 15.7834 18.422C15.8937 18.4853 16.0042 18.548 16.1155 18.6103C16.1352 18.6213 16.1549 18.6326 16.1753 18.6438C16.2853 18.7055 16.3952 18.7666 16.5042 18.8277C16.5537 18.855 16.6032 18.8822 16.6527 18.9098C16.6765 18.923 16.7007 18.9364 16.7257 18.9502C16.8463 19.0173 16.9657 19.0856 17.0829 19.1585C17.2169 19.2403 17.3554 19.3114 17.4964 19.3816C17.5286 19.3976 17.5286 19.3976 17.5612 19.4142C17.6016 19.4342 17.6424 19.454 17.6831 19.4734C17.7288 19.495 17.7739 19.5179 17.8187 19.5411C17.9224 19.5696 17.9832 19.5464 18.0838 19.511C18.1157 19.5 18.148 19.4894 18.1809 19.4784C18.2752 19.4339 18.3234 19.3854 18.3952 19.3111C18.4675 19.271 18.4675 19.271 18.5518 19.2328C18.7652 19.1304 18.9653 19.0091 19.1658 18.8851C19.3181 18.792 19.4716 18.709 19.6326 18.6307C19.7398 18.5759 19.8413 18.5135 19.944 18.4509C20.1113 18.3506 20.2855 18.2601 20.4578 18.1677C20.6511 18.063 20.84 17.9531 21.0279 17.8387C21.1432 17.7692 21.2588 17.7002 21.3757 17.6313C21.4048 17.6138 21.4339 17.5962 21.464 17.5781C21.6382 17.4744 21.8118 17.3832 21.9997 17.3061C21.8854 17.2679 21.7933 17.282 21.6771 17.2958C21.6539 17.2986 21.631 17.3011 21.6072 17.3036C21.5314 17.3121 21.4556 17.3209 21.3801 17.3296C21.2745 17.3415 21.1692 17.3534 21.0637 17.365C21.037 17.3682 21.0104 17.371 20.9831 17.3741C20.8127 17.3932 20.6417 17.4111 20.4725 17.4274C20.4512 17.4293 20.4299 17.4315 20.408 17.4336C20.3083 17.443 20.2087 17.4524 20.1088 17.4615C19.7767 17.4866 19.7767 17.4866 19.4634 17.5881C19.4597 17.5693 19.4559 17.5502 19.4522 17.5308C19.4039 17.2886 19.3554 17.0483 19.3068 16.804C19.299 16.7648 19.2911 16.7256 19.283 16.6852C19.2094 16.0023 19.2094 16.0023 18.9635 15.3945C18.8845 15.3895 18.8065 15.3864 18.7276 15.3845C18.6912 15.3836 18.6912 15.3836 18.6539 15.3826C18.5744 15.3804 18.4948 15.3789 18.4152 15.377C18.3883 15.3764 18.3613 15.3757 18.3338 15.3751C17.9954 15.3667 17.6571 15.3601 17.3219 15.3594C17.2912 15.3591 17.2602 15.3591 17.2285 15.3588C16.9685 15.3435 16.9685 15.3435 16.7398 15.4259L16.7354 15.4277ZM7.46246 16.7435C7.44554 16.7648 7.42894 16.7861 7.41171 16.808C7.35062 16.8835 7.29579 16.9384 7.2228 17.0004C6.79674 17.3669 6.45841 17.7585 6.16393 18.2378C6.11568 18.3102 6.11568 18.3102 6.06932 18.3534C5.99632 18.4311 5.95591 18.5248 5.91017 18.6197C5.89952 18.6413 5.88887 18.6629 5.87791 18.6855C5.85441 18.7331 5.83154 18.7807 5.80836 18.8287C5.76951 18.9089 5.73004 18.9891 5.69057 19.0696C5.5521 19.3534 5.41896 19.6366 5.3209 19.9374C5.29615 20.0141 5.26984 20.0905 5.24383 20.1667C4.9481 21.0438 4.76139 21.9335 4.64234 22.8546C4.6389 22.8806 4.63576 22.9063 4.63232 22.9329C4.47725 24.0795 4.47725 24.0795 4.42242 25.2323C4.42274 25.2684 4.42274 25.3047 4.42274 25.342C4.42274 25.3692 4.42305 25.3965 4.42305 25.4247C4.80838 25.4269 5.19371 25.4285 5.57904 25.4297C5.75823 25.43 5.93617 25.4307 6.11787 25.4319C6.2908 25.4328 6.46248 25.4335 6.63791 25.4338C6.7037 25.4338 6.76949 25.4341 6.83528 25.4347C7.46183 25.4407 7.46183 25.4407 8.02886 25.2013C8.15104 25.1243 8.27697 25.0557 8.40479 24.9861C8.55328 24.9043 8.70115 24.8226 8.84651 24.7336C9.00973 24.6337 9.17858 24.5463 9.34775 24.4586C9.45865 24.4009 9.55827 24.342 9.65758 24.2656C9.69518 24.2509 9.73246 24.2358 9.7713 24.2205C9.87876 24.1822 9.87876 24.1822 9.92199 24.103C9.92763 24.0845 9.93358 24.0657 9.93953 24.0463C9.96146 24.0488 9.98339 24.0516 10.0063 24.0541C10.1269 24.0438 10.187 23.9918 10.2841 23.921C10.426 23.832 10.5745 23.7596 10.7259 23.686C10.8342 23.6309 10.9383 23.5742 11.0335 23.498C11.1043 23.4479 11.1767 23.4191 11.2572 23.3868C11.3299 23.3521 11.3922 23.3091 11.4583 23.2631C11.5491 23.2001 11.6315 23.1538 11.7362 23.1184C11.854 23.0745 11.8934 23.0388 11.9771 22.9498C12.0852 22.8818 12.1748 22.8314 12.2966 22.7932C12.3868 22.7687 12.3868 22.7687 12.4401 22.702C12.5256 22.6221 12.6011 22.5971 12.7117 22.5601C12.8709 22.5025 12.9586 22.4486 13.0751 22.3233C13.1349 22.2969 13.1957 22.2772 13.2581 22.2565C13.3599 22.2158 13.4442 22.1541 13.5337 22.0918C13.6102 22.0397 13.6882 21.9934 13.7684 21.9473C13.8195 21.9163 13.8702 21.885 13.921 21.8533C13.9413 21.8411 13.9617 21.8289 13.983 21.8164C14.1418 21.7039 14.1988 21.5479 14.2615 21.3684C14.2972 21.2672 14.3345 21.1848 14.3943 21.0952C14.452 21.0088 14.473 20.9517 14.4849 20.8496C14.4454 20.8167 14.4056 20.7841 14.3655 20.7519C14.3323 20.7246 14.3323 20.7246 14.2981 20.6967C14.1872 20.6194 14.0716 20.5573 13.9535 20.4934C13.7953 20.4079 13.6406 20.3161 13.4836 20.2249C13.4526 20.2068 13.4213 20.1886 13.3893 20.1698C13.3267 20.1331 13.264 20.0965 13.201 20.0595C13.072 19.984 12.9426 19.9085 12.8126 19.8333C12.7355 19.7882 12.6588 19.7425 12.5823 19.6964C12.4154 19.5959 12.2471 19.4972 12.078 19.3985C11.958 19.328 11.8386 19.2572 11.7208 19.1855C11.6005 19.1128 11.479 19.0433 11.3574 18.974C11.1763 18.8713 11.0003 18.7635 10.8217 18.6545C10.7027 18.5812 10.5817 18.5107 10.4614 18.4405C10.3151 18.3556 10.1695 18.2695 10.0229 18.1833C9.9931 18.1658 9.96365 18.1482 9.93327 18.1304C9.87249 18.0943 9.8114 18.0583 9.75031 18.0223C9.51629 17.8838 9.28353 17.7454 9.04857 17.6088C8.97589 17.5658 8.90353 17.5229 8.83116 17.48C8.58524 17.3347 8.33932 17.1912 8.09183 17.0477C8.05079 17.0242 8.05079 17.0242 8.00912 17.0001C7.75067 16.8297 7.75067 16.8297 7.46716 16.746L7.46246 16.7435ZM9.12282 16.8375C9.35276 17.0903 9.64599 17.2447 9.9436 17.4014C10.1942 17.5326 10.4354 17.6805 10.6767 17.8274C10.7622 17.8769 10.8499 17.9199 10.9383 17.964C11.1754 18.0947 11.4082 18.2316 11.6337 18.3775C11.994 18.6094 12.3637 18.8255 12.7396 19.0292C12.895 19.1134 13.0444 19.2052 13.1938 19.2983C13.3499 19.3948 13.5071 19.4878 13.6669 19.5815C13.6951 19.5981 13.7236 19.615 13.7527 19.6325C13.9247 19.734 14.0973 19.8315 14.2759 19.9264C14.3711 19.9787 14.4629 20.0345 14.555 20.0924C14.722 20.1964 14.8902 20.2961 15.0625 20.3938C15.1365 20.4389 15.1365 20.4389 15.1991 20.5016C15.2185 20.7296 15.1559 20.8712 15.0522 21.0749C15.0065 21.1529 15.0065 21.1529 15.0112 21.2218C15.1098 21.2014 15.1878 21.1673 15.2756 21.1181C15.2987 21.1052 15.3219 21.0924 15.3457 21.0792C15.4212 21.0344 15.4212 21.0344 15.4936 20.9708C15.6076 20.8834 15.7311 20.8449 15.8664 20.797C15.9695 20.7428 16.0049 20.7039 16.0462 20.5952C16.039 20.5103 16.039 20.5103 15.9836 20.4386C15.9146 20.3957 15.8517 20.3634 15.7781 20.3308C15.5381 20.2187 15.3081 20.093 15.0763 19.9612C15.0434 19.9427 15.0105 19.9242 14.9764 19.9048C14.9128 19.8691 14.8492 19.833 14.7859 19.797C14.7092 19.7538 14.6324 19.7112 14.5557 19.6689C14.4231 19.5956 14.2928 19.5191 14.1609 19.4421C13.8351 19.2491 13.503 19.063 13.1678 18.8844C13.0002 18.7948 12.8358 18.7018 12.6729 18.6034C12.5507 18.5295 12.4269 18.4584 12.3032 18.3869C12.0059 18.2156 12.0059 18.2156 11.8897 18.1473C11.7556 18.068 11.6221 17.9907 11.4824 17.923C11.2193 17.7945 10.9686 17.6398 10.718 17.4907C10.5727 17.4058 10.4264 17.3221 10.2794 17.24C10.2509 17.2238 10.2224 17.2075 10.1933 17.1905C9.89442 17.0292 9.46648 16.8334 9.12188 16.8334L9.12282 16.8375ZM25.7891 17.0696C25.4996 17.2159 25.219 17.3795 24.937 17.5395C24.7274 17.6589 24.5172 17.7757 24.3042 17.8935C24.0495 18.0345 23.7967 18.1774 23.5461 18.3259C23.3662 18.4327 23.1827 18.5345 23.001 18.6357C22.6965 18.8039 22.3963 18.9772 22.0956 19.1557C21.8606 19.2945 21.6225 19.4289 21.3845 19.563C21.2851 19.6184 21.1858 19.6745 21.0865 19.7303C21.0665 19.7416 21.0467 19.7528 21.0261 19.7641C20.897 19.8368 20.7679 19.9098 20.6376 19.9831C20.6056 20.0013 20.5737 20.0191 20.5408 20.0379C20.4781 20.0736 20.4155 20.109 20.3528 20.1447C20.2231 20.2184 20.0941 20.2904 19.9612 20.3559C19.8431 20.4154 19.7604 20.4803 19.6627 20.5683C19.7658 20.7115 19.8594 20.786 20.0167 20.8659C20.1454 20.9364 20.2667 21.0182 20.3895 21.0999C20.48 21.1594 20.5587 21.2102 20.6674 21.2262C20.6617 21.2093 20.6561 21.192 20.6501 21.1745C20.6335 21.1247 20.6169 21.0749 20.6006 21.025C20.5831 20.9727 20.5646 20.9204 20.5452 20.8684C20.5092 20.77 20.481 20.6826 20.4734 20.578C20.58 20.3712 20.8368 20.2754 21.0373 20.1833C21.12 20.1397 21.1934 20.0946 21.2704 20.042C21.4252 19.9374 21.5868 19.8468 21.7497 19.7563C22.1476 19.5345 22.5361 19.302 22.9245 19.0639C23.1842 18.907 23.4446 18.7529 23.7077 18.6034C23.8618 18.5151 24.0144 18.4245 24.1682 18.334C24.4126 18.189 24.6569 18.0458 24.9044 17.9048C25.0852 17.8005 25.2647 17.6949 25.4433 17.5884C25.5689 17.5145 25.6951 17.4418 25.8223 17.3701C25.8518 17.3534 25.8812 17.3368 25.9116 17.3196C25.9689 17.2873 26.0263 17.2554 26.0839 17.2234C26.2346 17.1385 26.3665 17.0508 26.4943 16.9352C26.2719 16.8613 25.9931 16.976 25.7894 17.0734L25.7891 17.0696ZM17.6439 21.6748C17.575 21.7199 17.5039 21.7544 17.4297 21.7901C17.0067 21.9975 16.6026 22.2412 16.1985 22.4793C15.9272 22.6397 15.6534 22.79 15.3714 22.9304C15.1358 23.0472 14.9078 23.1732 14.6791 23.3032C14.6036 23.3464 14.5278 23.3887 14.4523 23.4313C14.3984 23.4617 14.3448 23.4921 14.2913 23.5225C14.2662 23.5366 14.2411 23.5507 14.2151 23.5651C13.9629 23.7092 13.7922 23.8749 13.6951 24.1509C13.6365 24.3085 13.5717 24.4598 13.4993 24.6114C13.3768 24.8689 13.2549 25.1283 13.2017 25.4103C13.3577 25.4134 13.5137 25.4156 13.6685 25.4172C13.7214 25.4178 13.7743 25.4187 13.8276 25.4197C13.904 25.4213 13.9805 25.4219 14.0569 25.4225C14.092 25.4234 14.092 25.4234 14.128 25.4244C14.348 25.4247 14.5322 25.3454 14.6919 25.1913C14.7098 25.1744 14.7273 25.1578 14.7455 25.1402C14.7634 25.1227 14.7812 25.1052 14.7997 25.0873C14.8379 25.0506 14.8765 25.014 14.9147 24.9773C14.9328 24.9601 14.951 24.9429 14.9695 24.9247C15.029 24.8683 15.0901 24.8138 15.1521 24.7602C15.3266 24.6096 15.4967 24.4548 15.6659 24.2997C15.8063 24.1707 15.9479 24.045 16.0951 23.9238C16.2555 23.7944 16.4071 23.6569 16.5587 23.5165C16.6483 23.4338 16.7395 23.3536 16.8316 23.2737C16.9115 23.2036 16.9898 23.1321 17.0684 23.0604C17.1875 22.9517 17.3075 22.8446 17.4287 22.7377C17.5005 22.6751 17.5722 22.6118 17.6436 22.5485C17.6668 22.5278 17.69 22.5075 17.7138 22.4862C17.7551 22.4486 17.7959 22.41 17.8353 22.3703C17.8501 22.3916 17.8651 22.4129 17.8805 22.4348C17.9672 22.5344 18.0597 22.6058 18.1643 22.6851C18.2749 22.7716 18.3773 22.8655 18.4807 22.9602C18.5446 23.0184 18.6095 23.0754 18.6749 23.1318C18.7886 23.2308 18.8992 23.333 19.0101 23.4354C19.2059 23.6168 19.4049 23.7925 19.6085 23.9648C19.6257 23.9792 19.6433 23.994 19.6611 24.009C19.6787 24.0237 19.6959 24.0385 19.7137 24.0535C19.86 24.1769 20.0017 24.3047 20.1429 24.4357C20.2579 24.5513 20.2579 24.5513 20.4042 24.5951C20.4102 24.6121 20.4164 24.629 20.4227 24.6465C20.4872 24.7543 20.5781 24.8216 20.6746 24.9006C20.8249 25.0259 20.9659 25.1515 21.0944 25.2984C21.2569 25.426 21.4734 25.4209 21.6708 25.4285C21.698 25.4294 21.7253 25.4307 21.7532 25.4319C21.9922 25.4416 22.2294 25.4435 22.4706 25.44C22.4283 25.1991 22.3418 24.9827 22.2485 24.7571C22.2175 24.6813 22.1886 24.6052 22.1595 24.5287C21.9681 24.0244 21.7836 23.733 21.3105 23.4667C21.2911 23.4554 21.2717 23.4442 21.2516 23.4326C20.9008 23.2305 20.5436 23.0441 20.1865 22.8561C19.845 22.6751 19.5067 22.4865 19.1715 22.2922C18.9124 22.1431 18.6514 21.9981 18.3883 21.8537C18.3147 21.8126 18.241 21.7713 18.1677 21.7299C18.1138 21.6998 18.1138 21.6998 18.0587 21.6695C18.0293 21.6529 18.0001 21.6366 17.9701 21.6196C17.8297 21.5579 17.7589 21.5908 17.6411 21.6735L17.6439 21.6748ZM17.5922 23.4385C17.5587 23.4705 17.5249 23.5024 17.4911 23.5344C17.4748 23.5501 17.4585 23.5657 17.4419 23.5817C17.3849 23.6356 17.3266 23.687 17.2674 23.7383C17.1737 23.8195 17.0813 23.9019 16.9892 23.9849C16.8965 24.0685 16.8034 24.1515 16.7091 24.2336C16.6098 24.3201 16.5124 24.4087 16.4156 24.498C16.2101 24.6851 15.9958 24.8614 15.7765 25.0306C15.7568 25.0459 15.737 25.0613 15.7167 25.077C15.6781 25.1067 15.6393 25.1365 15.6004 25.1662C15.5014 25.2427 15.4363 25.3088 15.3598 25.4106C17.8097 25.4263 17.8097 25.4263 20.3096 25.4419C20.2695 25.3219 20.2213 25.301 20.1179 25.2305C19.9829 25.1359 19.8673 25.0387 19.7576 24.9172C19.7175 24.8708 19.7175 24.8708 19.653 24.878V24.8154C19.6075 24.775 19.5602 24.7371 19.512 24.6998C19.3532 24.5732 19.205 24.4385 19.0577 24.2988C18.8936 24.1431 18.7257 23.994 18.5502 23.8539C18.4415 23.7662 18.3356 23.676 18.2307 23.5855C18.2028 23.5616 18.2028 23.5616 18.1746 23.5375C18.0979 23.4717 18.0258 23.4078 17.9575 23.3336C17.8103 23.202 17.7035 23.3339 17.5941 23.4404L17.5922 23.4385ZM12.7365 24.3752V24.4379C12.7108 24.4451 12.6848 24.452 12.6581 24.4595C12.525 24.5093 12.4166 24.5801 12.2979 24.6572C12.1152 24.7734 11.9282 24.8749 11.734 24.9704C11.4417 25.1099 11.4417 25.1099 11.1701 25.2837V25.3464C11.0736 25.3555 11.0736 25.3555 10.9774 25.3649C10.9486 25.3711 10.9486 25.3711 10.9195 25.3777L10.8881 25.4404C11.1845 25.483 11.4771 25.4679 11.7747 25.4526C11.859 25.4482 11.9436 25.4447 12.0278 25.441C12.0817 25.4385 12.1356 25.4357 12.1892 25.4332C12.2271 25.4316 12.2271 25.4316 12.2656 25.43C12.3969 25.4234 12.3969 25.4234 12.5134 25.3686C12.5513 25.3094 12.5811 25.2518 12.6083 25.1866C12.6187 25.1619 12.6293 25.1368 12.6403 25.1111C12.6509 25.0848 12.6619 25.0585 12.6729 25.0312C12.6838 25.0043 12.6951 24.9777 12.7064 24.9501C12.8408 24.6409 12.8408 24.6409 12.8922 24.311C12.8195 24.3054 12.8195 24.3054 12.7355 24.3737L12.7365 24.3752ZM22.7926 24.3439C22.8039 24.5153 22.8547 24.6327 22.9345 24.7825C23 24.9147 23.052 25.051 23.104 25.1897C23.1385 25.2784 23.1632 25.3411 23.2312 25.409C23.302 25.4206 23.302 25.4206 23.385 25.4219C23.417 25.4231 23.4489 25.4244 23.4818 25.4256C23.5338 25.4272 23.5338 25.4272 23.5868 25.4288C23.6222 25.4303 23.6576 25.4316 23.6939 25.4328C23.8073 25.4369 23.9207 25.4407 24.0354 25.4444C24.1118 25.4469 24.1886 25.4498 24.2653 25.4526C24.4536 25.4592 24.6413 25.4657 24.8292 25.4717C24.7359 25.3714 24.6284 25.3204 24.5066 25.2621C24.2631 25.1434 24.0304 25.0134 23.7954 24.8768C23.5827 24.7521 23.3694 24.629 23.1532 24.5134C23.0843 24.4755 23.016 24.4363 22.9483 24.3965C22.8647 24.3404 22.8647 24.3404 22.7936 24.3455L22.7926 24.3439ZM8.16263 27.1007V27.1321H11.358V27.1007C10.7409 27.0747 10.1269 27.0644 9.50972 27.0653C9.3938 27.0656 9.27758 27.0653 9.16198 27.0653C9.07113 27.065 8.97997 27.065 8.88912 27.0653C8.82583 27.0653 8.76224 27.0653 8.69896 27.065C8.51726 27.0656 8.34182 27.0672 8.16326 27.1007H8.16263ZM17.7176 27.0757C17.5778 27.0766 17.4384 27.0775 17.2978 27.0785C17.0359 27.0801 16.7746 27.0816 16.5114 27.0835L15.6155 27.0891C15.0014 27.0929 14.3874 27.097 13.7765 27.1007V27.1321C17.5359 27.1477 17.5359 27.1477 21.3892 27.1634V27.1007C21.2438 27.096 21.0984 27.0916 20.9537 27.0873C20.9051 27.086 20.8563 27.0844 20.8074 27.0829C20.4033 27.0697 19.9991 27.0685 19.595 27.0685H19.5082C18.913 27.0688 18.3147 27.0719 17.7194 27.0757H17.7176ZM25.6121 27.1007V27.1321C26.0319 27.1587 26.4517 27.1675 26.8715 27.1653C26.9291 27.1653 26.9868 27.1649 27.0444 27.1649C27.1832 27.1646 27.322 27.164 27.4611 27.1634V27.1321C27.2518 27.1004 27.0475 27.0967 26.8377 27.0976C26.8026 27.0976 26.7675 27.0979 26.7315 27.0979C26.6199 27.0979 26.5087 27.0985 26.3962 27.0988C26.3204 27.0988 26.2446 27.0992 26.1688 27.0992C25.9837 27.0995 25.7991 27.1001 25.6143 27.1007H25.6121Z" fill="#000100"/>
</svg>
