<svg width="38" height="38" viewBox="0 0 38 38" fill="none" xmlns="http://www.w3.org/2000/svg">
<path d="M20.3719 0.955261C20.4097 0.958303 20.4479 0.961345 20.487 0.964387C21.0477 1.00872 21.604 1.06217 22.1603 1.15909C22.2189 1.16865 22.2776 1.17865 22.3359 1.18821C24.3176 1.51764 26.1951 2.09653 27.9857 3.02659C28.0844 3.07787 28.1835 3.12872 28.2821 3.17957C28.8167 3.45598 29.3165 3.76628 29.8119 4.10962C29.8997 4.1709 29.9879 4.23088 30.077 4.28955C30.2835 4.42775 30.4829 4.57595 30.6811 4.72328C30.7129 4.74632 30.7446 4.76935 30.7772 4.79282C30.9601 4.92755 31.1314 5.07053 31.2987 5.22221C31.4347 5.34172 31.4347 5.34172 31.6064 5.3778C31.7829 5.30783 31.8676 5.1731 31.9836 5.02751C32.1071 4.89756 32.2361 4.77935 32.3722 4.66331C32.5126 4.54205 32.6325 4.41471 32.7507 4.27216C32.8789 4.11875 33.0228 3.98706 33.1762 3.85929C33.2814 3.77063 33.3713 3.68023 33.4587 3.57419C33.5756 3.43338 33.7038 3.31603 33.8429 3.19782C33.9537 3.10308 34.0624 3.00616 34.1706 2.90881C34.2062 2.87665 34.2418 2.84449 34.2788 2.81146C34.3362 2.75843 34.3927 2.70411 34.4465 2.64718C34.5043 2.59372 34.5043 2.59372 34.5913 2.59372C34.6013 2.56938 34.6113 2.54504 34.6213 2.52027C34.6947 2.39119 34.7855 2.30167 34.8955 2.20258H34.9824C34.9994 2.16433 34.9994 2.16433 35.0167 2.12522C35.0732 2.02178 35.1332 1.95659 35.2175 1.87532C35.2462 1.84707 35.2749 1.81882 35.3049 1.79014L35.4861 1.61543C35.5152 1.58718 35.5439 1.55893 35.5735 1.53024C35.5995 1.50504 35.6261 1.47939 35.653 1.45375C35.7234 1.37422 35.7656 1.29947 35.8082 1.20299C35.8516 1.21733 35.8946 1.23167 35.9385 1.24645C35.9485 1.27948 35.9585 1.31251 35.9685 1.34684C36.045 1.50373 36.1372 1.52372 36.2914 1.59283C36.4066 1.65584 36.4427 1.74059 36.5035 1.85489C36.5674 1.91009 36.6317 1.96572 36.6978 2.0183C36.8612 2.14999 36.9964 2.30601 37.1311 2.46595C37.2258 2.57634 37.3106 2.66021 37.4353 2.73497C37.4723 2.75974 37.5088 2.78495 37.5466 2.81102V2.98486C37.4983 2.99356 37.4501 3.00268 37.4001 3.01181C37.348 3.0318 37.2962 3.05136 37.2424 3.07178C37.1915 3.19912 37.1915 3.19912 37.1554 3.33255C37.0468 3.41121 37.0468 3.41121 36.9381 3.46293C36.8382 3.50161 36.8382 3.50161 36.7973 3.62851C36.7074 3.79192 36.6148 3.84103 36.4601 3.94099C36.4279 3.99488 36.4279 3.99488 36.3949 4.04964C36.3114 4.18915 36.2036 4.24217 36.0689 4.33214C36.0368 4.38603 36.0368 4.38603 36.0037 4.44079C35.9203 4.5803 35.8125 4.63332 35.6778 4.72328C35.6456 4.77717 35.6456 4.77717 35.6126 4.83193C35.5291 4.97144 35.4214 5.02446 35.2866 5.11443C35.2545 5.16832 35.2545 5.16832 35.2214 5.22308C35.138 5.36259 35.0302 5.41561 34.8955 5.50557C34.8633 5.55946 34.8633 5.55946 34.8303 5.61422C34.7469 5.75373 34.6391 5.80762 34.5043 5.89671C34.4913 5.92453 34.4778 5.95234 34.4639 5.98059C34.3996 6.10576 34.3027 6.15574 34.1853 6.22919C34.1076 6.28395 34.1076 6.28395 34.071 6.37478C34.0158 6.48213 33.9628 6.51038 33.8581 6.56731C33.7038 6.65814 33.6121 6.75115 33.5048 6.8963C33.4726 6.9176 33.4404 6.93933 33.4074 6.9615C33.3227 7.02191 33.3227 7.02191 33.3014 7.12708C33.3418 7.28528 33.423 7.33352 33.5482 7.43261C33.7999 7.64122 34.0263 7.92371 34.2001 8.20186V8.28878H34.287C34.3518 8.38005 34.4109 8.47088 34.4691 8.56562C34.5043 8.62212 34.54 8.67818 34.5752 8.73468C34.593 8.7625 34.6104 8.79031 34.6282 8.819C34.6947 8.92243 34.7647 9.02239 34.8359 9.12278C34.9946 9.3466 35.1423 9.57477 35.2879 9.80946C35.3075 9.84075 35.3271 9.87204 35.3466 9.9042C35.6421 10.3823 35.9159 10.8647 36.155 11.3732C36.1819 11.4279 36.2084 11.4831 36.2349 11.5379C36.5148 12.1246 36.7478 12.7287 36.952 13.3458C36.962 13.3763 36.9725 13.4067 36.9829 13.438C38.1867 17.0669 38.1129 21.0436 36.5135 25.7807C36.4618 25.8859 36.4188 25.9911 36.3775 26.1006C36.0728 26.8786 35.6387 27.6435 35.1823 28.3432C35.161 28.3758 35.1397 28.4084 35.118 28.4423C34.7968 28.9377 34.4704 29.4245 34.1097 29.8938C34.0832 29.9295 34.0567 29.9651 34.0293 30.0021C33.9885 30.0559 33.9885 30.0559 33.9472 30.1111C33.922 30.1442 33.8972 30.1772 33.8716 30.2115C33.8498 30.2359 33.8281 30.2598 33.8055 30.285H33.7186C33.7108 30.3232 33.7025 30.3619 33.6942 30.4019C33.6208 30.571 33.55 30.617 33.3952 30.7074C33.3101 30.7774 33.3005 30.83 33.284 30.9369C33.3066 30.956 33.3292 30.9756 33.3526 30.9956C33.3831 31.0221 33.4131 31.0481 33.4443 31.0755C33.4743 31.1012 33.5039 31.1268 33.5347 31.1533C33.6434 31.2515 33.746 31.3541 33.849 31.4584C33.8981 31.5071 33.9467 31.5562 33.9959 31.6049L34.3866 31.9956C34.4505 32.0595 34.5148 32.1229 34.5787 32.1864C34.6751 32.2842 34.6751 32.2842 34.7781 32.4115C34.8811 32.538 34.9976 32.6392 35.1228 32.7431C35.2619 32.8609 35.3862 32.9939 35.5118 33.126C35.6447 33.2533 35.7869 33.3602 35.9359 33.4685C36.0259 33.548 36.0581 33.6114 36.1089 33.7184C36.1511 33.7462 36.1932 33.774 36.2367 33.8022C36.3779 33.8974 36.4149 33.9674 36.5 34.1095C36.5444 34.1382 36.5883 34.1669 36.6335 34.1964C36.7769 34.2942 36.7869 34.3455 36.8477 34.5006C36.9533 34.5515 36.9533 34.5515 37.065 34.5876C37.1559 34.6606 37.1989 34.7236 37.2554 34.8266C37.3362 34.9509 37.4127 34.9987 37.5431 35.0656C37.5353 35.1678 37.5353 35.1678 37.4996 35.2829C37.4005 35.342 37.4005 35.342 37.2797 35.3833C37.2397 35.3977 37.1998 35.4116 37.1589 35.4264C37.1281 35.4363 37.0972 35.4463 37.065 35.4568L37.1085 35.5002V35.5872C37.0668 35.5989 37.0246 35.6102 36.9812 35.6224C36.9373 35.6393 36.8934 35.6563 36.8477 35.6741C36.8338 35.7171 36.8195 35.7601 36.8043 35.8045C36.776 35.8188 36.7469 35.8331 36.7174 35.8479C36.7069 35.8727 36.6961 35.8979 36.6852 35.924C36.6217 36.0378 36.54 36.1026 36.4388 36.1826C36.3597 36.2456 36.3597 36.2456 36.2558 36.3529C36.1524 36.4564 36.1524 36.4564 36.0576 36.5216C35.9581 36.6037 35.9312 36.6828 35.8916 36.8041H35.8047V36.6302C35.7004 36.5363 35.7004 36.5363 35.5874 36.4564C35.5735 36.4277 35.5591 36.399 35.5439 36.3694H35.3701C35.3649 36.3329 35.3649 36.3329 35.3596 36.296C35.3166 36.1647 35.2419 36.083 35.1528 35.9783C35.1245 35.9353 35.0954 35.8923 35.0659 35.8479C35.0028 35.8184 35.0028 35.8184 34.9385 35.7879C34.7899 35.7093 34.7447 35.6506 34.6747 35.5002V35.4133C34.6265 35.4107 34.6265 35.4107 34.5774 35.4077C34.4087 35.3542 34.367 35.2603 34.2836 35.1091V35.0222C34.2353 35.0196 34.2353 35.0196 34.1862 35.0165C34.0189 34.9635 33.9854 34.8627 33.8924 34.7179C33.8568 34.6962 33.8207 34.6749 33.7838 34.6528C33.6443 34.5689 33.5912 34.4611 33.5013 34.3268C33.4656 34.3051 33.4296 34.2838 33.3926 34.2616C33.2531 34.1777 33.2001 34.07 33.1101 33.9357C33.0754 33.9148 33.0406 33.8944 33.0045 33.8731C32.8698 33.7909 32.8137 33.6984 32.7277 33.5693C32.6638 33.485 32.5986 33.4541 32.5017 33.4141C32.4734 33.3711 32.4443 33.3281 32.4148 33.2838C32.3865 33.3124 32.3574 33.3411 32.3278 33.3707C32.32 33.3303 32.3118 33.2898 32.3035 33.2486C32.2535 33.0964 32.2535 33.0964 32.1001 33.0473C32.0727 33.0382 32.0458 33.0286 32.0184 33.0195C31.8911 32.9569 31.822 32.8539 31.7394 32.7414C31.6607 32.6592 31.616 32.6388 31.5021 32.6318C31.4178 32.674 31.4178 32.674 31.3396 32.7431C31.3096 32.767 31.2796 32.7909 31.2487 32.8157C31.2174 32.8409 31.1866 32.8665 31.1544 32.8926C31.0914 32.9417 31.0284 32.9908 30.9645 33.0391C30.9362 33.0612 30.9084 33.083 30.8793 33.1056C30.8067 33.1534 30.8067 33.1534 30.7198 33.1534V33.2403C30.6594 33.2933 30.6594 33.2933 30.579 33.3489C30.5507 33.3681 30.5229 33.3872 30.4942 33.4072C30.416 33.4576 30.416 33.4576 30.3234 33.5011C30.2326 33.5436 30.2326 33.5436 30.1496 33.6423C29.9814 33.8031 29.7911 33.9065 29.589 34.0226C29.5264 34.0613 29.4642 34.0999 29.4017 34.1395C29.2769 34.2177 29.1509 34.2942 29.024 34.3703C28.9988 34.3872 28.9736 34.4042 28.9475 34.422C28.7358 34.5619 28.5294 34.6484 28.2869 34.7179V34.8049C28.24 34.827 28.1926 34.8488 28.1439 34.8718C27.8501 35.0091 27.5572 35.1465 27.2704 35.2938C27.0848 35.3872 26.8988 35.4694 26.7054 35.5437C26.5819 35.5919 26.4607 35.6437 26.339 35.6958C26.1278 35.784 25.9153 35.8605 25.6958 35.9309C25.5893 35.9653 25.4837 36.0009 25.3785 36.0378C24.8483 36.2212 24.3137 36.3681 23.7661 36.4985C23.7283 36.5077 23.6901 36.5172 23.651 36.5268C23.0208 36.678 22.3863 36.7688 21.7474 36.8571C21.7065 36.8627 21.6657 36.8684 21.6235 36.874C20.8586 36.9792 20.1068 37.0292 19.3375 37.0283C19.3023 37.0279 19.2671 37.0279 19.231 37.0279C15.6151 37.017 11.8428 35.9761 8.84399 33.89C8.81356 33.8687 8.78271 33.847 8.75098 33.8253C8.42459 33.5984 8.09907 33.3733 7.79051 33.1212C7.71402 33.0617 7.71402 33.0617 7.62188 33.0186C7.53974 32.9778 7.53974 32.9778 7.46107 32.8935C7.3107 32.7518 7.15077 32.6736 6.9439 32.6736C6.81178 32.7318 6.78744 32.8109 6.71529 32.9343C6.62881 32.9926 6.54189 33.0504 6.45453 33.1082C6.38021 33.1934 6.30807 33.2803 6.23723 33.3689C5.88259 33.7418 5.88259 33.7418 5.67224 33.847C5.65442 33.8883 5.6366 33.9296 5.61835 33.9717C5.52622 34.136 5.44625 34.1573 5.2811 34.2381C5.26806 34.2729 5.25459 34.3081 5.24068 34.3438C5.1807 34.488 5.09683 34.5132 4.96253 34.5815C4.85041 34.6558 4.81781 34.771 4.75957 34.8901L4.49881 35.0204L4.43362 35.1508C4.35148 35.3151 4.2689 35.3325 4.10767 35.4116C4.09463 35.4455 4.08115 35.4798 4.06725 35.5146C4.0064 35.665 3.91818 35.7075 3.78606 35.7945C3.70957 35.8431 3.70957 35.8431 3.67306 35.9357C3.61178 36.0544 3.51486 36.0848 3.40013 36.1443C3.3119 36.1952 3.3119 36.1952 3.24671 36.3242C3.10938 36.5124 2.9338 36.5581 2.7165 36.6285C2.45139 36.4251 2.45139 36.4251 2.41227 36.2373C2.35491 36.2073 2.2971 36.1787 2.23843 36.1504C2.14543 36.0696 2.0559 35.9853 1.97767 35.8896V35.8027C1.94377 35.7971 1.90987 35.7919 1.87467 35.7862C1.76037 35.7593 1.76037 35.7593 1.67345 35.6723C1.60217 35.6415 1.52959 35.6124 1.45614 35.5854V35.4116C1.41312 35.3972 1.37009 35.3829 1.32576 35.3681C1.29621 35.2782 1.29621 35.2782 1.2823 35.1943C1.23928 35.2086 1.19625 35.223 1.15192 35.2377C1.12324 35.2234 1.09499 35.2091 1.065 35.1943V35.0639H1.19538C1.2697 34.9696 1.2697 34.9696 1.33967 34.8518C1.46527 34.6619 1.53698 34.5993 1.76037 34.5424C1.81469 34.4376 1.81469 34.4376 1.84729 34.3251C1.90466 34.2599 1.90466 34.2599 1.97767 34.1947C2.01026 34.1612 2.04242 34.1282 2.07589 34.0943C2.16455 34.0074 2.25234 33.9287 2.34708 33.8496C2.44661 33.7657 2.53222 33.6823 2.6135 33.5806C2.71215 33.4611 2.81298 33.3781 2.9338 33.282C2.96161 33.2459 2.98943 33.2103 3.01811 33.1734C3.12155 33.0482 3.23237 32.9778 3.3684 32.8909C3.40621 32.8531 3.40621 32.8531 3.44489 32.8148C3.46271 32.797 3.48053 32.7787 3.49879 32.7605H3.58571L3.67263 32.5866H3.75955C3.77085 32.561 3.78215 32.5358 3.79388 32.5097C3.85081 32.4054 3.91209 32.3368 3.99597 32.2533C4.02683 32.2229 4.05725 32.1925 4.08854 32.1612C4.12114 32.1286 4.15417 32.0964 4.18807 32.063L4.28976 31.9613C4.39711 31.8543 4.5049 31.7479 4.61268 31.6414C4.68569 31.5688 4.75827 31.4962 4.83128 31.4236C5.00991 31.2463 5.18896 31.0686 5.36585 30.8934C5.28501 30.7357 5.28501 30.7357 5.14854 30.6327V30.4588C5.09161 30.4732 5.03424 30.4875 4.9747 30.5023C4.9634 30.471 4.95167 30.4393 4.9395 30.4071C4.88822 30.2859 4.82694 30.1794 4.7574 30.0677C4.74349 30.039 4.72915 30.0103 4.71394 29.9808C4.67222 29.9647 4.63006 29.9486 4.5866 29.9316C4.43927 29.8417 4.43188 29.826 4.39364 29.6683C4.38451 29.6135 4.37582 29.5588 4.36626 29.5027H4.26586C4.14939 29.4592 4.14939 29.4592 4.11027 29.388C4.07768 29.2963 4.04813 29.2041 4.01857 29.1116C3.93209 28.9064 3.84603 28.8112 3.67089 28.6769C3.59701 28.56 3.58397 28.5135 3.58397 28.3727C3.54355 28.3671 3.54355 28.3671 3.50183 28.3619C3.41012 28.3293 3.41013 28.3293 3.36797 28.2506C3.35841 28.2189 3.34928 28.1876 3.33972 28.1554C3.31277 28.062 3.31277 28.062 3.27974 27.9816C3.25149 27.9672 3.22281 27.9529 3.19282 27.9381C3.18152 27.9003 3.16979 27.8629 3.15762 27.8238C3.11416 27.7 3.08113 27.6348 3.00551 27.5335C2.80733 27.2671 2.66695 26.9816 2.54917 26.673C2.48746 26.5165 2.4201 26.3631 2.3523 26.208C2.33231 26.1623 2.33231 26.1623 2.31231 26.1163C2.25277 25.9807 2.1928 25.8451 2.13108 25.7108C1.30968 23.8941 0.862039 21.7602 0.805541 19.7567C0.804237 19.7111 0.804237 19.7111 0.802933 19.6646C0.772076 18.5824 0.82249 17.5263 0.979382 16.4528C0.98764 16.3985 0.995463 16.3442 1.00372 16.2885C1.3288 14.1416 2.04242 12.0164 3.15067 10.1606C3.16935 10.1293 3.18804 10.098 3.20716 10.0659C3.42447 9.70081 3.64612 9.34443 3.89819 9.00544C3.97164 8.90679 4.0403 8.80683 4.1081 8.70382C4.34757 8.3418 4.59486 8.00846 4.88604 7.68685C4.96558 7.59602 5.04467 7.50519 5.12334 7.41392C5.18679 7.34308 5.25285 7.27528 5.32065 7.20879C5.26893 7.07449 5.2133 6.94498 5.14681 6.81764H5.01642C5.01295 6.7907 5.00947 6.76375 5.00599 6.73594C4.98296 6.63771 4.98296 6.63771 4.89734 6.60555C4.78 6.54688 4.71829 6.46605 4.63788 6.36478C4.554 6.26178 4.4597 6.17138 4.36452 6.07881C4.32714 6.04013 4.28933 6.00145 4.25065 5.9619C4.14852 5.8563 4.14852 5.8563 4.01683 5.77459C3.99815 5.74026 3.97946 5.70636 3.9599 5.67115C3.89123 5.54773 3.89123 5.54773 3.75607 5.47037C3.61656 5.37736 3.58006 5.30652 3.49531 5.16614L3.36493 5.07922C3.2289 4.98839 3.1737 4.92146 3.10416 4.775V4.68808C3.072 4.68634 3.03984 4.6846 3.00681 4.68243C2.83906 4.62941 2.80733 4.52901 2.71302 4.38386C2.62653 4.32518 2.53961 4.26738 2.45226 4.21001C2.4088 4.13744 2.36534 4.06486 2.32188 3.99271C2.25886 3.95099 2.25886 3.95099 2.19454 3.9084C2.04547 3.808 1.98549 3.70631 1.88727 3.55811C1.77514 3.48249 1.77514 3.48249 1.66997 3.42773C1.65606 3.39904 1.64128 3.37036 1.62651 3.34081C1.59782 3.36949 1.56957 3.39817 1.53959 3.42773L1.40921 3.34081C1.42355 3.28344 1.43832 3.22607 1.45267 3.16696C1.38139 3.13828 1.30925 3.1096 1.23536 3.08004C1.21841 2.9388 1.20668 2.82449 1.28143 2.69846C1.42485 2.52723 1.59261 2.38511 1.76384 2.24212C1.87771 2.13999 1.96724 2.027 2.06285 1.90791C2.25929 1.69757 2.25929 1.69757 2.41053 1.64715L2.454 1.56023C2.49746 1.47331 2.49746 1.47331 2.62784 1.42985C2.66 1.34206 2.66 1.34206 2.6713 1.25601H2.80168C2.81254 1.30425 2.81254 1.30425 2.82341 1.35379C2.90859 1.50895 2.99769 1.53242 3.15458 1.60239C3.26975 1.6654 3.30582 1.75015 3.36667 1.86445C3.43055 1.91965 3.49487 1.97528 3.56093 2.02786C3.72348 2.15912 3.85907 2.3147 3.99423 2.47116C4.12288 2.6198 4.25674 2.73931 4.40972 2.86231C4.48316 2.93358 4.55574 3.00616 4.62702 3.07961C4.66483 3.11698 4.70264 3.15479 4.74132 3.19347C4.79738 3.24954 4.85345 3.30647 4.9069 3.36471C4.98122 3.43685 4.98122 3.43685 5.10813 3.51117C5.23938 3.60331 5.25502 3.63981 5.32239 3.77497C5.38584 3.8167 5.38584 3.8167 5.45016 3.85885C5.59141 3.95403 5.62835 4.024 5.71353 4.16612C5.75786 4.1948 5.80176 4.22349 5.84695 4.25304C5.99037 4.35083 6.00037 4.40211 6.06121 4.55726C6.16682 4.60811 6.16682 4.60811 6.27852 4.64418C6.36239 4.71459 6.4228 4.79152 6.4906 4.87757C6.5823 4.99491 6.5823 4.99491 6.69443 5.10313C6.78353 5.19222 6.85828 5.28001 6.93042 5.38301C7.11165 5.35911 7.21726 5.30131 7.36242 5.19266C7.48367 5.104 7.59015 5.03185 7.72662 4.9671C7.85396 4.90842 7.85396 4.90842 7.95174 4.77457C8.06909 4.63375 8.15775 4.59029 8.32116 4.5138C8.38418 4.46208 8.44719 4.41037 8.50847 4.35648C8.62495 4.26173 8.75055 4.18176 8.87615 4.09962C8.98523 4.02791 9.09041 3.95186 9.19515 3.87363C9.29163 3.80887 9.39246 3.75151 9.49372 3.69414C9.58803 3.64112 9.68104 3.58636 9.77448 3.5316C10.6915 2.99703 11.6302 2.54504 12.6255 2.16694C12.6655 2.15129 12.7054 2.13608 12.7467 2.12C13.0231 2.01352 13.303 1.91356 13.5812 1.81925C13.6229 1.80535 13.6642 1.79101 13.7072 1.77666C15.1675 1.29425 16.7408 1.04653 18.2706 0.950915C18.3114 0.947872 18.3523 0.945265 18.3944 0.942223C19.055 0.89572 19.6939 0.912669 20.3501 0.964387L20.3719 0.955261ZM17.56 3.31082C17.4274 3.33298 17.2949 3.35341 17.1619 3.37297C15.9102 3.55985 14.6368 3.79844 13.4677 4.28998C13.4217 4.30867 13.3752 4.32692 13.3274 4.34605C13.1996 4.3982 13.0731 4.45252 12.9462 4.50728C12.8945 4.52901 12.8428 4.55074 12.7893 4.57291C12.0288 4.89365 11.2769 5.28131 10.5989 5.75503C10.5103 5.80979 10.5103 5.80979 10.3955 5.85543C10.289 5.88976 10.289 5.88976 10.2199 5.97538C10.0652 6.12141 9.87617 6.19833 9.68538 6.28786V6.41824C9.65583 6.4291 9.62628 6.43954 9.59585 6.45084C9.4394 6.51733 9.30597 6.58339 9.16386 6.679C9.13604 6.7907 9.13604 6.7907 9.12039 6.8963C9.01739 6.94802 9.01739 6.94802 8.90309 6.98323C8.83877 7.02625 8.83877 7.02625 8.77271 7.07015C8.77141 7.15185 8.77141 7.15185 8.81617 7.24399C8.89266 7.28788 8.96915 7.33134 9.04695 7.37176C9.15256 7.43739 9.18906 7.52865 9.25078 7.63513C9.29684 7.67729 9.34378 7.71771 9.39202 7.75726C9.67408 7.99977 9.93093 8.26574 10.1917 8.53085C10.2447 8.58431 10.2982 8.63777 10.3512 8.69079C10.4703 8.8103 10.5894 8.93025 10.708 9.04977C10.768 9.11018 10.8284 9.16972 10.8888 9.22926C10.9875 9.32966 10.9875 9.32966 11.0935 9.46004C11.1769 9.55739 11.2482 9.6304 11.3464 9.70993C11.4655 9.80772 11.4655 9.80772 11.509 9.89464H11.5959V9.98156C11.6563 10.0428 11.6563 10.0428 11.7345 10.1037C11.9001 10.241 12.0501 10.3879 12.1952 10.5426C12.3738 10.7278 12.5346 10.8677 12.7689 10.9772H12.8558L12.9427 11.1511H13.0297L13.0731 11.2815C13.1444 11.3406 13.2174 11.3984 13.2904 11.4553C13.4056 11.5644 13.509 11.6739 13.6086 11.7973C13.7176 11.9312 13.8432 12.0385 13.9745 12.1502C14.1296 12.288 14.2722 12.4384 14.4178 12.5892C14.4991 12.6831 14.4991 12.6831 14.596 12.6735V12.7604C14.6825 12.8334 14.7694 12.906 14.8567 12.9777C14.8715 13.0064 14.8854 13.0351 14.9002 13.0646H14.9871V13.1516C15.0736 13.2246 15.1605 13.2972 15.2479 13.3689C15.2627 13.3976 15.2766 13.4262 15.2913 13.4558H15.3783V13.5427C15.4504 13.6014 15.523 13.6592 15.5956 13.7166L15.6825 13.8469H15.7694V13.9339C15.8411 13.993 15.9137 14.0508 15.9867 14.1077C16.0593 14.1798 16.1319 14.2524 16.204 14.325C16.2401 14.3537 16.2757 14.3824 16.3127 14.4119C16.4304 14.5058 16.5326 14.6097 16.6386 14.7161C16.6756 14.7448 16.7125 14.7735 16.7503 14.8031C16.8559 14.89 16.8559 14.89 16.9459 15.0069C17.0189 15.1142 17.0189 15.1142 17.1223 15.129C17.1493 15.136 17.1762 15.1434 17.2036 15.1507C17.2332 15.2229 17.2623 15.2955 17.2905 15.3681C17.3953 15.4615 17.3953 15.4615 17.5078 15.5419C17.5908 15.6179 17.6543 15.6931 17.7225 15.7835C17.8016 15.8917 17.8016 15.8917 17.899 15.93C18.0294 15.9991 18.0789 16.1156 18.1597 16.2373C18.2458 16.3107 18.3327 16.3833 18.4205 16.4546C18.4514 16.4928 18.4818 16.5315 18.5131 16.5715C18.5848 16.6745 18.5848 16.6745 18.6787 16.7105C18.7873 16.7688 18.8282 16.8305 18.896 16.9326C19.0007 17.0795 19.0711 17.1395 19.2462 17.1934C19.2897 17.2577 19.2897 17.2577 19.3332 17.3238C19.4688 17.3103 19.5079 17.2794 19.6022 17.1773C19.6343 17.1352 19.6669 17.093 19.7 17.0495C19.8273 16.8835 19.9507 16.7562 20.1155 16.6284C20.168 16.5728 20.2189 16.5154 20.2676 16.4572C20.4292 16.269 20.5961 16.0969 20.7847 15.94C20.9182 15.8279 21.0286 15.7057 21.1398 15.5719C21.2689 15.4185 21.4132 15.2859 21.567 15.1577C21.6979 15.0473 21.8039 14.9282 21.9121 14.7961C22.0186 14.6775 22.1403 14.5788 22.2637 14.478C22.2854 14.4567 22.3076 14.4354 22.3302 14.4137V14.3267C22.3698 14.3159 22.4093 14.305 22.4502 14.2941C22.5966 14.2376 22.667 14.1868 22.7648 14.066V13.9791C22.7957 13.9708 22.8261 13.963 22.8574 13.9543C23.0038 13.8813 23.0686 13.7983 23.1694 13.6722C23.2759 13.5501 23.3985 13.4506 23.5241 13.348C23.5458 13.3267 23.568 13.3054 23.5906 13.2837V13.1968C23.6284 13.1803 23.6284 13.1803 23.667 13.1633C23.7761 13.1033 23.8483 13.036 23.9356 12.9473C23.9674 12.9151 23.9991 12.883 24.0321 12.85C24.0812 12.8 24.0812 12.8 24.1312 12.7487C24.1638 12.7157 24.1964 12.6826 24.2303 12.6483C24.3216 12.5562 24.4124 12.4636 24.5032 12.371C24.6371 12.2354 24.7727 12.105 24.9161 11.9799C25.1004 11.8169 25.2755 11.6557 25.4289 11.4627C25.5654 11.2958 25.7292 11.1619 25.894 11.0237C26.053 10.8868 26.2103 10.7508 26.359 10.6026C26.4594 10.5022 26.4594 10.5022 26.5711 10.4153C26.6806 10.3314 26.6806 10.3314 26.7636 10.2197C26.8557 10.105 26.9527 10.0272 27.0678 9.93723C27.1986 9.81337 27.3177 9.68255 27.4346 9.54609C27.5633 9.39702 27.6971 9.27794 27.8501 9.15494C27.9809 9.03065 28.1 8.90027 28.2169 8.7638C28.3456 8.61473 28.4794 8.49565 28.6324 8.37266C28.771 8.24141 28.8975 8.10233 29.0235 7.95978C29.2395 7.71597 29.4582 7.50779 29.7189 7.31657C29.815 7.24355 29.815 7.24355 29.8919 7.11448C29.6046 6.81808 29.2921 6.57991 28.9531 6.34523C28.8462 6.27221 28.7432 6.19529 28.6402 6.11662C28.452 5.97451 28.2543 5.85282 28.0492 5.73287C28.0114 5.71027 27.9735 5.68767 27.9349 5.66464C27.5624 5.44429 27.1873 5.23133 26.8049 5.02577C26.7775 5.01056 26.7497 4.99578 26.721 4.98013C25.8953 4.53684 25.0043 4.20654 24.109 3.93708C24.0586 3.92187 24.0082 3.90666 23.9556 3.89101C22.8083 3.55463 21.6435 3.38687 20.4571 3.24345C20.4236 3.23911 20.3897 3.23476 20.3554 3.23042C20.1368 3.20434 19.9216 3.1926 19.7035 3.19087C19.67 3.19087 19.637 3.19043 19.6026 3.19C18.9116 3.18522 18.238 3.18869 17.5556 3.30691L17.56 3.31082ZM6.86871 8.87376C6.79787 8.95676 6.79787 8.95676 6.79005 9.08845C6.77788 9.15147 6.77788 9.15147 6.76527 9.21622C6.684 9.26794 6.684 9.26794 6.59143 9.30314C6.50364 9.37703 6.4567 9.44178 6.3989 9.54218C6.33067 9.65083 6.33067 9.65083 6.24114 9.71602C6.14944 9.77556 6.14944 9.77556 6.11771 9.87987C6.06599 10.0081 6.00124 10.1063 5.92084 10.2184C5.89476 10.2549 5.86868 10.291 5.84217 10.3288C5.79393 10.3944 5.74482 10.4601 5.69528 10.5248C5.62835 10.6117 5.62835 10.6117 5.57011 10.7399C5.50492 10.8677 5.50492 10.8677 5.44364 10.9255C5.35237 11.022 5.30674 11.125 5.24981 11.2454C5.1781 11.3966 5.10248 11.5401 5.01164 11.68C4.87692 11.8916 4.77 12.1146 4.66309 12.3406C4.6318 12.4075 4.6318 12.4075 4.59964 12.4753C3.67393 14.4528 3.18283 16.5954 3.15675 18.7771C3.15501 18.8684 3.15327 18.9601 3.15154 19.0518C3.11894 21.3204 3.66872 23.4847 4.59008 25.5708C4.60703 25.6086 4.62398 25.6464 4.64093 25.6851C4.78435 26.0059 4.9282 26.3197 5.13203 26.6065C5.24155 26.7656 5.33542 26.9342 5.43147 27.1019C5.65486 27.4887 5.90954 27.8538 6.1703 28.2145C6.19985 28.2554 6.19985 28.2554 6.22984 28.2967C6.24722 28.3154 6.26417 28.334 6.28156 28.3532H6.36848C6.37674 28.3818 6.38499 28.4105 6.39325 28.4401C6.46844 28.597 6.57014 28.7035 6.68704 28.8312C6.75962 28.9182 6.75962 28.9182 6.83307 29.0672C6.87784 29.1824 6.87784 29.1824 6.96649 29.2141C7.17989 29.2319 7.37198 29.0777 7.54017 28.9616C7.62318 28.8812 7.69359 28.7978 7.7653 28.7074C7.88873 28.5618 8.03345 28.4414 8.17774 28.3171C8.28161 28.2202 8.36549 28.1167 8.45284 28.0055C8.52499 27.9464 8.59713 27.8886 8.67014 27.8316C8.80009 27.7086 8.9183 27.5791 9.03434 27.4431C9.1556 27.3027 9.28337 27.1828 9.42549 27.065C9.5789 26.9364 9.71102 26.7925 9.83836 26.6391C9.95049 26.5061 10.0722 26.3953 10.206 26.2844C10.309 26.1975 10.402 26.1023 10.4955 26.0063C10.5359 25.9676 10.5763 25.9289 10.618 25.8894C10.7228 25.8016 10.7228 25.8016 10.7128 25.7021C10.7602 25.6873 10.7602 25.6873 10.808 25.6721C10.9549 25.6034 11.0413 25.5191 11.1474 25.3979V25.3109C11.1774 25.3035 11.2069 25.2966 11.2374 25.2892C11.4264 25.1927 11.5346 25.0371 11.6689 24.8763C11.7941 24.7446 11.9253 24.6247 12.0631 24.5069C12.1948 24.393 12.3004 24.2748 12.4077 24.1375C12.4429 24.1097 12.4777 24.0819 12.5138 24.0532C12.6433 23.9489 12.7376 23.8311 12.8423 23.7029C12.9666 23.5721 13.097 23.453 13.2335 23.3361C13.3826 23.2074 13.5016 23.0736 13.6246 22.9206C13.7498 22.7889 13.8811 22.669 14.0188 22.5512C14.1214 22.4625 14.2027 22.383 14.2878 22.277C14.3635 22.1818 14.3635 22.1818 14.4504 22.1409C14.5503 22.097 14.5503 22.097 14.6164 21.9697C14.7185 21.8237 14.7902 21.7819 14.9432 21.7033C15.0523 21.6381 15.114 21.5433 15.1892 21.443C15.2618 21.3847 15.3344 21.3269 15.4065 21.2691C15.4356 21.233 15.4639 21.1974 15.4934 21.1605C15.5851 21.0462 15.6838 20.9688 15.7977 20.878C15.8268 20.8419 15.855 20.8063 15.8846 20.7693C15.9763 20.655 16.0749 20.5777 16.1888 20.4868C16.2179 20.4508 16.2462 20.4151 16.2757 20.3782C16.3626 20.2695 16.3626 20.2695 16.4635 20.1909C16.563 20.1096 16.6343 20.0353 16.716 19.9379C16.8794 19.7454 17.065 19.5824 17.2549 19.4164C17.3588 19.3151 17.4222 19.2213 17.4917 19.0952C17.5161 19.0718 17.5404 19.0487 17.5652 19.0244C17.6373 18.9627 17.6373 18.9627 17.6221 18.8345C17.5469 18.7736 17.5469 18.7736 17.4513 18.7228C17.2788 18.6254 17.2788 18.6254 17.231 18.5302C17.198 18.5102 17.1649 18.4907 17.1306 18.4703C17.0137 18.3994 16.9363 18.3221 16.8398 18.226C16.8042 18.2052 16.7686 18.1847 16.7312 18.1634C16.6052 18.0843 16.5408 17.9948 16.4487 17.8783C16.3626 17.8049 16.2757 17.7323 16.1879 17.661C16.0576 17.5367 15.9385 17.4063 15.8216 17.2699C15.6929 17.1208 15.5591 17.0017 15.4056 16.8787C15.2744 16.7536 15.1544 16.6223 15.0362 16.4846C14.9228 16.3529 14.8042 16.2473 14.6668 16.1399C14.609 16.0673 14.5512 15.9948 14.493 15.9226C14.4395 15.8796 14.4395 15.8796 14.3843 15.8357C14.2757 15.7488 14.2757 15.7488 14.1835 15.6292C14.1566 15.5967 14.1296 15.5645 14.1018 15.5315H13.9715C13.961 15.5071 13.9502 15.4828 13.9393 15.458C13.8745 15.3385 13.8028 15.2407 13.7107 15.1403H13.5803C13.5699 15.116 13.559 15.0916 13.5481 15.0669C13.4556 14.8956 13.3773 14.7683 13.1892 14.7057C13.1205 14.6323 13.0601 14.554 12.9979 14.4749C12.9323 14.3967 12.9323 14.3967 12.8402 14.3576C12.7393 14.3067 12.7059 14.2572 12.6459 14.1625C12.5681 14.0429 12.5681 14.0429 12.4503 13.9669C12.3256 13.9043 12.2761 13.8026 12.1991 13.6883C12.1496 13.6127 12.1496 13.6127 12.0592 13.5757C11.9345 13.5132 11.8849 13.4115 11.808 13.2972C11.7584 13.2215 11.7584 13.2215 11.668 13.1846C11.5433 13.122 11.4938 13.0203 11.4168 12.906C11.3673 12.8304 11.3673 12.8304 11.2769 12.7935C11.1522 12.7309 11.1026 12.6292 11.0257 12.5149C10.9762 12.4393 10.9762 12.4393 10.8858 12.4023C10.761 12.3397 10.7115 12.238 10.635 12.1242C10.5698 12.039 10.5029 12.0138 10.4077 11.9677C10.3677 11.9056 10.3677 11.9056 10.3264 11.8425C10.2239 11.6922 10.1248 11.6309 9.97309 11.5331C9.91442 11.4614 9.85662 11.3888 9.79925 11.3158C9.7132 11.2424 9.62627 11.1698 9.53848 11.0985C9.46634 11.0259 9.39376 10.9533 9.32118 10.8812C9.28554 10.8525 9.24991 10.8238 9.21253 10.7943C9.04869 10.663 8.91092 10.5196 8.77793 10.3553C8.67666 10.2362 8.57975 10.1437 8.45197 10.0541H8.36505C8.35201 10.0055 8.35201 10.0055 8.33811 9.95636C8.26031 9.80033 8.16253 9.75861 8.01737 9.663C7.93566 9.57738 7.85917 9.48829 7.78312 9.39745C7.70619 9.30706 7.62492 9.22361 7.5393 9.14147C7.52018 9.12018 7.50062 9.09932 7.48063 9.07759C7.40284 9.00544 7.32982 8.96285 7.23508 8.91591C7.20553 8.90114 7.17597 8.88592 7.14555 8.87071C7.03342 8.82595 6.96215 8.81552 6.86045 8.88592L6.86871 8.87376ZM31.5542 8.78162C31.297 8.99979 31.0371 9.22492 30.8154 9.47699V9.56391C30.778 9.57999 30.778 9.57999 30.7398 9.5965C30.6268 9.65909 30.5538 9.7308 30.4643 9.82424C30.4312 9.85857 30.3978 9.89247 30.3634 9.92811C30.2939 9.99982 30.2248 10.072 30.1557 10.1441C29.9653 10.3392 29.7954 10.4792 29.5559 10.6048C29.4673 10.6869 29.4673 10.6869 29.3986 10.7756C29.3734 10.806 29.3482 10.8364 29.3226 10.8673C29.2991 10.8955 29.2761 10.9234 29.2517 10.9525C29.1405 11.0694 29.0296 11.1737 28.904 11.2754C28.7706 11.3901 28.6672 11.5114 28.5563 11.6478C28.4325 11.7787 28.3021 11.8973 28.1652 12.0142C28.0166 12.1433 27.8975 12.2771 27.7741 12.4301C27.6502 12.5609 27.5198 12.6796 27.3829 12.7965C27.2343 12.9256 27.1152 13.0594 26.9918 13.2124C26.8188 13.3954 26.6302 13.5601 26.4442 13.7296C26.3081 13.853 26.1799 13.9821 26.053 14.1142C25.9318 14.2389 25.8222 14.3428 25.6762 14.4393C25.5567 14.5054 25.5567 14.5054 25.5189 14.6018C25.4663 14.7044 25.4228 14.7318 25.3285 14.7948C25.173 14.9 25.0682 15.0221 24.9509 15.1699C24.827 15.3007 24.6966 15.4193 24.5597 15.5362C24.4111 15.6653 24.292 15.7992 24.1686 15.9522C24.0447 16.083 23.9143 16.2016 23.7774 16.3185C23.6288 16.4476 23.5097 16.5815 23.3863 16.7344C23.2616 16.8661 23.1303 16.9856 22.9925 17.1039C22.8609 17.2177 22.7552 17.3359 22.6475 17.4733C22.5758 17.5319 22.5036 17.5898 22.4302 17.6471C22.3937 17.6845 22.3567 17.7223 22.3189 17.761C22.2129 17.8644 22.2129 17.8644 22.1207 17.9079C22.0295 17.947 22.0295 17.947 21.9821 18.0543C21.9056 18.1734 21.8726 18.1947 21.7513 18.2556C21.5957 18.3264 21.5957 18.3264 21.564 18.462C21.5631 18.4942 21.5623 18.5263 21.561 18.5598C21.5018 18.5772 21.5018 18.5772 21.4419 18.595C21.3128 18.6419 21.2302 18.6893 21.1263 18.7771C21.1668 19.0817 21.2563 19.2595 21.474 19.4725C21.5244 19.5224 21.5244 19.5224 21.5753 19.5737L21.6913 19.6898C21.7339 19.7324 21.7765 19.7749 21.8191 19.8171L22.3319 20.3299C22.405 20.4029 22.4771 20.4773 22.5484 20.552C22.6366 20.6572 22.6366 20.6572 22.7357 20.6472C22.7461 20.6711 22.7561 20.6954 22.7661 20.7202C22.8383 20.8484 22.9282 20.9362 23.033 21.0392C23.0534 21.0601 23.0738 21.0805 23.0951 21.1014C23.1607 21.1665 23.2268 21.2313 23.2928 21.2961C23.3367 21.3395 23.3802 21.383 23.4241 21.4264C23.5054 21.5068 23.5866 21.5872 23.6679 21.6672C23.7444 21.7433 23.8209 21.8193 23.8965 21.8958C23.9791 21.9775 24.0547 22.0401 24.1512 22.1031C24.2859 22.1961 24.3737 22.2987 24.4741 22.4291C24.5606 22.5021 24.6475 22.5747 24.7349 22.6464C24.8648 22.7694 24.983 22.8989 25.0991 23.0345C25.2203 23.1749 25.3481 23.2948 25.4902 23.413C25.6436 23.5412 25.7757 23.6855 25.9031 23.8385C26.0152 23.9715 26.1365 24.0823 26.2708 24.1927C26.3429 24.2544 26.3429 24.2544 26.4629 24.3765C26.5554 24.4804 26.5554 24.4804 26.6906 24.5152C26.7097 24.5647 26.7097 24.5647 26.7288 24.6156C26.7897 24.7612 26.8657 24.819 26.9948 24.9063H27.0817C27.0935 24.9324 27.1048 24.9585 27.1161 24.985C27.1726 25.0867 27.2252 25.1367 27.3155 25.2075C27.412 25.2866 27.4811 25.3514 27.5572 25.4522C27.6619 25.576 27.7714 25.6395 27.9101 25.7212C28.0274 25.7964 28.1161 25.892 28.2117 25.9928C28.2552 26.0285 28.2982 26.0645 28.3421 26.1015C28.5159 26.2462 28.6685 26.4001 28.8115 26.5752C28.9001 26.6804 28.991 26.7712 29.0966 26.859C29.3686 27.0941 29.6181 27.3544 29.8702 27.6065C29.9214 27.6578 29.9723 27.7091 30.0231 27.7604C30.117 27.8542 30.2105 27.9485 30.3043 28.0424C30.4634 28.2028 30.6225 28.3623 30.7824 28.5205C30.8311 28.5692 30.8797 28.6174 30.9289 28.6661C30.9532 28.69 30.978 28.7143 31.0032 28.7391C31.1092 28.8451 31.2079 28.9473 31.2991 29.0668C31.3895 29.1741 31.4765 29.2311 31.5994 29.2963C31.6234 29.2671 31.6473 29.238 31.6716 29.2085C31.7042 29.1685 31.7372 29.1281 31.7707 29.0872C31.8063 29.0433 31.8424 28.9994 31.8789 28.9542C31.9497 28.8682 32.0206 28.7826 32.0919 28.6965C32.6134 28.0663 33.0741 27.3927 33.4696 26.6799C33.5139 26.6017 33.5591 26.5239 33.6047 26.4466C34.4435 25.0167 34.965 23.4304 35.291 21.7963C35.2975 21.7654 35.3036 21.7346 35.3101 21.7028C35.4796 20.8597 35.5252 20.0383 35.5226 19.1778C35.5222 19.0079 35.5226 18.8384 35.5231 18.6693C35.5235 17.7871 35.4535 16.957 35.2749 16.0921C35.2675 16.056 35.2601 16.02 35.2523 15.983C34.9529 14.5401 34.4744 13.1103 33.7746 11.8108C33.7486 11.7621 33.7486 11.7621 33.7221 11.7126C33.523 11.3436 33.3227 10.9781 33.0788 10.6391C33.0554 10.6052 33.0319 10.5713 33.008 10.5361C32.7073 10.0754 32.7073 10.0754 32.3561 9.65387C32.2974 9.59476 32.2974 9.59476 32.2405 9.4696C32.1536 9.30836 32.0475 9.23187 31.9063 9.1167C31.8485 9.02978 31.7907 8.94286 31.7324 8.85594C31.6438 8.80465 31.6438 8.80465 31.5586 8.76902L31.5542 8.78162ZM19.3419 20.6898C19.3275 20.7472 19.3136 20.8045 19.2984 20.8636C19.251 20.8754 19.2037 20.8867 19.1545 20.8988C18.9772 20.9505 18.9772 20.9505 18.8638 21.0809C18.8529 21.1948 18.8529 21.1948 18.8638 21.2982C18.8034 21.3047 18.8034 21.3048 18.7417 21.3117C18.6004 21.3421 18.5561 21.3582 18.4727 21.4721C18.4583 21.5151 18.4444 21.5581 18.4292 21.6025C18.3566 21.6533 18.3566 21.6533 18.2666 21.7028C18.0937 21.805 17.9894 21.9223 17.8642 22.0805C17.7786 22.154 17.6917 22.2265 17.6034 22.2978C17.4731 22.4217 17.354 22.5521 17.2371 22.689C17.1084 22.8376 16.975 22.958 16.8212 23.0801C16.7425 23.1479 16.7425 23.1479 16.6908 23.2105V23.2974C16.6669 23.3061 16.6425 23.3152 16.6178 23.3244C16.5048 23.3917 16.4396 23.4743 16.3587 23.5764C16.2649 23.6855 16.1497 23.7703 16.0389 23.8624C15.9811 23.9345 15.9228 24.0071 15.865 24.0797C15.7933 24.1384 15.7212 24.1962 15.6477 24.2535C15.5747 24.3253 15.5026 24.3974 15.4304 24.4708C15.3031 24.6004 15.1753 24.7299 15.0475 24.8589C15.0141 24.8933 14.9806 24.9276 14.9463 24.9628C14.7433 25.1675 14.536 25.3474 14.2987 25.5148C14.1844 25.6026 14.0805 25.6895 13.9784 25.7916C13.8919 25.8785 13.8063 25.9555 13.712 26.0332C13.5699 26.1536 13.4599 26.2827 13.3426 26.4274C13.2178 26.5591 13.0866 26.6786 12.9488 26.7968C12.8171 26.9107 12.7115 27.0289 12.6038 27.1663C12.5316 27.2241 12.459 27.2819 12.3864 27.3401C12.3278 27.4118 12.27 27.484 12.2126 27.5574C12.0605 27.7182 11.8966 27.8629 11.7302 28.0094C11.6202 28.1063 11.6202 28.1063 11.5185 28.2115V28.2984C11.492 28.3088 11.4651 28.3197 11.4373 28.331C11.3391 28.3775 11.3391 28.3775 11.3012 28.4722C11.2578 28.5592 11.2578 28.5592 11.1813 28.5948C11.0544 28.6617 10.974 28.7513 10.8749 28.8551C10.7497 28.9838 10.6302 29.1024 10.4811 29.2028C10.3473 29.2967 10.2704 29.3867 10.1713 29.5153C10.0996 29.574 10.0274 29.6318 9.95397 29.6891C9.82445 29.8121 9.70624 29.9416 9.5902 30.0772C9.46591 30.222 9.33422 30.3437 9.18428 30.4614C9.16603 30.4793 9.14734 30.4966 9.12822 30.5149V30.6018C9.09084 30.6192 9.09084 30.6192 9.0526 30.637C8.95046 30.6909 8.86528 30.7404 8.78053 30.8191V30.993C8.85181 31.0594 8.85181 31.0594 8.94916 31.1125C9.10345 31.2081 9.24382 31.3089 9.38377 31.4245C9.56543 31.5723 9.75275 31.6988 9.9531 31.8222C10.1096 31.9204 10.2634 32.0225 10.4181 32.1255C10.4607 32.1538 10.4607 32.1538 10.5037 32.1825C10.6176 32.2585 10.731 32.3346 10.8427 32.4137C11.1226 32.6101 11.4294 32.7548 11.7337 32.9048C11.8184 32.9469 11.9027 32.99 11.9866 33.0334C14.8028 34.4937 18.0711 34.9544 21.2002 34.6458C21.2489 34.641 21.2971 34.6362 21.3471 34.6315C22.0338 34.5611 22.6987 34.425 23.368 34.2573C23.4232 34.2434 23.4232 34.2434 23.4793 34.2295C24.1834 34.0513 24.8657 33.8218 25.548 33.5602C25.578 33.5484 25.608 33.5371 25.6388 33.525C25.7275 33.4911 25.8157 33.4563 25.904 33.4215C25.9557 33.4011 26.0074 33.3807 26.0608 33.3598C26.1882 33.3046 26.299 33.2412 26.4172 33.169C26.5233 33.1156 26.6289 33.0634 26.7354 33.0113C27.3873 32.6888 28.0131 32.3246 28.6042 31.903C28.7128 31.8265 28.8219 31.7509 28.9318 31.6762C29.187 31.501 29.436 31.3193 29.675 31.1242C29.7411 31.0716 29.7411 31.0716 29.8084 31.0182C29.8363 30.9956 29.8641 30.9734 29.8923 30.9504C29.8376 30.7813 29.7858 30.6939 29.6316 30.6027H29.5446C29.5333 30.5766 29.522 30.5501 29.5103 30.5231C29.4551 30.4236 29.4056 30.3762 29.3169 30.3067C29.2048 30.215 29.11 30.122 29.0179 30.0103C28.9145 29.8851 28.8049 29.7891 28.6754 29.69C28.6033 29.6174 28.5307 29.5449 28.4581 29.4727C28.3716 29.4001 28.2847 29.3275 28.1974 29.2554C28.1652 29.2219 28.133 29.1889 28.1 29.155C28.0309 29.0716 28.0309 29.0716 27.9366 29.0816C27.927 29.0572 27.917 29.0329 27.907 29.0081C27.8336 28.879 27.7428 28.7895 27.6324 28.6904H27.5455C27.535 28.6652 27.5242 28.64 27.5133 28.6144C27.4503 28.5014 27.3786 28.431 27.2847 28.3427L25.7201 26.7782C25.6827 26.7412 25.6449 26.7047 25.6063 26.6665C25.5028 26.5609 25.5028 26.5609 25.4159 26.4305C25.3903 26.4196 25.3642 26.4087 25.3372 26.3979C25.2334 26.3383 25.2016 26.2923 25.1364 26.194C25.0426 26.0545 24.9548 25.992 24.8074 25.9089C24.7496 25.8364 24.6918 25.7638 24.6336 25.6916C24.6006 25.6717 24.5675 25.6517 24.5332 25.6312C24.2307 25.4496 23.9813 25.1836 23.764 24.9098C23.6401 24.779 23.5097 24.6599 23.3728 24.543C23.2242 24.4143 23.1051 24.2805 22.9817 24.1275C22.9104 24.0541 22.8378 23.9815 22.7644 23.9102C21.1998 22.3456 21.1998 22.3456 21.1085 22.25C21.0281 22.164 21.0281 22.164 20.8964 22.1305C20.8278 22.0553 20.7674 21.9762 20.7052 21.8954C20.6248 21.815 20.5705 21.8076 20.4618 21.7828C20.4445 21.7328 20.4445 21.7328 20.4266 21.6824C20.3627 21.5368 20.2819 21.5073 20.1441 21.4369C20.0381 21.3712 19.9929 21.2852 19.9403 21.1744C19.9116 21.2174 19.8834 21.2604 19.8534 21.3047C19.8295 21.2387 19.8295 21.2387 19.8047 21.1713C19.7261 20.9884 19.6144 20.8267 19.4622 20.6976H19.3319L19.3419 20.6898Z" fill="#000100"/>
</svg>
