<svg width="37" height="36" viewBox="0 0 37 36" fill="none" xmlns="http://www.w3.org/2000/svg">
<path d="M1.66702 4.98792C1.69956 4.99519 1.69956 4.99519 1.73273 5.00277C1.92199 5.05933 2.08344 5.1816 2.2035 5.33452C2.30271 5.54242 2.36085 5.75474 2.40729 5.97906C2.41709 6.02583 2.41709 6.02583 2.42751 6.07353C2.449 6.17527 2.47048 6.27732 2.49165 6.37938C2.50713 6.45141 2.5223 6.52345 2.53778 6.59549C2.58454 6.81697 2.63098 7.03782 2.67743 7.25898C2.69165 7.32723 2.70586 7.39516 2.7204 7.4634C2.78675 7.77936 2.85278 8.09847 2.91882 8.41758C2.96747 8.65328 3.01708 8.88835 3.067 9.12531C3.07584 9.1667 3.07584 9.1667 3.08469 9.20872C3.11186 9.337 3.13935 9.46496 3.16684 9.59418C3.3147 10.2861 3.3147 10.2861 3.30933 10.58C3.4354 10.513 3.51186 10.4412 3.59969 10.3291C3.62402 10.2984 3.64866 10.2675 3.67394 10.2359C3.69953 10.2033 3.72512 10.1711 3.75166 10.1376C3.80538 10.0722 3.8594 10.0071 3.91343 9.94204C3.93776 9.91298 3.96209 9.88391 3.98705 9.85389C4.55576 9.18408 5.25717 8.43211 6.18607 8.34681C6.85589 8.29878 7.393 8.53922 7.92064 8.94079C7.9377 8.95375 7.95477 8.9667 7.97246 8.97997C8.07672 9.06149 8.15571 9.14869 8.23659 9.25295L8.29979 9.28455V9.34774C8.33106 9.35817 8.36234 9.36859 8.39457 9.37933C8.44891 9.43431 8.44891 9.43431 8.50515 9.50192C8.5813 9.5926 8.5813 9.5926 8.6625 9.67822C8.72348 9.74015 8.77561 9.80682 8.829 9.87506C8.92695 9.9986 9.02774 10.1187 9.13232 10.2352C9.18192 10.2912 9.23058 10.3477 9.27923 10.4046C9.29472 10.4226 9.3102 10.4406 9.326 10.4593C9.35885 10.4975 9.39171 10.5363 9.42394 10.5752C9.55127 10.7256 9.68934 10.857 9.83784 10.9859C9.91145 11.0517 9.91145 11.0517 9.97686 11.1186C10.0344 11.1749 10.0859 11.2112 10.1563 11.2491C10.1901 11.2675 10.2239 11.2855 10.259 11.3044V11.3676H10.417C10.4293 11.3379 10.4293 11.3379 10.4419 11.3076C10.4802 11.2412 10.4802 11.2412 10.5889 11.1919C10.8776 11.0589 11.1007 10.7528 11.3029 10.5158C11.3449 10.4659 11.3873 10.416 11.4293 10.3664C11.4593 10.3303 11.4896 10.2946 11.52 10.2589C11.6274 10.1313 11.7377 10.0065 11.8517 9.88296C11.9073 9.81945 11.9073 9.81946 11.9519 9.73857C11.9974 9.66432 12.0356 9.62388 12.1035 9.5708C12.1822 9.50666 12.2485 9.44221 12.313 9.36354C12.4182 9.23747 12.5357 9.13416 12.6637 9.02863C12.6915 9.00462 12.7193 8.98029 12.7477 8.95564C12.9579 8.78187 13.1743 8.65423 13.4207 8.53859C13.4492 8.525 13.4776 8.51142 13.5067 8.49751C13.7746 8.37429 14.0059 8.36039 14.2997 8.35881C14.3322 8.35818 14.3651 8.35755 14.3986 8.35692C14.743 8.35502 15.0052 8.44823 15.3022 8.61758C15.3395 8.6378 15.3395 8.6378 15.3777 8.65865C15.5019 8.72847 15.5869 8.78377 15.6675 8.90383C15.7269 8.93953 15.7269 8.93953 15.7919 8.96512C15.9117 9.02105 15.9676 9.08108 16.0466 9.18818C16.0807 9.21852 16.1158 9.24821 16.1512 9.27697C16.3319 9.42799 16.4734 9.61187 16.6188 9.79513C16.7069 9.90603 16.7979 10.0062 16.8993 10.1051C16.9398 10.1487 16.9799 10.1929 17.0197 10.2375C17.039 10.2586 17.058 10.2801 17.0775 10.3019C17.1205 10.3578 17.1205 10.3578 17.1205 10.421H17.1837C17.2134 10.4668 17.2431 10.5123 17.2722 10.5585C17.3344 10.6441 17.4175 10.7032 17.4997 10.7686C17.5531 10.8207 17.6055 10.8732 17.6576 10.9265C17.6858 10.954 17.7136 10.9812 17.7426 11.0093C17.8156 11.0845 17.8156 11.0845 17.8788 11.1793C17.936 11.2156 17.936 11.2156 18.0014 11.2444C18.0226 11.2545 18.044 11.2646 18.0662 11.2754C18.0876 11.2852 18.1094 11.2953 18.1316 11.3057C18.1739 11.3265 18.2159 11.3477 18.2579 11.3689C18.2744 11.3449 18.2905 11.3205 18.3072 11.2959C18.385 11.2103 18.4393 11.1856 18.5448 11.1455C18.8273 11.0093 19.044 10.7 19.221 10.4504C19.2838 10.3708 19.3562 10.3022 19.4279 10.2305C19.4728 10.1771 19.5167 10.1231 19.5603 10.0687C19.6655 9.93888 19.7726 9.81187 19.8826 9.68644C19.9214 9.64284 19.9214 9.64284 19.9612 9.59829C20.0266 9.53447 20.0266 9.53447 20.0898 9.53447C20.1028 9.50635 20.1028 9.50635 20.1157 9.4776C20.1524 9.40935 20.1887 9.36385 20.2427 9.30888C20.2693 9.28171 20.2693 9.28171 20.2965 9.25422C20.8367 8.7171 21.3928 8.35376 22.1701 8.35692C22.202 8.35628 22.2339 8.35597 22.2667 8.35534C22.5514 8.35502 22.826 8.39609 23.0693 8.55628C23.1536 8.61062 23.2313 8.6577 23.322 8.70035C23.4225 8.75407 23.4847 8.82358 23.565 8.90383C23.6019 8.92594 23.6395 8.94711 23.6775 8.96702C23.7896 9.0321 23.8335 9.08771 23.9125 9.18818C23.9745 9.23558 24.0373 9.28013 24.1021 9.32341C24.1842 9.39418 24.2326 9.47665 24.2917 9.56733C24.3413 9.62483 24.3918 9.68138 24.4436 9.73731C24.5372 9.8381 24.6301 9.9392 24.7201 10.0431C24.8038 10.1398 24.8891 10.2349 24.9748 10.3294C25.0515 10.4144 25.1277 10.4997 25.2 10.5882C25.3274 10.7405 25.4714 10.8694 25.6202 10.9989C25.6806 11.0526 25.6806 11.0526 25.7634 11.1395C25.8455 11.2172 25.9251 11.2599 26.0281 11.3054V11.3686C26.127 11.3575 26.1574 11.3341 26.2297 11.2618C26.3125 11.179 26.3125 11.179 26.3994 11.1376C26.6196 11.0232 26.7848 10.8514 26.9112 10.6416C26.9978 10.53 27.0834 10.4337 27.1956 10.3474C27.2825 10.2792 27.3273 10.2046 27.3814 10.1082C27.4742 9.94426 27.5874 9.8422 27.7321 9.72593C27.8164 9.64537 27.8919 9.56575 27.9652 9.47507C28.0401 9.38313 28.1251 9.30951 28.2161 9.23368C28.2742 9.18597 28.2742 9.18597 28.3422 9.11583L28.4272 9.03084C28.4458 9.0103 28.4644 8.99008 28.4837 8.96891C28.9134 8.53606 29.5327 8.34017 30.1267 8.33385C30.5216 8.34112 30.8375 8.49846 31.1756 8.6814C31.2176 8.70257 31.2597 8.72405 31.302 8.74459V8.80778C31.3203 8.81663 31.339 8.82516 31.3579 8.83432C31.5968 8.95849 31.7813 9.15343 31.9645 9.34616C31.9898 9.37144 32.0154 9.39671 32.0416 9.42262C32.2625 9.64505 32.4682 9.87759 32.6609 10.124C32.8438 10.3575 32.8438 10.3575 33.0685 10.5474C33.0713 10.5259 33.0742 10.5044 33.077 10.4823C33.1269 10.1285 33.2066 9.78091 33.2836 9.43336C33.3124 9.30224 33.3411 9.17112 33.3699 9.04158C33.3803 8.99419 33.3803 8.99419 33.3911 8.94553C33.4391 8.72658 33.4855 8.50636 33.5304 8.28835C33.5734 8.07983 33.6179 7.8713 33.6644 7.66277C33.6697 7.63939 33.6751 7.61569 33.6805 7.59137C33.7026 7.49342 33.7244 7.39516 33.7465 7.29721C33.8043 7.04003 33.8609 6.78221 33.9102 6.52313C33.914 6.50196 33.9181 6.48111 33.9222 6.45931C33.926 6.43877 33.9301 6.41824 33.9339 6.39707C34.1253 5.39234 34.1253 5.39234 34.4394 5.11115C34.6533 4.97876 34.9386 4.93674 35.185 4.97466C35.459 5.04132 35.6779 5.23847 35.8296 5.47386C36.0305 5.8688 35.8552 6.45331 35.7598 6.85773C35.7316 6.9781 35.7042 7.0988 35.677 7.21791C35.671 7.24508 35.6647 7.27225 35.6583 7.30006C35.5534 7.76767 35.4583 8.23527 35.361 8.70288C35.2564 9.20525 35.1493 9.70761 35.0356 10.21C34.9999 10.3698 34.9655 10.5291 34.932 10.6902C34.9241 10.7275 34.9241 10.7275 34.9162 10.7657C34.9114 10.7885 34.9067 10.8109 34.9019 10.8343C34.8116 11.2671 34.7196 11.6968 34.623 12.1297C34.6182 12.1515 34.6135 12.173 34.6084 12.1954L34.5781 12.33C34.4511 12.8987 34.3301 13.4674 34.2116 14.0361C34.1967 14.1063 34.1819 14.1764 34.1674 14.2469C34.1601 14.2813 34.1525 14.3161 34.1452 14.3515C34.0732 14.6927 33.9999 15.0339 33.9263 15.3751C33.8457 15.7511 33.7658 16.124 33.6938 16.4999C33.6552 16.6987 33.611 16.8949 33.5658 17.0939C33.4748 17.492 33.3895 17.887 33.3045 18.2851C33.2878 18.3625 33.2713 18.4399 33.2549 18.5173C33.1314 19.0955 33.0094 19.6737 32.8884 20.2519C32.7664 20.8332 32.6432 21.4114 32.5187 21.9928C32.5111 22.0291 32.5032 22.0654 32.4953 22.1027C32.4176 22.4629 32.3396 22.8262 32.2609 23.1896C32.198 23.478 32.1364 23.7678 32.0761 24.0553C32.0489 24.1845 32.0217 24.314 31.9946 24.4439C31.9892 24.4695 31.9838 24.4951 31.9781 24.5216C31.9096 24.8471 31.8394 25.1725 31.7696 25.5011C31.7209 25.7263 31.6729 25.9497 31.6246 26.1772C31.6066 26.2622 31.5882 26.3469 31.5702 26.4319L31.4015 27.2186C31.3766 27.3349 31.3516 27.4511 31.3266 27.5661C31.3143 27.623 31.3023 27.6799 31.29 27.7367C31.2173 28.078 31.1437 28.4192 31.0688 28.7573C31.0296 28.937 30.9936 29.1175 30.9589 29.2975C30.9263 29.4631 30.8928 29.6293 30.8581 29.7936C30.8511 29.8265 30.8445 29.8593 30.8372 29.8931C30.6625 30.7051 30.6625 30.7051 30.3064 30.9547C30.0164 31.059 29.6745 31.0312 29.3681 31.0305C29.3282 31.0305 29.2884 31.0309 29.247 31.0309H28.9185C28.7984 31.0309 28.6783 31.0312 28.5583 31.0312C28.3207 31.0315 28.0843 31.0315 27.8442 31.0315C27.5592 31.0315 27.2755 31.0318 26.9912 31.0318C26.3024 31.0324 25.6136 31.0328 24.928 31.0328C24.6026 31.0328 24.2771 31.0331 23.9517 31.0331C22.8364 31.0334 21.7242 31.0337 20.6026 31.034H20.3928H20.1827H19.7593H19.6538C18.5227 31.034 17.3916 31.0346 16.2731 31.0353C15.0788 31.0362 13.8814 31.0365 12.6713 31.0365H12.2764H12.1787C11.6574 31.0365 11.1392 31.0372 10.6179 31.0375C10.0966 31.0378 9.57212 31.0381 9.0508 31.0378C8.74022 31.0378 8.42838 31.0378 8.11874 31.0384C7.91148 31.0384 7.70485 31.0384 7.49632 31.0381C7.37815 31.0381 7.25999 31.0381 7.14246 31.0384C7.01513 31.0388 6.8878 31.0384 6.76015 31.0381C6.7235 31.0384 6.68685 31.0388 6.64894 31.0388C6.41798 31.0375 6.20029 31.0192 6.00756 30.8827C5.67581 30.4877 5.59682 29.9759 5.49572 29.4862C5.48055 29.4151 5.46538 29.3443 5.45022 29.2732C5.40599 29.0679 5.36302 28.8625 5.32005 28.6571C5.31152 28.616 5.31152 28.616 5.30267 28.574C5.26065 28.3715 5.21863 28.1696 5.17755 27.9674C5.1131 27.6514 5.04517 27.3323 4.97629 27.0164C4.88435 26.593 4.7943 26.1696 4.70584 25.7463C4.57756 25.1301 4.44613 24.514 4.31406 23.8979C4.25719 23.6341 4.20063 23.3703 4.14408 23.1049L4.091 22.8585C4.0357 22.6006 3.98104 22.3435 3.9267 22.0844C3.88152 21.8689 3.83539 21.6547 3.788 21.4398C3.73808 21.2127 3.69069 20.9849 3.64582 20.7574C3.60506 20.5504 3.56115 20.3435 3.51344 20.1381C3.42149 19.74 3.33682 19.3388 3.2512 18.9407C3.23887 18.8822 3.22655 18.8241 3.21391 18.7656C3.20791 18.7369 3.20159 18.7078 3.19527 18.6781C3.15515 18.4898 3.11439 18.3021 3.07363 18.1125C3.06826 18.0882 3.06289 18.0639 3.05752 18.0386C3.04962 18.0023 3.04962 18.0023 3.04141 17.9653C2.95168 17.5514 2.86352 17.1375 2.77885 16.7236C2.69102 16.2939 2.60002 15.8642 2.50745 15.4345C2.49481 15.3767 2.48249 15.3186 2.47017 15.2608C2.46353 15.2301 2.4569 15.1998 2.45026 15.1682C2.38675 14.8737 2.3242 14.5805 2.26132 14.2835C1.99213 13.0166 1.99213 13.0166 1.71788 11.7496C1.7122 11.7243 1.70651 11.6991 1.70082 11.6728C1.69545 11.6482 1.69008 11.6235 1.68439 11.5979C1.55233 11.0008 1.42595 10.4005 1.30209 9.80018C1.27713 9.68044 1.25217 9.56101 1.22753 9.44C1.21805 9.39576 1.21805 9.39576 1.20889 9.3509C1.13685 9.00651 1.06355 8.66212 0.983614 8.31774C0.932113 8.09436 0.885037 7.86909 0.83954 7.64476C0.802889 7.4672 0.764975 7.2909 0.724533 7.11396C0.700837 7.01033 0.677773 6.90701 0.654392 6.80338C0.643018 6.75283 0.631328 6.70196 0.619321 6.65141C0.512846 6.19644 0.418376 5.72883 0.678404 5.30546C0.905573 5.00973 1.30399 4.90736 1.65785 4.9895L1.66702 4.98792ZM6.27991 10.2643C6.23789 10.3073 6.23789 10.3073 6.19492 10.3512C6.13173 10.3932 6.06854 10.4356 6.00535 10.4776C5.95132 10.5288 5.89855 10.5815 5.84737 10.6356C5.68939 10.7935 5.68939 10.7935 5.6142 10.8646C5.52257 10.9607 5.44422 11.063 5.36365 11.1686C5.29888 11.2501 5.22684 11.3212 5.15228 11.3938C5.1191 11.4311 5.08624 11.4687 5.0537 11.5063C4.81926 11.7758 4.57661 12.0371 4.32385 12.2899C4.29289 12.3212 4.29289 12.3212 4.26129 12.3528C4.12101 12.493 3.97504 12.6251 3.82528 12.754C3.88721 13.0731 3.95166 13.3922 4.02465 13.7082C4.09005 13.9913 4.15197 14.2737 4.21232 14.5581C4.21927 14.5903 4.21927 14.5903 4.22591 14.6229C4.28657 14.9085 4.34565 15.1947 4.40379 15.4791C4.41011 15.5097 4.41611 15.5404 4.42274 15.572C4.45339 15.7224 4.48372 15.8731 4.51405 16.0238C4.57093 16.3047 4.63064 16.5862 4.69762 16.8642C4.7447 17.0617 4.78609 17.2592 4.82653 17.4582C4.84296 17.5385 4.85939 17.6184 4.87582 17.6987C4.88024 17.7198 4.88467 17.741 4.88909 17.7628C4.94564 18.0374 5.00473 18.3125 5.06349 18.5843C5.06918 18.6121 5.07518 18.6396 5.08119 18.668C5.15449 19.0092 5.22811 19.3504 5.30204 19.6917C5.33174 19.8288 5.36144 19.9659 5.39114 20.1024C5.3984 20.1362 5.40599 20.1703 5.41357 20.2051C5.5232 20.7138 5.63031 21.2225 5.73268 21.7311C5.78323 21.9807 5.83758 22.2303 5.89697 22.4768C5.94816 22.6929 5.99113 22.9096 6.03347 23.1276C6.0897 23.4152 6.14942 23.7027 6.21703 23.987C6.31909 24.4199 6.41008 24.8559 6.50139 25.2888C6.59459 25.7311 6.68875 26.1734 6.78448 26.6158C6.79428 26.6616 6.80407 26.7071 6.81418 26.7529C6.85273 26.9317 6.89159 27.1099 6.93045 27.29C6.95762 27.4145 6.98448 27.5393 7.01165 27.6628C7.02018 27.7023 7.02871 27.7421 7.03756 27.7829C7.10296 28.0884 7.16299 28.3958 7.21828 28.7023C7.22713 28.7497 7.22713 28.7497 7.23598 28.798C7.24103 28.8255 7.24609 28.853 7.25114 28.8814C7.26947 28.9671 7.26947 28.9671 7.33266 29.0821H29.1017L29.1649 28.8609C29.1788 28.8138 29.1788 28.8138 29.193 28.7655C29.2793 28.4625 29.3352 28.1557 29.3908 27.8461C29.424 27.6622 29.4591 27.4827 29.5106 27.3026C29.587 27.0338 29.6369 26.7592 29.6906 26.4843C29.7586 26.1368 29.8341 25.7955 29.9115 25.4512C29.9485 25.2878 29.9838 25.1226 30.018 24.9583C30.1447 24.3516 30.2761 23.745 30.4066 23.1416C30.4951 22.734 30.5829 22.3232 30.6704 21.9157C30.7456 21.565 30.8208 21.2142 30.8966 20.8635C31.1623 19.6313 31.4243 18.4023 31.6834 17.1669C31.7096 17.0412 31.7358 16.9154 31.7623 16.7909C31.7671 16.7672 31.7721 16.7438 31.7772 16.7195C31.8638 16.3088 31.9541 15.8949 32.0451 15.4841C32.1377 15.0639 32.2265 14.6437 32.3127 14.2203C32.3661 13.9587 32.4205 13.6959 32.477 13.4368C32.4833 13.4083 32.4893 13.3799 32.4957 13.3505C32.5017 13.324 32.5074 13.2978 32.5134 13.2706C32.5187 13.2459 32.5241 13.221 32.5298 13.1957C32.5459 13.1259 32.5649 13.0576 32.5841 12.9888C32.6154 12.8475 32.6154 12.8475 32.5778 12.7139C32.5203 12.6422 32.4637 12.5777 32.4002 12.5123C32.3829 12.4943 32.3658 12.4763 32.3481 12.458C32.2985 12.4061 32.2486 12.3546 32.1987 12.3031C32.175 12.2782 32.151 12.2529 32.1266 12.2273C32.0783 12.1774 32.0281 12.1294 31.9775 12.082H31.9143C31.9061 12.063 31.8979 12.0441 31.8894 12.0245C31.8483 11.9502 31.8091 11.9145 31.7424 11.8627C31.6483 11.7859 31.5974 11.7126 31.5352 11.6081C31.5099 11.5945 31.4843 11.5806 31.4581 11.5667C31.3687 11.5076 31.3557 11.4782 31.314 11.3831C31.2856 11.3161 31.2856 11.3161 31.2508 11.2605C31.1699 11.2349 31.1699 11.2349 31.0928 11.2289C31.0612 11.1736 31.0612 11.1736 31.0296 11.1025C30.9778 11.0491 30.9251 10.9967 30.8717 10.9446C30.8353 10.9025 30.799 10.8605 30.763 10.8182C30.6695 10.7101 30.5725 10.6229 30.4609 10.5338L30.3346 10.4074C30.2821 10.3651 30.2293 10.3231 30.1766 10.2811C30.1444 10.2501 30.1124 10.2188 30.0818 10.1863L29.9554 10.2495V10.3127C29.9273 10.3199 29.8995 10.3269 29.8704 10.3345C29.7507 10.3818 29.6935 10.4387 29.6079 10.5338C29.5519 10.592 29.4992 10.639 29.4341 10.688C29.3516 10.7502 29.3516 10.7502 29.3077 10.8378C29.2603 10.913 29.2603 10.913 29.1794 10.9408C29.1538 10.9525 29.1286 10.9641 29.1023 10.9762C29.0919 11.0125 29.0815 11.0491 29.0707 11.0867C29.0603 11.1231 29.0499 11.1597 29.0392 11.1973C28.9602 11.2409 28.9602 11.2409 28.8812 11.2605L28.818 11.2921C28.8107 11.3215 28.8038 11.3509 28.7962 11.3809C28.7472 11.4997 28.6986 11.5193 28.5864 11.5742C28.5033 11.6273 28.4796 11.7104 28.4388 11.7976C28.3861 11.8292 28.3336 11.8608 28.2809 11.8924C28.2594 11.9366 28.2594 11.9366 28.2373 11.9818C28.1842 12.0858 28.1355 12.1389 28.0477 12.2144C28.006 12.2504 28.006 12.2504 27.9633 12.2874C27.9172 12.3265 27.9172 12.3265 27.8701 12.3663C27.8363 12.396 27.8028 12.4254 27.769 12.4551C27.3014 12.8659 26.8212 13.1313 26.1893 13.1344C26.1444 13.135 26.0995 13.1357 26.0544 13.1369C25.552 13.1505 25.0812 13.0276 24.6863 12.6978C24.6503 12.6621 24.6168 12.6242 24.5836 12.5856C24.5337 12.5303 24.5337 12.5303 24.4888 12.4908H24.4256C24.418 12.4731 24.4108 12.4551 24.4029 12.4368C24.3533 12.3483 24.2929 12.2889 24.2203 12.2185C24.1921 12.1907 24.1643 12.1632 24.1353 12.1347C24.1059 12.1063 24.0768 12.0779 24.0465 12.0485C23.9884 11.9919 23.9305 11.9354 23.8727 11.8785C23.8471 11.8536 23.8212 11.8286 23.7947 11.803C23.7356 11.7382 23.7049 11.6839 23.6673 11.6062C23.6433 11.5932 23.619 11.5799 23.5944 11.5667C23.5059 11.5092 23.4819 11.4741 23.4304 11.385C23.3647 11.2719 23.3078 11.2283 23.1934 11.1638C23.1501 11.1016 23.1081 11.0381 23.067 10.9743C23.0149 10.9209 22.9625 10.8684 22.9091 10.8163C22.8869 10.7875 22.8648 10.7588 22.8421 10.7294C22.7868 10.6504 22.7868 10.6504 22.6879 10.6267C22.6506 10.58 22.613 10.5332 22.5761 10.4861C22.5258 10.4327 22.4784 10.404 22.4133 10.3702C22.3125 10.313 22.28 10.2918 22.2456 10.1844C22.1056 10.1999 22.0573 10.2431 21.9612 10.3424C21.9141 10.3638 21.9141 10.3638 21.8664 10.386C21.7514 10.4482 21.7154 10.518 21.6453 10.6267C21.5925 10.6583 21.54 10.6899 21.4873 10.7215L21.4241 10.8163C21.3609 10.9111 21.3609 10.9111 21.28 10.9585C21.1953 11.0011 21.1953 11.0011 21.1574 11.0968C21.0977 11.2163 21.0216 11.2697 20.9186 11.3534C20.9021 11.3815 20.886 11.4093 20.8693 11.4384C20.8238 11.5114 20.8238 11.5114 20.7448 11.5392C20.6273 11.5919 20.6184 11.6791 20.571 11.7957C20.5034 11.8728 20.4311 11.9382 20.3533 12.0049C20.2506 12.093 20.1543 12.1777 20.0693 12.2836C19.9499 12.428 19.8042 12.5366 19.6554 12.6501C19.6298 12.6693 19.6045 12.6886 19.578 12.7085C19.1515 13.0197 18.7818 13.135 18.2605 13.135C18.2213 13.1357 18.1824 13.136 18.142 13.1366C17.6396 13.1369 17.2163 13.0276 16.8434 12.6817C16.8099 12.6539 16.7764 12.6261 16.7426 12.5989C16.6665 12.5344 16.5967 12.4687 16.5275 12.3973L16.2431 12.1129C16.221 12.0921 16.1989 12.0712 16.1761 12.0498C16.1167 11.9866 16.1167 11.9866 16.0889 11.9215C16.0558 11.8504 16.0558 11.8504 15.9607 11.8166C15.8412 11.7534 15.8273 11.6943 15.7692 11.5758C15.731 11.5622 15.731 11.5622 15.6921 11.548C15.5793 11.4987 15.5629 11.427 15.5193 11.3161C15.4738 11.2419 15.4403 11.2485 15.3585 11.2283C15.3149 11.1711 15.3149 11.1711 15.2776 11.1019C15.2204 10.9916 15.2204 10.9916 15.1057 10.9439C15.0845 10.8915 15.0634 10.8387 15.0425 10.786C14.9686 10.7 14.9297 10.664 14.8213 10.628C14.7784 10.5809 14.7784 10.5809 14.7345 10.5234C14.6668 10.4406 14.6074 10.3863 14.5133 10.3357C14.4106 10.2804 14.4106 10.2804 14.3474 10.1856C14.2305 10.1992 14.1657 10.2593 14.0795 10.3354C14.0315 10.3752 14.0315 10.3752 13.9446 10.4226C13.8665 10.4646 13.8665 10.4646 13.8419 10.5509C13.8103 10.628 13.8103 10.628 13.7351 10.6596C13.7079 10.67 13.6804 10.6804 13.6523 10.6912C13.5553 10.7872 13.5553 10.7872 13.5259 10.9123C13.4972 10.9174 13.4684 10.9228 13.4391 10.9281C13.3105 10.9875 13.2924 11.0416 13.2432 11.1689C13.2015 11.2434 13.1591 11.2555 13.0836 11.2915C13.07 11.3221 13.0561 11.3528 13.0422 11.3844C12.9888 11.481 12.9888 11.481 12.8763 11.5265C12.8403 11.5427 12.8046 11.5591 12.7677 11.5758C12.7449 11.6491 12.7241 11.7227 12.7045 11.797C12.6116 11.864 12.6116 11.864 12.5149 11.9234C12.4915 11.9635 12.4915 11.9635 12.4675 12.0043C12.4201 12.0814 12.4201 12.0814 12.3253 12.1268C12.2062 12.1888 12.1936 12.2475 12.1358 12.3657C12.0741 12.4099 12.0106 12.452 11.9462 12.4921L11.8653 12.573C11.791 12.6472 11.7193 12.6915 11.6302 12.7448V12.808C11.6094 12.8163 11.5885 12.8242 11.567 12.8327C11.4947 12.8621 11.4233 12.8927 11.3519 12.9246C11.3301 12.9344 11.3086 12.9439 11.2865 12.954C11.2416 12.9739 11.1971 12.9938 11.1525 13.014C11.1203 13.0286 11.1203 13.0286 11.0871 13.0431C11.058 13.0561 11.058 13.0561 11.0287 13.0696C10.8135 13.149 10.5832 13.1297 10.3588 13.13C10.3181 13.1303 10.2776 13.1306 10.2359 13.1309C9.91051 13.1316 9.65142 13.0968 9.36075 12.9483C9.33926 12.9373 9.31746 12.9262 9.29535 12.9151C8.98793 12.7537 8.72348 12.5234 8.50547 12.2548C8.44481 12.1825 8.38383 12.1202 8.31021 12.0614C8.22301 11.9894 8.1614 11.9174 8.09284 11.8283C8.02744 11.7607 7.95982 11.6956 7.89126 11.6308C7.82333 11.5594 7.77025 11.4918 7.7137 11.4115C7.63692 11.3054 7.58289 11.2754 7.46093 11.228C7.43977 11.1648 7.41891 11.1016 7.39774 11.0384C7.35288 10.9986 7.3077 10.9591 7.25967 10.9228C7.20438 10.8773 7.16236 10.8292 7.11718 10.7736C6.95857 10.5834 6.76647 10.4324 6.56426 10.2871C6.51182 10.2473 6.51182 10.2473 6.44863 10.1841C6.34815 10.173 6.34815 10.173 6.28086 10.2552L6.27991 10.2643Z" fill="#000100"/>
<path d="M20.6873 15.3826C21.3792 15.3684 22.0617 15.5766 22.5703 16.0619C23.237 16.7918 23.5371 17.7649 23.5782 18.738C23.5883 18.9782 23.6026 19.2183 23.6228 19.4553C23.6256 19.5541 23.6256 19.5541 23.6108 19.6413C23.5965 19.7285 23.5909 19.8066 23.5896 19.8944C23.5716 20.9055 23.2872 22.0366 22.5501 22.7759C22.0035 23.2941 21.3179 23.49 20.5786 23.4805C19.8898 23.4568 19.3116 23.174 18.8408 22.678C17.8424 21.5879 17.8551 20.0398 17.912 18.6654C17.9556 17.8028 18.2137 16.9371 18.7903 16.2799C18.8083 16.2575 18.8266 16.2354 18.8453 16.2123C19.2371 15.7384 19.8152 15.4698 20.4219 15.4035C20.511 15.3981 20.5997 15.3953 20.6888 15.3918L20.6873 15.3826ZM20.1786 17.0919C19.5277 17.9766 19.5593 19.4079 19.7047 20.441C19.7246 20.5658 19.7473 20.6897 19.7726 20.8138C19.7792 20.8473 19.7792 20.8473 19.7862 20.8811C19.8579 21.2255 19.9653 21.5857 20.2285 21.8353C20.262 21.8685 20.262 21.8685 20.2964 21.9026C20.4882 22.0451 20.7103 22.0438 20.941 22.0208C21.1795 21.9633 21.317 21.7765 21.4465 21.5784C21.6004 21.3039 21.644 21.0129 21.6869 20.7064C21.6989 20.6319 21.7147 20.5595 21.7315 20.4862C21.7672 20.3093 21.7713 20.1387 21.7707 19.9586C21.7707 19.9254 21.771 19.8919 21.771 19.8578C21.771 19.7876 21.7707 19.7175 21.7707 19.6474C21.7703 19.5421 21.7707 19.4366 21.771 19.3314C21.7865 18.096 21.7865 18.096 21.2623 17.0344C21.0749 16.8607 20.9179 16.793 20.662 16.8006C20.4693 16.8224 20.3113 16.9548 20.1817 17.0926L20.1786 17.0919Z" fill="#000100"/>
<path d="M14.0839 15.5408C14.38 15.5401 14.6748 15.5395 14.9718 15.5392C15.1092 15.5389 15.2466 15.5389 15.3825 15.5383C15.5152 15.5379 15.6476 15.5379 15.7806 15.5379C15.8311 15.5376 15.882 15.5376 15.9326 15.5373H16.1449C16.185 15.537 16.2254 15.537 16.2672 15.537C16.3572 15.5408 16.3572 15.5408 16.3888 15.5724C16.392 15.6302 16.3926 15.6883 16.3926 15.7465V15.8612C16.3926 15.9032 16.3926 15.9455 16.3923 15.9879V16.1205C16.3923 16.2409 16.3923 16.3613 16.392 16.4807C16.392 16.6062 16.3916 16.7319 16.3916 16.8567C16.3916 17.0946 16.3913 17.3338 16.391 17.5708C16.3907 17.8415 16.3907 18.1142 16.3904 18.3828C16.3901 18.9388 16.3894 19.4981 16.3888 20.0573C16.4144 20.057 16.4397 20.057 16.4662 20.0567C16.5812 20.056 16.6962 20.0557 16.8106 20.0554C16.8507 20.0551 16.8908 20.0548 16.9322 20.0545C16.9705 20.0545 17.0087 20.0545 17.0482 20.0541C17.0836 20.0541 17.119 20.0538 17.1553 20.0538C17.2409 20.0573 17.2409 20.0573 17.3041 20.0889V21.4791H16.3878V23.3116C16.1303 23.3176 15.8728 23.3233 15.6074 23.3293C15.4861 23.3321 15.4861 23.3321 15.362 23.3353C15.2975 23.3366 15.233 23.3381 15.1689 23.3394C15.1354 23.3404 15.1022 23.341 15.0678 23.3419C15.0359 23.3426 15.0037 23.3432 14.9708 23.3438C14.9291 23.3448 14.9291 23.3448 14.8868 23.3457C14.8078 23.3432 14.8078 23.3432 14.6498 23.3116L14.6182 21.5107C14.5092 21.4889 14.4286 21.475 14.3215 21.4743C14.2947 21.474 14.2681 21.4737 14.2403 21.4734C14.2116 21.4734 14.1825 21.4731 14.1528 21.4731C14.1218 21.4728 14.0912 21.4725 14.0596 21.4725C13.9926 21.4718 13.926 21.4712 13.8593 21.4709C13.7541 21.4702 13.6485 21.4693 13.5433 21.4683C13.2817 21.4661 13.0189 21.4642 12.7598 21.4623C12.5386 21.4608 12.3174 21.4592 12.0963 21.4573C11.992 21.4563 11.8881 21.4557 11.7838 21.4551C11.7206 21.4544 11.6571 21.4541 11.5936 21.4535C11.5645 21.4535 11.5355 21.4532 11.5054 21.4532C11.3061 21.451 11.3061 21.451 11.271 21.4159C11.2097 20.7903 11.1873 20.2279 11.5933 19.7192C11.8056 19.4384 11.9724 19.1189 12.1494 18.8156C12.3007 18.5587 12.4536 18.3038 12.6138 18.051C12.7342 17.8605 12.8479 17.6656 12.9614 17.4728C13.035 17.3468 13.1095 17.2213 13.1844 17.0968C13.2021 17.0675 13.2021 17.0675 13.2204 17.0371C13.2928 16.9167 13.3667 16.7973 13.4413 16.6769C13.5629 16.4804 13.677 16.2788 13.792 16.0798C13.81 16.0485 13.8277 16.0169 13.846 15.9844C13.9285 15.8381 14.0075 15.6912 14.0823 15.542L14.0839 15.5408ZM14.5263 17.1521C14.5218 17.1995 14.5218 17.1995 14.5174 17.2479C14.4981 17.3812 14.4447 17.4921 14.3822 17.6112C14.3708 17.633 14.3598 17.6545 14.3484 17.6769C14.3133 17.7449 14.2776 17.8125 14.2419 17.8798C14.2305 17.9013 14.2192 17.9231 14.2071 17.9452C14.1531 18.0472 14.0988 18.1493 14.0438 18.251C14.003 18.3275 13.9639 18.4039 13.926 18.482C13.7509 18.8358 13.5405 19.1644 13.3225 19.493C13.211 19.6652 13.1171 19.8374 13.0407 20.027C13.0723 20.0655 13.0723 20.0655 13.1361 20.0624C13.1781 20.0624 13.1781 20.0624 13.2207 20.062H13.3168C13.3512 20.062 13.3854 20.0617 13.4211 20.0617C13.4558 20.0617 13.4909 20.0614 13.5269 20.0614C13.6394 20.0614 13.7519 20.0611 13.865 20.0605C13.9411 20.0605 14.0169 20.0601 14.0931 20.0601C14.2795 20.0598 14.4659 20.0592 14.6523 20.0586C14.653 19.7395 14.6536 19.4203 14.6539 19.1012C14.6542 18.9531 14.6542 18.8052 14.6549 18.6557C14.6552 18.5126 14.6552 18.3692 14.6552 18.2261C14.6555 18.1717 14.6555 18.1174 14.6558 18.063C14.6564 17.7676 14.6526 17.4753 14.6207 17.1815C14.5894 17.1711 14.5582 17.1607 14.5259 17.1499L14.5263 17.1521Z" fill="#000100"/>
<path d="M16.8643 25.0193C16.9673 25.0743 17.0579 25.1356 17.1486 25.2089C17.1676 25.2234 17.1865 25.2376 17.2061 25.2525C17.4339 25.4484 17.6327 25.8338 17.6611 26.1308C17.6731 26.4847 17.6807 26.788 17.4971 27.104C17.4851 27.127 17.4728 27.1501 17.4605 27.1738C17.2551 27.5371 16.936 27.7235 16.5505 27.8594C16.1303 27.9725 15.7575 27.8689 15.391 27.6588C15.2971 27.5991 15.2289 27.5381 15.1572 27.4525C15.1395 27.4319 15.1215 27.4117 15.1032 27.3905C14.7651 26.983 14.743 26.5406 14.7777 26.0319C14.8378 25.6876 15.0333 25.3526 15.3054 25.1315C15.7635 24.8348 16.367 24.7966 16.863 25.0209L16.8643 25.0193Z" fill="#000100"/>
<path d="M21.0032 25.0508C21.0648 25.096 21.1211 25.1434 21.1783 25.1943C21.2035 25.2129 21.2291 25.2312 21.2557 25.2505C21.4607 25.4294 21.6127 25.7371 21.6474 26.0088C21.655 26.1504 21.6607 26.2916 21.6629 26.4322C21.6636 26.4587 21.6639 26.4853 21.6645 26.5127C21.6639 26.8824 21.4819 27.1952 21.2317 27.4638C20.9599 27.7146 20.5682 27.9093 20.1922 27.9124C20.0955 27.8985 20.0077 27.8764 19.9144 27.848C19.8778 27.8382 19.8415 27.8281 19.8039 27.8179C19.3837 27.689 19.1025 27.4104 18.8939 27.0312C18.7126 26.6426 18.7205 26.1308 18.862 25.7295C19.0175 25.3851 19.2885 25.1071 19.6361 24.9649C20.0563 24.8063 20.6092 24.8202 21.001 25.0524L21.0032 25.0508Z" fill="#000100"/>
<path d="M25.2369 13.7714C25.2811 13.8093 25.3244 13.8482 25.367 13.888C25.3876 13.906 25.4081 13.924 25.4293 13.9423C25.6925 14.1862 25.7958 14.5079 25.8179 14.8617C25.8252 15.3515 25.6959 15.6959 25.3566 16.056C25.052 16.3376 24.6615 16.4289 24.2571 16.4225C23.9127 16.4033 23.5715 16.2504 23.3345 15.996C23.0208 15.6105 22.9238 15.1619 22.968 14.6753C22.9971 14.5417 23.0391 14.421 23.0944 14.2962C23.1061 14.2703 23.1174 14.2441 23.1291 14.2175C23.2925 13.8889 23.5904 13.7183 23.9159 13.5698C24.3361 13.4482 24.889 13.5092 25.2397 13.7692L25.2369 13.7714ZM23.7361 14.4728C23.7099 14.5193 23.6846 14.5666 23.6609 14.615C23.6394 14.6589 23.6394 14.6589 23.6176 14.7038C23.5721 14.9357 23.5591 15.1714 23.6821 15.3799C23.8195 15.5669 23.9734 15.718 24.2065 15.7685C24.434 15.8026 24.6331 15.7698 24.8321 15.6519C25.0267 15.5038 25.1399 15.2823 25.1797 15.0422C25.1929 14.8248 25.1218 14.5872 24.9872 14.4166C24.8258 14.275 24.5702 14.136 24.3553 14.117C24.1092 14.1685 23.8846 14.2624 23.7392 14.4741L23.7361 14.4728Z" fill="#000100"/>
</svg>
