<svg width="38" height="48" viewBox="0 0 38 48" fill="none" xmlns="http://www.w3.org/2000/svg">
<path d="M19.0003 25.7693C22.9767 25.7693 26.2003 22.6008 26.2003 18.6924C26.2003 14.7839 22.9767 11.6154 19.0003 11.6154C15.0238 11.6154 11.8003 14.7839 11.8003 18.6924C11.8003 22.6008 15.0238 25.7693 19.0003 25.7693Z" stroke="#133447" stroke-width="2" stroke-linecap="round" stroke-linejoin="round"/>
<path d="M37 18.6923C37 34.6154 19 47 19 47C19 47 1 34.6154 1 18.6923C1 14 2.89642 9.49991 6.27208 6.18196C9.64773 2.86401 14.2261 1 19 1C23.7739 1 28.3523 2.86401 31.7279 6.18196C35.1036 9.49991 37 14 37 18.6923Z" stroke="#133447" stroke-width="2" stroke-linecap="round" stroke-linejoin="round"/>
</svg>
