<svg width="37" height="36" viewBox="0 0 37 36" fill="none" xmlns="http://www.w3.org/2000/svg">
<path d="M1.14961 5.28461H1.46815V5.34831C1.54174 5.35883 1.61532 5.36934 1.69114 5.38017V5.44388C1.71025 5.44834 1.72936 5.45312 1.74879 5.45789C1.80454 5.47223 1.85965 5.48943 1.91412 5.50759V5.63501H1.97783C2.04631 5.7379 2.04791 5.77134 2.04154 5.88984H2.10524C2.12117 5.98445 2.12117 5.98445 2.1371 6.08097H2.20081V6.36766H2.26452V6.65435H2.32823C2.33078 6.69194 2.33332 6.72921 2.33619 6.76776C2.35562 6.95188 2.4085 7.12453 2.46074 7.30291C2.48782 7.42014 2.49228 7.52239 2.4875 7.64057H2.55121C2.55312 7.66542 2.55503 7.69027 2.55694 7.71607C2.55981 7.74824 2.56236 7.78041 2.56523 7.81386C2.56777 7.84603 2.57032 7.87821 2.57287 7.91134C2.57446 7.98906 2.57446 7.98906 2.61492 8.02283C2.62097 8.06583 2.62511 8.10915 2.62893 8.15216C2.63881 8.25314 2.6541 8.34711 2.68054 8.4449C2.7057 8.54492 2.71685 8.62169 2.71048 8.72363H2.77419V9.01032H2.8379V9.36072H2.90161C2.9032 9.38334 2.9048 9.40627 2.90639 9.42953C2.92009 9.60664 2.9478 9.764 2.99717 9.93283C2.9994 10.0071 3.00036 10.0816 2.99717 10.1558H3.06088V10.4425H3.12459V10.7292H3.1883C3.1969 10.7601 3.2055 10.791 3.2141 10.8228C3.2329 10.8709 3.2329 10.8709 3.25201 10.9203C3.28355 10.9308 3.31508 10.9413 3.34757 10.9522V10.8566H3.41128V10.7929H3.50685V10.7292H3.57056V10.6336H3.63427V10.5381C3.67823 10.4842 3.67823 10.4842 3.72983 10.4425H3.79354L3.85725 10.2832H3.92096V10.2195H3.98467L4.01652 10.0921H4.08023L4.14394 9.93283H4.20765V9.86912H4.27136V9.80541H4.33507V9.7417C4.37903 9.6901 4.37903 9.6901 4.43063 9.64614H4.49434V9.58243H4.55805V9.51872C4.69757 9.42316 4.69757 9.42316 4.78103 9.42316V9.35945H4.84474V9.29574H4.94031V9.23203C5.00338 9.211 5.06645 9.18998 5.13143 9.16832V9.10461C5.21043 9.08868 5.21043 9.08868 5.29071 9.07276V9.00905H5.41812V8.94534L5.55765 8.89756C5.58345 8.88864 5.60925 8.87972 5.63601 8.8708C5.70482 8.84977 5.70482 8.84977 5.76853 8.84977V8.78606H5.99151V8.72236H6.6286V8.78606H6.91529V8.84977C7.03092 8.88131 7.14656 8.91285 7.26569 8.94534V9.00905H7.42497V9.07276H7.48867V9.13647C7.52626 9.15112 7.52626 9.15112 7.56449 9.16641C7.64795 9.20017 7.64795 9.20017 7.71166 9.23203V9.29574H7.77537V9.35945C7.79448 9.36327 7.81359 9.36741 7.83302 9.37155C7.90278 9.3913 7.90278 9.3913 7.99835 9.45501V9.51872H8.06206V9.58243H8.12577V9.64614H8.18948C8.24108 9.6901 8.24108 9.6901 8.28504 9.7417V9.80541H8.34875V9.86912H8.41246V9.93283H8.47617C8.52777 9.97679 8.52777 9.97679 8.57173 10.0284V10.0921H8.63544V10.1558H8.69915C8.79471 10.2953 8.79471 10.2953 8.79471 10.3788H8.85842V10.4425H8.92213V10.5062H8.98584V10.5699H9.04955C9.10116 10.6139 9.10116 10.6139 9.14511 10.6655V10.7292H9.20882C9.24992 10.7757 9.24992 10.7757 9.29228 10.8369C9.30662 10.8566 9.32095 10.8767 9.33561 10.8971C9.3681 10.9522 9.3681 10.9522 9.3681 11.0159H9.43181V11.0796H9.49552V11.1433H9.55922C9.64268 11.2188 9.64268 11.2188 9.7185 11.3026V11.3663H9.78221V11.43H9.84592C9.89752 11.474 9.89752 11.474 9.94148 11.5256V11.5893H10.0052V11.653H10.0689V11.7167C10.224 11.7896 10.3473 11.8056 10.5117 11.7485C10.534 11.738 10.5563 11.7275 10.5792 11.7167V11.653H10.6429V11.5893L10.8022 11.5256V11.4619H10.8659V11.3663H10.9296V11.3026H11.0252V11.2389H11.0889V11.1752H11.1526V11.0796H11.2163V11.0159H11.28V10.9522L11.4074 10.8248L11.4393 10.7292H11.503V10.6655C11.5788 10.5817 11.5788 10.5817 11.6623 10.5062H11.726V10.4425H11.7897C11.7983 10.4189 11.8069 10.395 11.8155 10.3708C11.8518 10.2867 11.8881 10.224 11.949 10.1558H12.0127V10.0921H12.0764V10.0284H12.1401L12.1719 9.93283H12.2356V9.86912H12.2994V9.80541H12.3631V9.70985H12.4268V9.64614H12.5223V9.58243H12.586V9.51872H12.6498V9.45501C12.6915 9.40341 12.6915 9.40341 12.7453 9.35945H12.8409V9.29574H12.9365V9.23203C13.076 9.13647 13.076 9.13647 13.1594 9.13647V9.07276H13.2869V9.00905C13.3668 8.97146 13.4471 8.93419 13.5277 8.89756C13.5503 8.88704 13.5726 8.87621 13.5958 8.86538C13.7456 8.79785 13.8555 8.77396 14.0195 8.78606V8.72236H14.6566V8.78606H14.9433V8.84977C15.0589 8.88131 15.1746 8.91285 15.2937 8.94534V9.00905H15.3893V9.07276H15.5167V9.13647H15.5804V9.20017C15.618 9.21483 15.618 9.21483 15.6562 9.23012C15.7397 9.26388 15.7397 9.26388 15.8034 9.29574V9.35945C15.833 9.3741 15.833 9.3741 15.8633 9.38939C15.9069 9.41105 15.9505 9.43303 15.9945 9.45501V9.51872H16.0901V9.58243H16.1538V9.64614H16.2175C16.3009 9.72163 16.3009 9.72163 16.3767 9.80541V9.86912H16.4405V9.93283H16.5042V10.0284H16.5679V10.0921H16.6316L16.6634 10.2195H16.7271V10.2832H16.7909C16.8743 10.3587 16.8743 10.3587 16.9501 10.4425V10.5062H17.0138V10.6018H17.0776V10.6655H17.1413L17.1731 10.7929H17.2368V10.8566H17.3005L17.3642 11.0159H17.428V11.0796H17.5235V11.1433H17.5872V11.2389H17.6509V11.3026H17.7146V11.3663H17.8102V11.43H17.8739V11.5256H17.9376V11.5893H18.0013V11.653H18.0969V11.7167H18.1606V11.7804C18.2552 11.7909 18.3498 11.8014 18.4473 11.8123V11.7485C18.5104 11.7326 18.5104 11.7326 18.5747 11.7167V11.653H18.6703V11.5893H18.734V11.5256C18.8098 11.4418 18.8098 11.4418 18.8933 11.3663H18.957V11.3026H19.0207V11.2389C19.0965 11.1551 19.0965 11.1551 19.18 11.0796H19.2437V11.0159H19.3074V10.9203H19.3711L19.401 10.8604C19.4227 10.8168 19.4447 10.7732 19.4666 10.7292H19.5304V10.6655H19.5941V10.5699H19.6578V10.5062H19.7533L19.817 10.3151H19.9126L19.9445 10.1558H20.04V10.0921H20.1037V9.99654H20.1674V9.93283H20.2312V9.86912H20.3267L20.3904 9.70985H20.4541V9.64614H20.5179V9.58243H20.6134V9.51872H20.6771V9.45501H20.7408V9.35945H20.8364V9.29574C20.931 9.2642 20.931 9.2642 21.0275 9.23203V9.16832C21.1349 9.09091 21.1782 9.07276 21.3142 9.07276V9.00905H21.4098V8.94534C21.4748 8.91826 21.5397 8.89182 21.6047 8.8657C21.641 8.85105 21.6774 8.83608 21.7146 8.82079C21.8223 8.7867 21.9032 8.77937 22.015 8.78606V8.72236H22.5884V8.78606C22.6085 8.78447 22.6285 8.7832 22.6492 8.7816C22.8588 8.77269 22.9837 8.81027 23.1621 8.91348C23.2357 8.94693 23.3102 8.97783 23.3851 9.00905V9.07276C23.4185 9.07658 23.4185 9.07658 23.4526 9.08072C23.5663 9.11034 23.6428 9.16099 23.7355 9.23203V9.29574H23.831V9.35945H23.8948V9.42316L24.0222 9.45501V9.51872H24.0859V9.58243H24.1815V9.64614H24.2452V9.7417H24.3089V9.80541H24.3726V9.86912H24.4363V9.93283H24.5319V10.0284H24.5956L24.6274 10.1558H24.6911V10.2195H24.7548V10.2832H24.8185V10.3788H24.8823V10.4425H24.946V10.5062H25.0097C25.111 10.582 25.1349 10.6744 25.1689 10.7929H25.2327V10.8566C25.2642 10.8671 25.2957 10.8776 25.3282 10.8885V10.9522H25.3919V11.0159H25.4556V11.0796H25.5193C25.5709 11.1236 25.5709 11.1236 25.6149 11.1752V11.2389H25.6786V11.3026H25.7423V11.3663H25.806V11.43C25.8376 11.4405 25.8691 11.451 25.9016 11.4619V11.5256H25.9653V11.5893H26.029V11.653H26.0927V11.7167C26.289 11.7896 26.4103 11.8046 26.6024 11.7167V11.653H26.6661V11.5893H26.7617V11.5256H26.8254V11.4619C26.8693 11.4102 26.8693 11.4102 26.9209 11.3663H26.9847V11.3026H27.0484V11.2389H27.1121V11.1433H27.1758V11.0796H27.2395V11.0159C27.2835 10.9643 27.2835 10.9643 27.3351 10.9203H27.3988V10.7929H27.4625V10.7292H27.558L27.6217 10.5699H27.6855V10.5062H27.7492L27.781 10.3788H27.8447L27.9084 10.2195H27.9721V10.1558H28.0359V10.0921C28.0798 10.0405 28.0798 10.0405 28.1314 9.99654H28.1951V9.93283H28.2588V9.86912H28.3226V9.80541H28.3863L28.4181 9.70985H28.4818V9.64614H28.5455V9.58243H28.6092V9.51872C28.6851 9.43494 28.6851 9.43494 28.7685 9.35945H28.8322V9.29574H28.9596V9.23203H29.0552V9.16832L29.1826 9.13647V9.07276H29.31V9.00905H29.4056V8.94534C29.4343 8.9361 29.4343 8.9361 29.4639 8.92654C29.5021 8.91412 29.5021 8.91412 29.541 8.90138C29.5662 8.89341 29.5913 8.88513 29.6171 8.87685C29.6923 8.85168 29.6923 8.85168 29.7579 8.81505C29.8519 8.77109 29.9408 8.78224 30.0427 8.78606V8.72236H30.6161V8.78606H30.9028V8.84977C30.9764 8.86029 31.0499 8.8708 31.1258 8.88163V8.94534C31.1493 8.9498 31.1732 8.95458 31.1974 8.95935C31.2697 8.97401 31.3411 8.99057 31.4124 9.00905V9.07276H31.5399C31.5956 9.1164 31.5956 9.1164 31.6354 9.16832V9.23203H31.7628V9.29574H31.8266V9.35945C31.8533 9.37219 31.8533 9.37219 31.8804 9.38525C31.9607 9.42666 32.0381 9.46839 32.1132 9.51872V9.58243H32.177V9.64614C32.2085 9.65665 32.24 9.66716 32.2725 9.67799V9.7417H32.3362V9.80541H32.3999V9.86912H32.4637V9.93283H32.5274L32.5592 9.99654C32.5907 10.0071 32.6223 10.0176 32.6548 10.0284C32.6586 10.0736 32.6586 10.0736 32.6627 10.1201C32.6707 10.1529 32.6784 10.1858 32.6866 10.2195C32.7487 10.2587 32.7487 10.2587 32.8141 10.2832L32.8459 10.3788H32.9096V10.4425H32.9733V10.5062H33.037C33.1326 10.6457 33.1326 10.6457 33.1326 10.7292H33.1963V10.7929H33.26C33.2743 10.8193 33.289 10.8455 33.304 10.8725C33.3209 10.899 33.3381 10.9251 33.3556 10.9522H33.483V10.6655H33.5467C33.5448 10.6085 33.5448 10.6085 33.5429 10.5502C33.5426 10.4275 33.5703 10.3355 33.6104 10.2189C33.6209 10.144 33.6283 10.0695 33.6343 9.99431C33.6423 9.93219 33.6423 9.93219 33.6741 9.86848C33.684 9.78598 33.6904 9.70348 33.6971 9.62034C33.706 9.54994 33.706 9.54994 33.7378 9.51808C33.7452 9.45915 33.7509 9.40022 33.7557 9.34097C33.7598 9.29255 33.7598 9.29255 33.764 9.24318C33.7668 9.20591 33.7668 9.20591 33.7697 9.16768H33.8334C33.8315 9.11735 33.8315 9.11735 33.8296 9.06607C33.8334 8.94789 33.8516 8.89182 33.8971 8.78543C33.9487 8.59621 33.9742 8.40636 33.9927 8.21204H34.0564V7.86164H34.1201C34.1233 7.82278 34.1268 7.78424 34.13 7.7441C34.1478 7.57973 34.1867 7.42237 34.2252 7.2631C34.2536 7.13377 34.2682 7.00698 34.2794 6.87447H34.3431V6.52407H34.4068C34.4049 6.47183 34.4049 6.47183 34.403 6.41863C34.4068 6.30109 34.4068 6.30109 34.4705 6.20552C34.4896 6.13512 34.5068 6.06377 34.5221 5.99241C34.5307 5.95483 34.539 5.91724 34.5473 5.87869C34.5536 5.84971 34.5597 5.82104 34.5661 5.79141H34.6298V5.69585H34.6935V5.56843H34.789V5.50472H34.8527V5.44101C35.0598 5.34545 35.0598 5.34545 35.2031 5.34545V5.28174H35.5535V5.34545C35.5806 5.348 35.6074 5.35086 35.6351 5.35341C35.7676 5.3824 35.853 5.43368 35.9664 5.50472V5.56843H36.0619V5.63214H36.1257V5.7277H36.1894V5.88698H36.2531C36.3496 6.10677 36.3499 6.22463 36.2942 6.46036C36.2859 6.49572 36.2776 6.53108 36.269 6.56771C36.2607 6.60307 36.2521 6.63874 36.2435 6.67506C36.2155 6.80534 36.2005 6.93276 36.1894 7.06369H36.1257V7.41409H36.0619C36.0629 7.44244 36.0629 7.44244 36.0642 7.47111C36.0677 7.61859 36.0623 7.72499 35.9982 7.85973C35.9428 8.02952 35.918 8.19102 35.9027 8.36941H35.839V8.71981H35.7753C35.7759 8.74338 35.7768 8.76663 35.7775 8.79084C35.7784 8.83735 35.7784 8.83735 35.7791 8.88513C35.78 8.91571 35.7807 8.94629 35.7816 8.97815C35.7749 9.07626 35.7488 9.13869 35.7115 9.22948C35.6915 9.31644 35.6768 9.40436 35.6619 9.49228C35.6201 9.73501 35.6201 9.73501 35.5841 9.77101C35.5768 9.82994 35.5711 9.88887 35.5663 9.94812C35.5621 9.99654 35.5621 9.99654 35.558 10.0459C35.5561 10.0708 35.5542 10.0956 35.5523 10.1214H35.4886C35.4892 10.1399 35.4902 10.1584 35.4908 10.1775C35.4943 10.3329 35.4835 10.4527 35.4249 10.598C35.3646 10.7572 35.3436 10.9076 35.3293 11.0758H35.2656V11.4262H35.2019C35.2028 11.4574 35.2028 11.4574 35.2041 11.4892C35.2051 11.531 35.2051 11.531 35.2057 11.5733C35.2066 11.6007 35.2073 11.6281 35.2082 11.6565C35.2009 11.7584 35.1719 11.8393 35.1382 11.9358C35.1117 12.0528 35.0882 12.1703 35.0643 12.2862C35.0426 12.3802 35.0426 12.3802 35.0107 12.4121C35.0034 12.4764 34.9977 12.5408 34.9929 12.6051C34.99 12.6405 34.9875 12.6755 34.9846 12.7118C34.9818 12.7526 34.9818 12.7526 34.9789 12.7943H34.9152C34.919 12.8526 34.919 12.8526 34.9231 12.9119C34.9241 13.0848 34.8725 13.2304 34.8183 13.3929C34.7788 13.5235 34.7651 13.6452 34.7559 13.7815H34.6922V14.1319H34.6285C34.6291 14.1501 34.6301 14.1682 34.6307 14.1867C34.6352 14.3797 34.6106 14.5403 34.531 14.7187C34.4944 14.8209 34.4858 14.9178 34.4772 15.0254C34.4692 15.0888 34.4692 15.0888 34.4374 15.1525C34.4304 15.2016 34.4243 15.2506 34.4195 15.2997C34.4154 15.3389 34.4154 15.3389 34.4112 15.3787C34.4084 15.4086 34.4084 15.4086 34.4055 15.4392H34.3418V15.7896H34.2781C34.2765 15.8091 34.2749 15.8282 34.2733 15.8482C34.2255 16.3834 34.2255 16.3834 34.1507 16.4598C34.1433 16.5188 34.1376 16.5777 34.1328 16.637C34.1287 16.6854 34.1287 16.6854 34.1245 16.7347C34.1217 16.772 34.1217 16.772 34.1188 16.8102H34.0551V17.1606H33.9914C33.9885 17.1906 33.9885 17.1906 33.9857 17.2212C33.9815 17.26 33.9815 17.26 33.9774 17.3002C33.9748 17.326 33.9723 17.3518 33.9697 17.3785C33.9595 17.4473 33.9595 17.4473 33.9277 17.511C33.9207 17.5601 33.9146 17.6092 33.9098 17.6582C33.9057 17.6974 33.9057 17.6974 33.9016 17.7372C33.8987 17.7672 33.8987 17.7672 33.8958 17.7977H33.8321V18.1481H33.7684V18.4667H33.7047C33.7066 18.5161 33.7066 18.5161 33.7085 18.5661C33.7047 18.6881 33.6799 18.7664 33.641 18.8808C33.6267 18.976 33.6171 19.0716 33.6091 19.1675H33.5454V19.4542H33.4817C33.4827 19.4883 33.4827 19.4883 33.484 19.523C33.4881 19.7425 33.4591 19.9148 33.3842 20.1218C33.3591 20.2034 33.346 20.2728 33.3365 20.3566C33.3224 20.4742 33.3224 20.4742 33.2906 20.506C33.2833 20.5595 33.2775 20.6134 33.2728 20.6672C33.2699 20.6965 33.2673 20.7258 33.2645 20.7561C33.2616 20.7898 33.2616 20.7898 33.2587 20.8246H33.195V21.175H33.1313C33.1285 21.2049 33.1285 21.2049 33.1256 21.2355C33.1214 21.2743 33.1214 21.2743 33.1173 21.3145C33.1148 21.3403 33.1122 21.3661 33.1097 21.3928C33.0995 21.4617 33.0995 21.4617 33.0676 21.5254C33.0606 21.5744 33.0546 21.6235 33.0498 21.6725C33.0456 21.7117 33.0456 21.7117 33.0415 21.7515C33.0386 21.7815 33.0386 21.7815 33.0358 21.8121H32.972V22.1943H32.9083V22.5129H32.8446C32.8465 22.5632 32.8465 22.5632 32.8485 22.6145C32.8446 22.7323 32.8242 22.7884 32.7809 22.8951C32.7663 22.9904 32.757 23.0859 32.7491 23.1818H32.6854C32.6857 23.2031 32.686 23.2242 32.6866 23.2461C32.6885 23.4602 32.6764 23.6698 32.6535 23.8832H32.5579C32.5598 23.9345 32.5598 23.9345 32.5618 23.9868C32.5579 24.1037 32.5449 24.1352 32.4942 24.2336C32.4872 24.2779 32.4812 24.3225 32.4764 24.3671C32.4624 24.4885 32.4624 24.4885 32.4305 24.5203C32.4232 24.5793 32.4175 24.6382 32.4127 24.6974C32.4098 24.7296 32.4073 24.7621 32.4044 24.7952C32.4025 24.8201 32.4006 24.8449 32.3987 24.8707H32.335V25.253H32.2712C32.2665 25.3132 32.2665 25.3132 32.2614 25.3744C32.2486 25.4919 32.2247 25.5996 32.1916 25.712C32.1438 25.8767 32.1228 26.0369 32.112 26.2089H32.0483V26.5593H31.9846C31.9826 26.5871 31.9826 26.5871 31.9811 26.6157C31.9658 26.8062 31.9285 26.9821 31.8794 27.1668C31.8492 27.2933 31.8361 27.4172 31.8253 27.5459H31.7616V27.8963H31.6979C31.6998 27.9457 31.6998 27.9457 31.7017 27.9957C31.6979 28.117 31.6743 28.197 31.6342 28.3104C31.6233 28.3846 31.6125 28.4588 31.6023 28.5334L31.5704 28.5652C31.5638 28.6181 31.5587 28.6713 31.5545 28.7245C31.5421 28.8803 31.5421 28.8803 31.5067 28.9156C31.4994 28.9746 31.4937 29.0335 31.4889 29.0927C31.486 29.1249 31.4835 29.1574 31.4806 29.1905C31.4787 29.2154 31.4768 29.2402 31.4749 29.266H31.4112C31.4131 29.3164 31.4131 29.3164 31.415 29.3677C31.4112 29.4852 31.3937 29.5429 31.3475 29.6483C31.2885 29.8493 31.2666 30.0433 31.2519 30.2535H31.1882V30.5721H31.1245C31.1283 30.6084 31.1283 30.6084 31.1324 30.6457C31.1229 30.7868 31.0799 30.8973 31.028 31.0279C30.9983 31.1095 30.9799 31.1872 30.9652 31.2726H30.9015V31.4H30.8378C30.8286 31.4191 30.8193 31.4382 30.8098 31.4576C30.7741 31.5274 30.7741 31.5274 30.7104 31.623H30.6148V31.6867C30.1434 31.8593 29.5668 31.7867 29.073 31.7864H28.7131C28.5038 31.7867 28.2926 31.7867 28.0856 31.7864H27.1522C26.5948 31.7867 26.0405 31.7867 25.483 31.7867C24.9957 31.7864 24.5083 31.7864 24.0209 31.7864H23.9231C23.7919 31.7864 23.6606 31.7864 23.5281 31.7867C22.2985 31.7867 21.0689 31.7867 19.833 31.7864H16.5519C15.3224 31.7867 14.096 31.7867 12.8568 31.7864H12.465H12.3672C11.8798 31.7864 11.3925 31.7864 10.9083 31.7867C10.354 31.7867 9.80291 31.7867 9.24864 31.7864H8.31849C8.11175 31.7867 7.90438 31.7864 7.69732 31.7864H7.34374H6.96148H6.85158C6.61076 31.7861 6.37376 31.772 6.13167 31.7504V31.6867H5.97239V31.623H5.90869V31.5592H5.84498V31.4637H5.78127C5.72966 31.428 5.72966 31.428 5.6857 31.3681C5.67965 31.2665 5.67965 31.2665 5.6857 31.177H5.62199C5.58536 31.0594 5.55542 30.9489 5.54236 30.8266C5.52579 30.6766 5.49043 30.5361 5.42704 30.3997C5.38754 30.2847 5.39487 30.1847 5.39901 30.0621H5.3353V29.7435H5.27159C5.26936 29.713 5.26936 29.713 5.26682 29.6817C5.25248 29.5139 5.22381 29.3641 5.17603 29.2007C5.17221 29.1071 5.17221 29.1071 5.17603 29.0415H5.11232V28.6911H5.04861V28.4044H4.9849C4.98299 28.377 4.98299 28.377 4.9814 28.3493C4.96579 27.967 4.96579 27.967 4.82563 27.6389C4.82117 27.5538 4.82435 27.4694 4.82563 27.3841H4.76192C4.76001 27.3614 4.7581 27.3388 4.75619 27.3156C4.75332 27.2863 4.75077 27.257 4.7479 27.2267C4.74536 27.1977 4.74281 27.1684 4.74026 27.1385C4.73771 27.0668 4.73771 27.0668 4.69821 27.0337C4.69152 26.968 4.68515 26.9027 4.67846 26.8371C4.65266 26.5492 4.65266 26.5492 4.53894 26.302C4.53448 26.2169 4.53766 26.1325 4.53894 26.0471H4.47523V25.6967H4.41152C4.40961 25.6684 4.40961 25.6684 4.40802 25.6394C4.39081 25.2954 4.39081 25.2954 4.25225 24.9959C4.25002 24.9421 4.2497 24.8883 4.25033 24.8347C4.25065 24.8054 4.25097 24.7761 4.25097 24.7459C4.25161 24.7232 4.25193 24.7006 4.25225 24.6774H4.18854C4.18663 24.6573 4.18471 24.6376 4.1828 24.6169C4.17994 24.5907 4.17739 24.5649 4.17452 24.5379C4.17197 24.5121 4.16942 24.4862 4.16688 24.4595C4.16019 24.3894 4.16019 24.3894 4.12483 24.327C4.12101 24.2868 4.11686 24.2467 4.11272 24.2056C4.09138 23.8775 4.09138 23.8775 3.96555 23.594C3.96332 23.5456 3.96301 23.4972 3.96364 23.4487C3.96396 23.4223 3.96428 23.3959 3.96428 23.3688C3.96492 23.3487 3.96524 23.3283 3.96555 23.3073H3.90185V23.0206H3.83814C3.83718 23.0002 3.83654 22.9795 3.83559 22.9585C3.82444 22.7814 3.79641 22.6272 3.74066 22.4584C3.68715 22.2972 3.66548 22.1714 3.67886 22.0029H3.61515V21.6843H3.55144C3.55049 21.6668 3.54985 21.6493 3.5489 21.6314C3.53329 21.4129 3.48105 21.211 3.41893 21.0039C3.39185 20.8873 3.38739 20.7854 3.39217 20.6662H3.32846V20.3158H3.26475C3.2622 20.2783 3.25934 20.241 3.25679 20.2024C3.24182 20.0597 3.20646 19.9256 3.16728 19.7883C3.1195 19.6198 3.09115 19.472 3.10548 19.2978H3.04177V18.9792H2.97806C2.97615 18.9566 2.97424 18.934 2.97233 18.9107C2.96946 18.8814 2.96691 18.8521 2.96405 18.8219C2.96022 18.7782 2.96022 18.7782 2.9564 18.7336C2.95385 18.662 2.95385 18.662 2.91435 18.6288C2.90257 18.5661 2.89205 18.503 2.8825 18.4396C2.86466 18.3068 2.86466 18.3068 2.81879 18.1829C2.81751 18.1086 2.81751 18.0341 2.81879 17.9599H2.75508C2.75317 17.9395 2.75126 17.9191 2.74935 17.8984C2.74648 17.872 2.74393 17.8455 2.74106 17.8184C2.73851 17.7923 2.73597 17.7662 2.73342 17.7391C2.72991 17.6735 2.72991 17.6735 2.69137 17.6413C2.68118 17.5591 2.67512 17.477 2.66843 17.3945C2.66716 17.3237 2.66716 17.3237 2.62766 17.2909C2.61587 17.2333 2.60536 17.1756 2.59581 17.1176C2.57637 16.9931 2.57637 16.9931 2.5321 16.8768C2.52987 16.8278 2.52955 16.7787 2.53019 16.7296C2.5305 16.7035 2.53082 16.6774 2.53082 16.6507C2.53146 16.6306 2.53178 16.6108 2.5321 16.5901H2.46839V16.3034H2.40468C2.40277 16.2786 2.40086 16.2537 2.39894 16.2279C2.39608 16.1958 2.39353 16.1636 2.39066 16.1301C2.38811 16.098 2.38557 16.0658 2.38302 16.0327C2.38142 15.9549 2.38142 15.9549 2.34097 15.9212C2.32918 15.8696 2.31867 15.818 2.30911 15.7657C2.29223 15.6759 2.27439 15.594 2.24541 15.5071C2.24126 15.422 2.24413 15.3376 2.24541 15.2522H2.1817V14.9337H2.11799C2.11544 14.8961 2.11289 14.8588 2.11002 14.8203C2.09059 14.6362 2.03771 14.4635 1.98547 14.2851C1.9584 14.1679 1.95394 14.0656 1.95871 13.9475H1.895V13.5971H1.8313C1.82938 13.5745 1.82747 13.5518 1.82556 13.5286C1.82269 13.4993 1.82015 13.47 1.81728 13.4397C1.81473 13.4107 1.81218 13.3814 1.80963 13.3515C1.80709 13.2798 1.80709 13.2798 1.76759 13.2467C1.7558 13.1957 1.74529 13.1447 1.73573 13.0934C1.71375 12.9769 1.71375 12.9769 1.68604 12.8615C1.66438 12.7673 1.67011 12.6739 1.67202 12.5777H1.60831V12.2592H1.5446C1.54365 12.242 1.54301 12.2251 1.54206 12.2076C1.5274 12.0018 1.48376 11.8094 1.42897 11.6119C1.39457 11.4842 1.37896 11.3711 1.38533 11.2392H1.32162V10.9206H1.25791V10.5702H1.1942C1.15343 10.3581 1.11966 10.1498 1.09864 9.93315H1.03493V9.58275H0.971221V9.23235H0.907511C0.904326 9.19285 0.900822 9.15335 0.897637 9.11289C0.884576 8.99057 0.858774 8.87717 0.825964 8.75931C0.776908 8.57487 0.7699 8.40253 0.780093 8.21459H0.684529C0.682618 8.19452 0.680707 8.17477 0.678795 8.15407C0.675928 8.12795 0.67338 8.10215 0.670513 8.07507C0.667965 8.04927 0.665416 8.02346 0.662868 7.99671C0.656179 7.92663 0.656179 7.92663 0.62082 7.86419C0.615086 7.81864 0.610626 7.77277 0.606804 7.7269C0.595655 7.61254 0.568578 7.52462 0.525256 7.41823C0.521434 7.31279 0.521434 7.31279 0.525256 7.2271H0.461547V6.90855H0.397838C0.395926 6.88148 0.394015 6.85408 0.392104 6.82605C0.389237 6.79101 0.386689 6.75565 0.383822 6.71934C0.381273 6.6843 0.378725 6.64926 0.376176 6.61294C0.375539 6.52917 0.375539 6.52916 0.334128 6.49444C0.331899 6.40844 0.331262 6.32338 0.332217 6.2377C0.332217 6.21349 0.332536 6.18928 0.332536 6.16443C0.332854 6.10454 0.333491 6.04466 0.334128 5.98477H0.397838V5.79364H0.461547V5.72993H0.525256L0.557111 5.63437H0.62082V5.57066H0.684529V5.50695H0.780093V5.44324C0.903052 5.37475 0.988741 5.33525 1.13049 5.34768V5.28397L1.14961 5.28461ZM6.05522 10.7317V10.7955H5.99151V10.8592C5.96666 10.8665 5.9415 10.8735 5.91569 10.8811C5.82523 10.9159 5.82523 10.9159 5.79051 11.0063C5.78318 11.0315 5.77585 11.0563 5.76853 11.0821H5.70482V11.1459C5.68443 11.1545 5.66404 11.1631 5.64302 11.1717C5.56689 11.2061 5.56689 11.2061 5.54554 11.3051H5.48183V11.3688H5.41812V11.4325H5.35442C5.26936 11.5068 5.26936 11.5068 5.19514 11.5918V11.6555H5.13143V11.7192H5.06772C4.99382 11.8218 4.99382 11.8218 4.97216 11.9422H4.90845V12.0059H4.84474V12.0696H4.78103C4.7084 12.1595 4.7084 12.1595 4.71732 12.2608C4.63832 12.2767 4.63832 12.2767 4.55805 12.2926V12.3563H4.49434V12.4519H4.43063V12.5156H4.33507V12.5793H4.27136V12.643H4.20765V12.7386H4.14394V12.8023H4.08023C4.02703 12.8447 4.02703 12.8447 3.98467 12.8979V12.9616H3.92096V13.0253H3.85725V13.089H3.76168V13.2164H3.69798V13.3757H3.76168C3.76105 13.3983 3.76009 13.4212 3.75946 13.4445C3.75531 13.664 3.7843 13.8363 3.85916 14.0433C3.89547 14.1615 3.90822 14.2727 3.92096 14.3969H3.98467C3.98435 14.4218 3.98403 14.4466 3.98339 14.4724C3.98339 14.5046 3.98307 14.5368 3.98276 14.5702C3.98244 14.6024 3.9818 14.6346 3.98148 14.6677C3.97543 14.7454 3.97543 14.7454 4.01652 14.7792C4.02098 14.8241 4.02385 14.8693 4.0264 14.9146C4.04201 15.091 4.0917 15.249 4.14649 15.4147C4.1793 15.522 4.19714 15.6221 4.20765 15.7332H4.27136C4.27104 15.7581 4.27072 15.7829 4.27008 15.8087C4.27008 15.8409 4.26977 15.8731 4.26945 15.9065C4.26913 15.9387 4.26849 15.9709 4.26817 16.004C4.26212 16.0817 4.26212 16.0817 4.30321 16.1155C4.3064 16.1537 4.3099 16.1916 4.31309 16.2308C4.33125 16.4143 4.38221 16.5876 4.43254 16.7628C4.46185 16.8768 4.48001 16.9854 4.49434 17.1004H4.55805V17.4508H4.62176C4.61985 17.4897 4.61794 17.5282 4.61571 17.5684C4.61507 17.7684 4.66221 17.9602 4.71732 18.1513L4.74918 18.1832C4.76351 18.2676 4.77148 18.3526 4.78103 18.438H4.84474V18.7884H4.90845C4.90686 18.8063 4.90558 18.8241 4.90399 18.8426C4.89412 19.0598 4.93967 19.2407 5.00497 19.4478C5.03396 19.5466 5.05307 19.6424 5.06772 19.7441H5.13143C5.13111 19.7711 5.1308 19.7985 5.13016 19.8266C5.13016 19.8616 5.12984 19.897 5.12952 19.9333C5.1292 19.9683 5.12857 20.0033 5.12825 20.0397C5.12156 20.1234 5.12156 20.1234 5.16329 20.1582C5.17348 20.2321 5.17953 20.306 5.18622 20.3802C5.18845 20.4445 5.18845 20.4445 5.227 20.4767C5.23815 20.5296 5.24802 20.5828 5.25694 20.636C5.28465 20.7965 5.3181 20.9545 5.35442 21.1138H5.41812V21.4642H5.48183V21.8146H5.54554C5.54491 21.8334 5.54395 21.8522 5.54331 21.8716C5.53981 22.0201 5.54809 22.1239 5.60925 22.2602C5.62136 22.3345 5.63219 22.4087 5.64111 22.4832H5.70482V22.8336H5.76853V23.184H5.83223C5.83096 23.2229 5.82969 23.2614 5.82841 23.3016C5.82809 23.4163 5.85007 23.4927 5.89594 23.5981C5.90805 23.6724 5.91888 23.7466 5.9278 23.8211H5.99151V24.1715H6.05522C6.05362 24.1887 6.05235 24.2056 6.05076 24.2231C6.03993 24.4563 6.09121 24.6627 6.15174 24.8825C6.17626 24.9743 6.19729 25.0647 6.21449 25.1577H6.2782V25.54H6.34191V25.8267H6.40562C6.40371 25.8662 6.4018 25.9054 6.39957 25.9461C6.39861 26.1373 6.44926 26.3125 6.50118 26.494H6.56489V26.8444H6.6286V27.1948H6.69231C6.69104 27.2337 6.68976 27.2723 6.68849 27.3124C6.68817 27.4271 6.71015 27.5035 6.75602 27.609C6.76812 27.6832 6.77895 27.7574 6.78787 27.8319H6.85158V28.1823H6.91529C6.91497 28.2072 6.91465 28.232 6.91402 28.2578C6.91402 28.29 6.9137 28.3222 6.91338 28.3556C6.91306 28.3878 6.91242 28.42 6.91211 28.4531C6.90605 28.5308 6.90605 28.5308 6.94715 28.5646C6.9583 28.6168 6.96817 28.6694 6.97709 28.722C7.00671 28.893 7.03984 29.0628 7.07456 29.2348H7.17013C7.16949 29.2546 7.16854 29.274 7.1679 29.2944C7.16344 29.5027 7.17077 29.7149 7.26569 29.9028H29.4047V29.6161H29.4684C29.4719 29.5986 29.4754 29.5814 29.4789 29.5636C29.5059 29.4345 29.5368 29.3132 29.5837 29.1909C29.642 29.0262 29.6362 28.8659 29.6276 28.6939H29.6913V28.4072H29.7551V28.0568H29.8188C29.8917 27.8288 29.9283 27.6268 29.9143 27.3879H29.978V27.0375H30.0417V26.6871H30.1055C30.1688 26.4737 30.2115 26.273 30.2329 26.05L30.2647 26.0181C30.267 25.9643 30.2673 25.9105 30.2666 25.857C30.2663 25.813 30.2663 25.813 30.266 25.7681C30.2654 25.7455 30.265 25.7228 30.2647 25.6996H30.3284C30.3303 25.6712 30.3303 25.6712 30.3319 25.6423C30.374 25.1135 30.374 25.1135 30.4877 24.9988C30.4899 24.945 30.4903 24.8911 30.4896 24.8376C30.4893 24.7936 30.4893 24.7936 30.489 24.7487C30.4883 24.7261 30.488 24.7035 30.4877 24.6802H30.5514V24.3298H30.6151C30.6167 24.311 30.6183 24.2923 30.6199 24.2728C30.6333 24.1311 30.6521 24.0148 30.7107 23.8842C30.7639 23.7246 30.7862 23.5743 30.7983 23.4064C30.8063 23.3414 30.8063 23.3414 30.8381 23.3095C30.8403 23.2611 30.8407 23.2127 30.84 23.1643C30.8397 23.1248 30.8397 23.1248 30.8394 23.0843C30.8387 23.0541 30.8387 23.0541 30.8381 23.0228H30.9018V22.6724H30.9655C31.0289 22.459 31.0719 22.2583 31.0929 22.0354L31.1248 21.9716C31.127 21.9226 31.1273 21.8735 31.1267 21.8245C31.1264 21.7853 31.1264 21.7853 31.1261 21.7455C31.1254 21.7155 31.1254 21.7155 31.1248 21.685H31.1885C31.1901 21.6614 31.1917 21.6381 31.1933 21.6139C31.1955 21.5827 31.1981 21.5518 31.2006 21.5196C31.2025 21.489 31.2048 21.4585 31.2073 21.4266C31.2207 21.3333 31.2462 21.2613 31.2841 21.1753C31.3331 21.0249 31.3586 20.8835 31.3717 20.7261C31.3796 20.665 31.3796 20.665 31.4115 20.6013C31.4137 20.5522 31.414 20.5031 31.4134 20.4541C31.4131 20.4149 31.4131 20.4149 31.4128 20.3751C31.4121 20.3451 31.4121 20.3451 31.4115 20.3146H31.4752V19.9642H31.5389C31.5991 19.7405 31.6437 19.5246 31.6663 19.2952L31.6982 19.2634C31.7004 19.2095 31.7007 19.1557 31.7001 19.1022C31.6998 19.0582 31.6998 19.0582 31.6995 19.0133C31.6988 18.9907 31.6985 18.9681 31.6982 18.9448H31.7619V18.6263H31.8256C31.8906 18.3976 31.933 18.1962 31.9212 17.9573H31.9849V17.6706H32.0486V17.2884H32.1123C32.1725 17.0648 32.2171 16.8488 32.2397 16.6194L32.2716 16.5876C32.2738 16.5392 32.2741 16.4907 32.2735 16.4423C32.2732 16.4028 32.2732 16.4028 32.2728 16.3624C32.2722 16.3423 32.2719 16.3219 32.2716 16.3009H32.3353V15.9505H32.399C32.4687 15.6702 32.4687 15.6702 32.5143 15.3835C32.5264 15.2799 32.5264 15.2799 32.5583 15.2481C32.5605 15.1943 32.5608 15.1404 32.5602 15.0869C32.5598 15.0429 32.5598 15.0429 32.5595 14.998C32.5589 14.9754 32.5586 14.9528 32.5583 14.9295H32.6538C32.6576 14.8948 32.6615 14.8604 32.6656 14.8247C32.671 14.7789 32.6764 14.7327 32.6819 14.6868C32.6854 14.6527 32.6854 14.6527 32.6892 14.6177C32.7057 14.4804 32.737 14.3606 32.7812 14.2291C32.7889 14.1491 32.7889 14.1491 32.7851 14.0736C32.7844 14.0363 32.7844 14.0363 32.7835 13.9984C32.7828 13.98 32.7819 13.9615 32.7812 13.9424H32.8449V13.6557H32.9087V13.146H32.8449V13.0823H32.7812C32.7328 12.9886 32.692 12.8937 32.6538 12.7956H32.4945C32.4859 12.7765 32.4773 12.7574 32.4687 12.7379C32.4308 12.6682 32.3958 12.6233 32.3353 12.5726H32.2716V12.5089H32.2079C32.1993 12.4898 32.1907 12.4707 32.1821 12.4513C32.1292 12.3538 32.0865 12.2977 31.9788 12.264C31.9505 12.2592 31.9505 12.2592 31.9212 12.2541C31.9173 12.2299 31.9132 12.2053 31.9091 12.1805C31.8931 12.0884 31.8931 12.0884 31.8256 11.9992H31.7619V11.9355H31.6982V11.8718H31.6345C31.6259 11.8514 31.6173 11.831 31.6087 11.81C31.5743 11.7339 31.5743 11.7339 31.4752 11.7125V11.6488H31.4115V11.5533H31.3478L31.2522 11.3621H31.1885V11.2984H31.1248V11.2347H31.0611L31.0292 11.1392H30.9655V11.0755H30.9018V11.0117H30.8381V10.948H30.7744L30.7425 10.8525H30.6788V10.7888H30.5514V10.7251H30.4877V10.6613C30.3982 10.6167 30.3319 10.6215 30.2329 10.6295C30.1571 10.669 30.1571 10.669 30.1055 10.7251V10.7888H29.978V10.8525H29.9143C29.8611 10.8948 29.8611 10.8948 29.8188 10.948V11.0117H29.7551V11.0755H29.6913V11.1392H29.6276C29.5744 11.1815 29.5744 11.1815 29.5321 11.2347V11.2984H29.4684V11.4259C29.4492 11.4345 29.4301 11.4431 29.4107 11.4517C29.3409 11.4896 29.296 11.5246 29.2454 11.5851V11.6488H29.1817V11.7125H29.118V11.7763H29.0542C29.0011 11.8186 29.0011 11.8186 28.9587 11.8718V11.9355H28.895V11.9992H28.8313C28.7663 12.0919 28.7357 12.1394 28.7357 12.2541L28.6083 12.2859V12.3496H28.5446V12.4452H28.4809V12.5089H28.3853V12.5726H28.3216V12.6682H28.2579V12.7319H28.1942V12.7956H28.1305V12.8593H28.0349V12.923H27.9712C27.918 12.9654 27.918 12.9654 27.8756 13.0186V13.0823H27.7482V13.146H27.6845V13.2097C27.6597 13.2196 27.6345 13.2295 27.6087 13.2397C27.5278 13.2712 27.5278 13.2712 27.4615 13.3053V13.369H27.366V13.4327H27.2385V13.4964C27.2115 13.5002 27.1847 13.5044 27.157 13.5085C27.0426 13.5292 26.9356 13.5585 26.8257 13.592V13.6557H25.8382V13.592C25.777 13.5713 25.7162 13.5509 25.655 13.5302C25.621 13.5187 25.5872 13.5072 25.5522 13.4955C25.4776 13.4716 25.4047 13.4502 25.3285 13.4327V13.369H25.1693V13.3053L25.0418 13.2734V13.2097H24.9781V13.146H24.8826V13.0823H24.8189V13.0186L24.6914 12.9867V12.923H24.6277V12.8593H24.5322V12.7956H24.4685V12.7H24.4047V12.6363H24.341V12.5726H24.2455V12.5089H24.1818V12.4133H24.1181C24.1095 12.393 24.1009 12.3726 24.0923 12.3516C24.0579 12.2754 24.0579 12.2754 23.9588 12.2541V12.1585H23.8951V12.0948H23.8314L23.7995 11.9992H23.7358V11.9355H23.6721V11.8718H23.6084V11.7763H23.5447V11.7125H23.481V11.6488H23.4173L23.3854 11.5214H23.3217V11.4259H23.258V11.3621H23.1624V11.2984H23.0987V11.2029H23.035V11.1392H22.9713V11.0755H22.9076V11.0117C22.8652 10.9585 22.8652 10.9585 22.812 10.9162H22.7483V10.8525H22.6846V10.7888H22.5572V10.7251H22.4616V10.6613C22.3144 10.6282 22.3144 10.6282 22.1749 10.6613V10.7251H22.0794V10.7888H21.9838V10.8525H21.8882C21.8013 10.9261 21.8013 10.9261 21.729 11.0117V11.0755H21.6653V11.1392H21.6015V11.2347H21.5378L21.506 11.3621H21.4423V11.4259H21.3786V11.4896H21.3149V11.5851H21.2511V11.6488H21.1556V11.7125H21.0919V11.8081H21.0282V11.8718H20.9645V11.9355H20.9007L20.8689 12.0629H20.8052V12.1267H20.7415V12.2541C20.7166 12.256 20.6915 12.2579 20.6657 12.2601C20.6383 12.2687 20.6105 12.277 20.5822 12.2859C20.5386 12.3649 20.5386 12.3649 20.5185 12.4452H20.4548V12.5089H20.3911V12.5726H20.3274C20.2742 12.615 20.2742 12.615 20.2318 12.6682V12.7319H20.1681V12.7956H20.1044V12.8593C20.0789 12.8666 20.0531 12.8736 20.0267 12.8813C19.9999 12.895 19.9728 12.9087 19.9451 12.923C19.9168 13.0043 19.9168 13.0043 19.9132 13.0823H19.754V13.146H19.6584V13.2097H19.5947V13.2734L19.4673 13.3053V13.369H19.3717V13.4327C19.3494 13.4365 19.3274 13.4407 19.3045 13.4448C19.2048 13.4661 19.1102 13.4958 19.0134 13.5283C18.9796 13.5394 18.9461 13.5506 18.9114 13.562C18.8334 13.5843 18.8334 13.5843 18.7983 13.6238C18.7254 13.6289 18.6524 13.6318 18.5792 13.634C18.5572 13.6347 18.5355 13.6353 18.5129 13.6359C18.4428 13.6378 18.3728 13.6398 18.3027 13.6417C18.2552 13.6433 18.2078 13.6445 18.1603 13.6458C18.0437 13.6493 17.9274 13.6525 17.8099 13.6557V13.592C17.764 13.5757 17.7185 13.5601 17.6726 13.5442C17.6471 13.5353 17.6216 13.5263 17.5952 13.5174C17.5203 13.4919 17.5203 13.4919 17.4276 13.4964V13.4327H17.3002V13.369H17.1728V13.3053C17.0912 13.232 17.0619 13.2097 16.9498 13.2097V13.146H16.8861V13.0823H16.7905V13.0186H16.7268V12.9549C16.6427 12.8784 16.6427 12.8784 16.5357 12.8593V12.7956H16.472L16.4401 12.7H16.3764V12.6363H16.3127V12.5726H16.249V12.5089H16.1853L16.1534 12.4133H16.0897V12.3178L15.9305 12.2541V12.1585H15.8668V12.0629H15.803V11.9992H15.7393V11.9355H15.6756V11.8718C15.6333 11.8186 15.6333 11.8186 15.5801 11.7763H15.5164V11.7125H15.4526C15.4399 11.6772 15.4399 11.6772 15.4268 11.6409C15.3905 11.5568 15.3542 11.494 15.2934 11.4259H15.2297V11.3621H15.166V11.2984H15.1022L15.0704 11.2029H15.0067V11.1392H14.943V11.0755H14.8793V11.0117H14.8156L14.7837 10.9162H14.72V10.8525H14.6563V10.7888H14.5926V10.7251C14.4661 10.6257 14.3683 10.6177 14.2103 10.6295L14.1466 10.6613V10.7251H14.0829V10.7888H13.9873V10.8525L13.8599 10.8843V10.948H13.7962V11.0117H13.7325V11.0755H13.6688V11.1392C13.6373 11.1497 13.6057 11.1602 13.5732 11.171L13.5414 11.3621H13.4458V11.4259H13.3502L13.2865 11.5851H13.2228V11.6488H13.1591V11.7125C13.1117 11.7285 13.1117 11.7285 13.0636 11.7444C12.9909 11.8342 12.9909 11.8342 12.9998 11.9355H12.9361V11.9992C12.9157 12.0078 12.8954 12.0164 12.8743 12.025C12.7982 12.0594 12.7982 12.0594 12.7769 12.1585H12.7132V12.2541L12.5857 12.2859V12.3496C12.5383 12.3656 12.5383 12.3656 12.4902 12.3815V12.4452H12.4265V12.5089H12.3627V12.5726H12.299C12.214 12.6468 12.214 12.6468 12.1398 12.7319V12.7956H12.0761V12.8593H12.0123V12.923C11.9649 12.939 11.9649 12.939 11.9168 12.9549V13.0186H11.8531V13.0823H11.7257V13.146H11.6619V13.2097H11.5664V13.2734L11.439 13.3053V13.369H11.3434V13.4327H11.216V13.4964C11.1844 13.4935 11.1844 13.4935 11.1523 13.4904C11.022 13.4986 10.9226 13.5429 10.8019 13.592V13.6557H9.78253V13.592C9.72742 13.5713 9.67231 13.5506 9.6172 13.5302C9.58662 13.5187 9.55604 13.5072 9.52418 13.4955C9.44041 13.4674 9.35981 13.4477 9.27285 13.4327V13.369H9.14543V13.3053H9.08172V13.2416L8.92245 13.2097V13.146H8.85874V13.0823H8.79503V13.0186C8.74757 12.9753 8.74757 12.9753 8.68736 12.9351C8.66761 12.9208 8.64755 12.9065 8.62716 12.8918C8.57364 12.8539 8.57364 12.8539 8.50834 12.8593V12.7956H8.44463C8.43189 12.765 8.43189 12.765 8.41883 12.7338C8.38443 12.6577 8.38443 12.6577 8.28536 12.6363V12.5726H8.22165V12.5089H8.15794C8.15539 12.4904 8.15284 12.4723 8.14998 12.4532C8.11908 12.3608 8.07225 12.3165 7.99867 12.2541H7.93496V12.1585H7.87125L7.83939 12.0629H7.77568V11.9992H7.71198V11.9355H7.64827C7.61673 11.8565 7.61673 11.8565 7.58456 11.7763H7.52085C7.50492 11.7132 7.50492 11.7132 7.48899 11.6488H7.42528V11.5851H7.36157V11.5214H7.29787C7.28194 11.474 7.28194 11.474 7.26601 11.4259H7.2023C7.18637 11.3628 7.18637 11.3628 7.17045 11.2984H7.07488V11.2029H7.01117V11.1392H6.94746V11.0755H6.8519V11.0117H6.78819V10.9162H6.72448V10.8525H6.62892V10.7888H6.56521V10.7251H6.5015V10.6613C6.34414 10.5827 6.18869 10.6203 6.05554 10.7251L6.05522 10.7317Z" fill="black"/>
<path d="M20.6765 17.676H21.1543V17.7397H21.6003V17.8034C21.6949 17.814 21.7895 17.8245 21.887 17.8353V17.899C21.9204 17.8971 21.9204 17.8971 21.9545 17.8952C22.0583 17.8996 22.1405 17.9267 22.2374 17.9627V18.0264H22.3329V18.0901C22.396 18.1061 22.396 18.1061 22.4603 18.122V18.1857H22.5241V18.2494H22.6196V18.3131H22.6833V18.3768H22.747V18.4405H22.8107V18.5361H22.8745V18.6317C22.906 18.6422 22.9375 18.6527 22.97 18.6635V18.7272H23.0337V18.8228H23.0974V18.8865H23.1611L23.2567 19.1732H23.3204V19.3325H23.3841C23.4294 19.4541 23.4555 19.5526 23.4478 19.6829H23.5115C23.5724 19.8453 23.6208 19.9842 23.6071 20.1607H23.6708C23.6727 20.1833 23.6746 20.2059 23.6766 20.2292C23.6794 20.2585 23.682 20.2878 23.6848 20.318C23.6887 20.3617 23.6887 20.3617 23.6925 20.4063C23.695 20.478 23.695 20.478 23.7345 20.5111C23.7412 20.5936 23.7466 20.6755 23.7505 20.758C23.7568 20.9268 23.7568 20.9268 23.7826 21.0924C23.8186 21.2909 23.8043 21.5002 23.8043 21.7009V21.776C23.8043 22.1965 23.7826 22.6106 23.7345 23.0279H23.6708V23.3465H23.6071C23.6097 23.3818 23.6122 23.4175 23.6151 23.4541C23.6157 23.601 23.5682 23.7122 23.5103 23.8459C23.4743 23.9335 23.4577 24.0176 23.4478 24.1116H23.3841V24.239H23.3204V24.3983H23.2567L23.2249 24.5257H23.1611V24.6213H23.0974V24.7487H23.0337V24.8443H22.97L22.9382 25.0035L22.8107 25.0354V25.131H22.747V25.1947H22.6833V25.2584H22.5878V25.3221H22.5241V25.3858C22.4425 25.4591 22.4132 25.4814 22.3011 25.4814V25.5451H22.1737V25.6088C22.108 25.6355 22.0424 25.662 21.9765 25.6884C21.9398 25.7031 21.9035 25.718 21.8656 25.7333C21.7685 25.7652 21.7012 25.7757 21.6003 25.7681V25.8318H21.0906V25.8955H20.5172V25.8318C20.4917 25.8337 20.4662 25.8356 20.4401 25.8375C20.1639 25.8486 19.9655 25.7964 19.7202 25.6725V25.6088H19.5928V25.5451H19.4654V25.4814C19.4338 25.4708 19.4023 25.4603 19.3698 25.4495V25.3858C19.2752 25.3543 19.2752 25.3543 19.1787 25.3221V25.2584H19.115C19.0634 25.2144 19.0634 25.2144 19.0194 25.1628V25.0991H18.9557V25.0354C18.9242 25.0249 18.8926 25.0144 18.8601 25.0035C18.8222 24.9061 18.8222 24.9061 18.7964 24.8124H18.7327V24.7487H18.669V24.6213H18.6053C18.5578 24.4795 18.5578 24.4795 18.5097 24.3346H18.446V24.1753H18.3823C18.3371 24.0536 18.311 23.9552 18.3186 23.8249H18.2549L18.223 23.5382H18.1593V23.2515H18.0956V22.9011H18.0319C18.031 22.8792 18.0303 22.8575 18.0294 22.8349C18.0259 22.7361 18.022 22.6374 18.0179 22.5386C18.0166 22.5042 18.0153 22.4698 18.0141 22.4345C18.0128 22.4017 18.0115 22.3688 18.0103 22.3351C18.0083 22.2895 18.0083 22.2895 18.0067 22.243C18.0045 22.1678 18.0045 22.1678 17.9682 22.1048C17.965 22.0573 17.9641 22.0098 17.9641 21.9627C17.9641 21.9344 17.9637 21.9063 17.9637 21.8773C17.9641 21.8334 17.9641 21.8334 17.9644 21.7881C17.9641 21.7588 17.9641 21.7295 17.9637 21.6996C17.9637 21.6712 17.9641 21.6432 17.9641 21.6142V21.5358C17.9682 21.4677 17.9682 21.4677 18.0001 21.3721C18.0048 21.3135 18.008 21.2546 18.0103 21.1956C18.0115 21.1612 18.0128 21.1272 18.0141 21.0921C18.0153 21.0564 18.0166 21.0208 18.0179 20.9838C18.0195 20.9478 18.0208 20.9118 18.022 20.8745C18.0255 20.7857 18.0287 20.6968 18.0319 20.6076H18.0956V20.3209H18.1593V20.0342H18.223L18.2549 19.8112H18.3186C18.3167 19.7689 18.3167 19.7689 18.3148 19.7256C18.3186 19.6211 18.338 19.5548 18.3823 19.4608H18.446V19.2697H18.5097L18.5416 19.1104H18.6053C18.6098 19.0913 18.6145 19.0722 18.6193 19.0528C18.6336 18.997 18.6508 18.9419 18.669 18.8875H18.7327V18.7919H18.7964C18.805 18.7715 18.8136 18.7511 18.8222 18.7301C18.8601 18.6645 18.8601 18.6645 18.9557 18.6326V18.5371H19.0194V18.4733H19.0831C19.099 18.4259 19.099 18.4259 19.115 18.3778H19.1787V18.3141H19.2424V18.2504H19.3061V18.1867C19.4456 18.0911 19.4456 18.0911 19.5291 18.0911V18.0274H19.6565V17.9637H19.8158V17.9C19.9782 17.8391 20.1171 17.7907 20.2936 17.8044V17.7407H20.6758V17.677L20.6765 17.676ZM20.8039 19.1095V19.1732H20.5809V19.2369L20.4535 19.2688V19.3325H20.3898C20.3133 19.4166 20.3133 19.4166 20.2942 19.5236H20.2305V19.6192H20.1668V19.7466H20.1031C20.0942 19.7784 20.0856 19.8103 20.0763 19.8431C20.0646 19.8845 20.0531 19.9259 20.0413 19.9676C20.0356 19.9887 20.0298 20.0097 20.0238 20.0314C19.9792 20.189 19.9792 20.189 19.9438 20.2244C19.9034 20.4623 19.9082 20.7054 19.9101 20.9443C19.9101 20.9793 19.9104 21.0144 19.9104 21.0507C19.9107 21.1361 19.9113 21.2214 19.912 21.3068H19.8164V22.6129H19.912C19.9117 22.6438 19.9113 22.6743 19.9107 22.7062C19.9091 22.9429 19.9129 23.1745 19.9438 23.4102H20.0075C20.0056 23.4373 20.0037 23.464 20.0015 23.4917C20.0088 23.6249 20.0458 23.7048 20.1031 23.823H20.1668V23.9823H20.2305V24.1097H20.2942C20.3028 24.1301 20.3114 24.1505 20.32 24.1715C20.3544 24.2476 20.3544 24.2476 20.4535 24.269V24.3327H20.5809V24.3964H20.7402V24.4601H21.1224V24.3964H21.2499V24.3327C21.2734 24.3254 21.2973 24.3183 21.3215 24.3107C21.4263 24.2607 21.4719 24.2053 21.5366 24.1097V24.046H21.6003V23.9504H21.664C21.8035 23.5777 21.8035 23.5777 21.8233 23.1859H21.887V22.7081H21.9507V20.7968H21.887V20.3827H21.8233V20.096H21.7595C21.7557 20.0619 21.7516 20.0279 21.7474 19.9925C21.7309 19.8928 21.7149 19.8307 21.664 19.7456H21.6003V19.5863H21.5366V19.4589H21.4728C21.4655 19.4341 21.4585 19.4089 21.4509 19.3831C21.4161 19.2926 21.4161 19.2926 21.3257 19.2579C21.3005 19.2506 21.2757 19.2433 21.2499 19.2359V19.1722H21.0906V19.1085H20.8039V19.1095Z" fill="black"/>
<path d="M14.4648 17.8035C14.4852 17.8038 14.5059 17.8041 14.5269 17.8044C14.5948 17.8054 14.6629 17.8067 14.7308 17.8079C14.7776 17.8089 14.8247 17.8095 14.8719 17.8102L15.2446 17.8168C15.3707 17.8191 15.4972 17.821 15.6237 17.8232C15.8718 17.8274 16.1206 17.8315 16.3691 17.836V17.8997H16.4328V21.4674H16.3691V22.2L16.4328 22.2319H16.3691V22.3912H16.4328V22.4867C16.4563 22.4864 16.4799 22.4861 16.5041 22.4858C16.6105 22.4845 16.7166 22.4835 16.8227 22.4829C16.8596 22.4823 16.8966 22.4816 16.9348 22.4813C16.9702 22.481 17.0058 22.4807 17.0421 22.4807C17.0912 22.48 17.0912 22.48 17.1415 22.4794C17.2295 22.4867 17.2814 22.5052 17.3562 22.5504C17.3505 22.5788 17.3444 22.6071 17.3384 22.6361C17.325 22.7368 17.3308 22.8037 17.3562 22.9008H17.2925V23.8246H16.4325V24.3343H16.3687V25.1944H16.4325V25.6722C16.2031 25.6776 15.9737 25.6827 15.7444 25.6875C15.6663 25.6894 15.588 25.691 15.5099 25.6929C15.3978 25.6954 15.2857 25.698 15.1723 25.7002C15.1197 25.7015 15.1197 25.7015 15.0662 25.7028C15.0337 25.7034 15.0012 25.704 14.9678 25.7047C14.9391 25.7053 14.9104 25.706 14.8808 25.7066C14.8075 25.704 14.8075 25.704 14.712 25.6722V23.8246C14.5234 23.8294 14.3361 23.8339 14.1418 23.8386C14.0822 23.8399 14.0226 23.8415 13.9612 23.8428C13.9143 23.8441 13.8672 23.8453 13.8204 23.8466C13.7955 23.8469 13.771 23.8476 13.7458 23.8482C13.6305 23.8409 13.6305 23.8409 13.5343 23.8883C13.469 23.8915 13.4034 23.8922 13.3378 23.8922H13.2757C13.2075 23.8918 13.1396 23.8918 13.0715 23.8915H12.93C12.8061 23.8912 12.6819 23.8909 12.5573 23.8906C12.4309 23.8902 12.3041 23.8902 12.1783 23.8899C11.9295 23.8896 11.6813 23.889 11.4329 23.8883V23.8246H11.3373C11.2886 23.7272 11.3016 23.6249 11.3026 23.5179V23.4452C11.3029 23.3688 11.3032 23.292 11.3035 23.2156C11.3039 23.1636 11.3039 23.1117 11.3042 23.0598C11.3045 22.9324 11.3048 22.8053 11.3055 22.6775H11.3692C11.3672 22.6422 11.3672 22.6422 11.3653 22.6059C11.3695 22.5154 11.3873 22.4676 11.4329 22.3909H11.4966V22.2634C11.5405 22.2157 11.5405 22.2157 11.5921 22.1679C11.6297 22.101 11.6297 22.101 11.6559 22.0404H11.7196V21.913H11.7833V21.8175H11.847L11.9425 21.5308H12.0063V21.4034H12.07C12.0798 21.3785 12.0897 21.3533 12.0999 21.3279C12.1337 21.2441 12.1337 21.2441 12.1655 21.1804H12.2292L12.2929 20.9574H12.3567V20.83C12.4006 20.7822 12.4006 20.7822 12.4522 20.7344C12.4898 20.6675 12.4898 20.6675 12.5159 20.607H12.5796V20.4796H12.6433V20.384H12.7071C12.7415 20.2996 12.7739 20.2158 12.8026 20.1292H12.8663V20.0336H12.93V19.9062H12.9937L13.0256 19.7469H13.0893V19.6832H13.153V19.5239H13.2167V19.3965H13.2804C13.2903 19.3717 13.3002 19.3465 13.3104 19.321C13.3441 19.2372 13.3441 19.2372 13.376 19.1735H13.4397V19.0461H13.5353L13.5671 18.8231H13.6308L13.6627 18.6639H13.7264V18.5364H13.7901V18.4409H13.8538L13.8857 18.3135H13.9494V18.186H14.0131V18.0905H14.0768V17.9631H14.1405C14.1497 17.9427 14.159 17.9223 14.1685 17.9013C14.238 17.7742 14.3355 17.8009 14.4683 17.8031L14.4648 17.8035ZM14.583 19.5873C14.524 19.6227 14.524 19.6227 14.4874 19.6829V19.8103H14.4237V19.9696H14.36V20.1607H14.2963C14.2227 20.2633 14.2227 20.2633 14.2007 20.3837H14.137V20.543H14.0733C14.059 20.5818 14.0446 20.6207 14.0297 20.6605C13.9924 20.7599 13.9542 20.8586 13.914 20.9571H13.8503V21.0526H13.7866V21.1801H13.7229V21.3075H13.6592L13.6273 21.4667H13.5636L13.5318 21.6897H13.4362L13.4044 21.8171H13.3406V21.9446H13.2769L13.2132 22.1676H13.1495C13.0922 22.237 13.0922 22.237 13.054 22.3268L13.0858 22.4861H14.7104V19.6192L14.583 19.5873Z" fill="black"/>
<path d="M24.6265 15.8285C24.66 15.8282 24.6934 15.8279 24.7278 15.8279C24.9078 15.8282 25.0591 15.8397 25.2311 15.9002V15.9639H25.3904V16.0276H25.4541V16.0913H25.5178C25.5694 16.135 25.5694 16.135 25.6134 16.1869V16.2506H25.6771V16.3143H25.7408C25.7675 16.3599 25.794 16.4057 25.8204 16.4516C25.8351 16.4771 25.85 16.5026 25.865 16.529C25.9001 16.601 25.9001 16.601 25.9001 16.6966H25.9638V16.8877H26.0275V17.6203H25.9638V17.8115H25.9001C25.8975 17.8331 25.8946 17.8548 25.8921 17.8771C25.8609 17.9985 25.8058 18.0867 25.7408 18.1937H25.6771V18.3211H25.6134V18.3849H25.5178V18.4486L25.3904 18.4804V18.5441H25.263V18.6397C25.2359 18.6438 25.2091 18.6483 25.1814 18.6524C25.1292 18.661 25.1292 18.661 25.0757 18.6696C25.0237 18.6779 25.0237 18.6779 24.9705 18.6862C24.8826 18.6989 24.8826 18.6989 24.817 18.7353C24.7364 18.7384 24.6568 18.7397 24.5762 18.7394C24.5539 18.7394 24.5316 18.7394 24.5086 18.7397C24.343 18.7394 24.343 18.7394 24.3073 18.7034C24.2379 18.6907 24.1681 18.6798 24.0984 18.6696C24.041 18.661 24.041 18.661 23.9827 18.6524C23.9531 18.6483 23.9235 18.6441 23.8932 18.6397V18.5441C23.8645 18.5381 23.8645 18.5381 23.8352 18.5323C23.7658 18.5123 23.7658 18.5123 23.6702 18.4486V18.3849H23.6065V18.3211H23.5428C23.4472 18.1816 23.4472 18.1816 23.4472 18.0982H23.3835V18.0345H23.3198C23.3131 18.0096 23.3068 17.9848 23.3001 17.959C23.2915 17.9268 23.2829 17.8946 23.274 17.8612C23.2654 17.829 23.2571 17.7968 23.2482 17.7637C23.2319 17.6866 23.2319 17.6866 23.1924 17.6522C23.1249 17.2636 23.1344 16.8941 23.3198 16.5373H23.3835C23.3893 16.5086 23.3893 16.5086 23.3953 16.4796C23.4154 16.4099 23.4154 16.4099 23.4791 16.3143H23.5428V16.2506H23.6065V16.1869H23.6702C23.6779 16.1665 23.6858 16.1461 23.6941 16.1251C23.7339 16.0595 23.7339 16.0595 23.8015 16.0356C23.8212 16.033 23.841 16.0305 23.8614 16.0276V15.9639C24.1003 15.8244 24.3583 15.8266 24.6291 15.8285H24.6265ZM24.1774 16.5357V16.5994H24.0818V16.6631H24.0181V16.7268H23.9544V16.8224H23.8907C23.7441 17.0094 23.7766 17.2333 23.7951 17.4595C23.8184 17.5624 23.8496 17.6484 23.8907 17.7462H23.9544V17.8099H24.0181L24.0499 17.9054H24.1136V17.9691H24.2411V18.0329H24.4003V18.0966H24.8144V18.0329H24.9737V17.9691H25.1011V17.9054H25.1648C25.2378 17.8239 25.2604 17.7946 25.2604 17.6825H25.3241V17.5232H25.3878V17.0454H25.3241V16.8224H25.2604C25.2518 16.802 25.2432 16.7816 25.2343 16.7606C25.2002 16.6845 25.2002 16.6845 25.1011 16.6631V16.5994H25.0056V16.5357C24.7103 16.4044 24.4736 16.4044 24.1774 16.5357Z" fill="black"/>
</svg>
