<svg width="37" height="37" viewBox="0 0 37 37" fill="none" xmlns="http://www.w3.org/2000/svg">
<path d="M1.34814 0.915039C12.8113 0.915039 24.2744 0.915039 36.085 0.915039C36.085 12.6274 36.085 24.3397 36.085 36.407C24.6218 36.407 13.1587 36.407 1.34814 36.407C1.34814 24.6947 1.34814 12.9823 1.34814 0.915039ZM3.99116 3.55806C3.99116 5.30245 3.99116 7.04684 3.99116 8.8441C4.23257 8.5949 4.47399 8.3457 4.72271 8.08895C5.95602 6.84851 7.27973 5.7129 8.60022 4.56689C8.82362 4.35857 9.04703 4.15026 9.2772 3.93563C9.2772 3.81103 9.2772 3.68643 9.2772 3.55806C7.53281 3.55806 5.78842 3.55806 3.99116 3.55806ZM6.83624 9.57122C4.21553 13.1122 3.62311 16.9712 3.99116 21.304C4.88654 25.7756 7.47059 29.2518 11.1651 31.8761C14.7425 33.8183 18.531 34.4404 22.5498 33.4793C24.4744 32.8061 26.1486 31.9851 27.7783 30.7434C28.082 30.519 28.3858 30.2946 28.6987 30.0635C31.5427 27.6226 33.251 23.9612 33.5599 20.2731C33.7825 15.1116 32.3892 11.208 28.9111 7.3338C25.6305 4.43776 21.6916 3.27162 17.3685 3.41352C12.916 3.91049 9.65385 6.20165 6.83624 9.57122ZM28.1559 3.55806C28.4285 3.83062 28.701 4.10318 28.9818 4.384C30.4685 5.8707 31.9552 7.3574 33.4419 8.8441C33.4419 7.0997 33.4419 5.35531 33.4419 3.55806C31.6975 3.55806 29.9532 3.55806 28.1559 3.55806ZM3.99116 28.4779C3.99116 30.2223 3.99116 31.9667 3.99116 33.764C5.73556 33.764 7.47995 33.764 9.2772 33.764C9.028 33.5226 8.7788 33.2812 8.52205 33.0324C7.28161 31.7991 6.146 30.4754 4.99999 29.1549C4.79168 28.9315 4.58336 28.7081 4.36874 28.4779C4.24414 28.4779 4.11954 28.4779 3.99116 28.4779ZM33.0644 28.4779C32.7257 28.936 32.3972 29.4016 32.0732 29.8703C30.939 31.4229 29.7519 32.333 28.1559 33.3864C28.1559 33.511 28.1559 33.6356 28.1559 33.764C29.9003 33.764 31.6447 33.764 33.4419 33.764C33.4419 32.0196 33.4419 30.2752 33.4419 28.4779C33.3173 28.4779 33.1927 28.4779 33.0644 28.4779Z" fill="black"/>
<path d="M19.507 15.4855C20.2268 15.6404 20.2268 15.6404 21.1707 16.2068C21.9717 17.5418 22.0357 18.6531 21.7371 20.1713C21.1707 21.1152 21.1707 21.1152 20.2268 21.6816C19.1661 21.9098 18.2643 21.931 17.2062 21.6816C16.0735 20.7188 15.7507 20.1227 15.5071 18.661C15.9159 16.2083 17.116 15.3116 19.507 15.4855Z" fill="black"/>
</svg>
