<svg width="37" height="36" viewBox="0 0 37 36" fill="none" xmlns="http://www.w3.org/2000/svg">
<path d="M0.903239 4.74231C1.37383 4.82265 1.84245 4.91584 2.30762 5.02319C2.85897 6.59239 3.28339 8.19219 3.71201 9.7981C3.83113 9.67318 3.95025 9.54827 4.07298 9.41957C5.41805 8.1218 5.41805 8.1218 6.69633 8.07773C8.31301 8.61662 9.2839 9.71904 10.4531 10.9216C10.6127 10.7424 10.7724 10.5632 10.9369 10.3785C12.6973 8.49467 12.6973 8.49467 14.0167 8.02506C15.5864 8.17315 16.457 8.98689 17.4399 10.1492C17.6368 10.4041 17.8338 10.659 18.0367 10.9216C18.2252 10.7587 18.2252 10.7587 18.4175 10.5925C18.7699 10.2889 19.124 9.98724 19.4795 9.68728C19.9014 9.32375 20.3063 8.9405 20.7051 8.55171C21.4073 8.11284 21.4073 8.11284 22.3903 8.09528C23.5536 8.44841 23.9806 8.89605 24.7778 9.7981C25.2409 10.1788 25.7075 10.5554 26.1822 10.9216C26.3419 10.7424 26.5015 10.5632 26.666 10.3785C28.4351 8.48536 28.4351 8.48536 29.7634 8.04262C30.7905 8.12163 31.2801 8.31503 32.0806 8.95547C32.3587 9.37257 32.3587 9.37257 32.6424 9.7981C33.1937 8.22889 33.6181 6.62909 34.0467 5.02319C34.7138 4.84764 34.7138 4.84764 35.4511 4.74231C36.0129 5.30406 36.0129 5.30406 36.0224 5.82976C35.9939 6.03679 35.9654 6.24381 35.9361 6.4571C35.9052 6.68399 35.8742 6.91087 35.8423 7.14463C35.6795 8.15886 35.4881 9.16343 35.2752 10.1683C35.2073 10.4955 35.2073 10.4955 35.138 10.8294C34.9899 11.5414 34.8399 12.253 34.6897 12.9645C34.585 13.4627 34.4804 13.9609 34.3758 14.459C34.1571 15.4984 33.9374 16.5376 33.717 17.5767C33.4348 18.9087 33.1567 20.2416 32.8795 21.5747C32.6652 22.6016 32.4481 23.6279 32.2303 24.654C32.1264 25.1454 32.0236 25.6371 31.9219 26.1289C31.7798 26.8146 31.6337 27.4993 31.4866 28.1839C31.4249 28.4886 31.4249 28.4886 31.3618 28.7994C31.2005 29.535 31.0193 30.193 30.6451 30.8496C29.7607 31.3416 28.8215 31.2565 27.8361 31.2449C27.488 31.2457 27.488 31.2457 27.1328 31.2466C26.3649 31.2475 25.5972 31.2423 24.8294 31.2369C24.2966 31.2361 23.7639 31.2355 23.2312 31.2353C22.1146 31.234 20.998 31.23 19.8814 31.2238C18.4479 31.2158 17.0145 31.2127 15.581 31.2115C14.481 31.2103 13.3811 31.2076 12.2811 31.2042C11.7524 31.2026 11.2237 31.2013 10.695 31.2002C9.9573 31.1983 9.21962 31.1945 8.48192 31.19C8.26202 31.1897 8.04211 31.1894 7.81555 31.1891C6.30433 31.177 6.30433 31.177 5.67815 30.8639C5.45714 30.1311 5.45714 30.1311 5.24038 29.1282C5.19963 28.9429 5.15888 28.7576 5.1169 28.5667C4.97977 27.9403 4.84614 27.3131 4.71264 26.6858C4.61701 26.2436 4.52121 25.8014 4.42524 25.3593C4.26865 24.6367 4.11247 23.914 3.95731 23.1911C3.57999 21.4333 3.19415 19.6775 2.80405 17.9224C2.51484 16.6199 2.22809 15.3169 1.94171 14.0138C1.79957 13.369 1.65655 12.7243 1.51266 12.0799C1.30941 11.1681 1.10976 10.2556 0.910919 9.34277C0.849014 9.06874 0.787109 8.79471 0.723328 8.51237C0.641273 8.1308 0.641273 8.1308 0.55756 7.74151C0.508826 7.52065 0.460093 7.29979 0.409882 7.07224C0.330768 6.32657 0.428243 5.74492 0.622362 5.02319C0.715051 4.9305 0.807741 4.83781 0.903239 4.74231ZM5.04618 11.2727C4.22058 12.1271 4.22058 12.1271 3.9623 13.2399C4.01367 13.4771 4.06504 13.7142 4.11797 13.9586C4.17879 14.2545 4.23962 14.5504 4.30229 14.8553C4.34126 15.0283 4.38023 15.2013 4.42038 15.3796C4.57597 16.0724 4.72227 16.7668 4.86843 17.4616C5.23521 19.1924 5.61431 20.9202 5.99414 22.6482C6.446 24.7106 6.89786 26.7729 7.36341 28.8977C14.5005 28.8977 21.6376 28.8977 28.991 28.8977C29.7325 25.5609 30.474 22.2241 31.238 18.7862C31.9577 15.5561 31.9577 15.5561 32.2221 14.3711C32.3907 13.3087 32.3907 13.3087 32.0806 12.326C31.6282 11.7722 31.6282 11.7722 31.08 11.2727C30.9 11.1004 30.7201 10.928 30.5347 10.7504C30.3267 10.5571 30.3267 10.5571 30.1145 10.3599C29.9856 10.4717 29.8567 10.5836 29.7239 10.6989C29.3685 11.0057 29.0115 11.3107 28.653 11.6139C28.2897 11.9243 27.9352 12.245 27.5866 12.5718C26.6785 13.0825 26.0818 13.0438 25.0587 12.8877C24.3191 12.4048 23.7103 11.8309 23.0925 11.2025C22.9347 11.045 22.7768 10.8875 22.6142 10.7252C22.494 10.6046 22.3738 10.4841 22.2499 10.3599C22.121 10.4717 21.9921 10.5836 21.8593 10.6989C21.5039 11.0057 21.1469 11.3107 20.7885 11.6139C20.4252 11.9243 20.0706 12.245 19.722 12.5718C18.814 13.0825 18.2173 13.0438 17.1941 12.8877C16.1262 12.2031 15.3677 11.4121 14.6662 10.3599C13.7608 10.7574 13.1716 11.2472 12.4719 11.9398C11.6702 12.6507 11.357 12.8751 10.2775 13.0984C8.62308 12.7308 7.77279 11.6709 6.80166 10.3599C5.97621 10.3599 5.66496 10.7405 5.04618 11.2727Z" fill="black"/>
<path d="M20.0032 17.6627C21.7643 17.6627 23.5254 17.6627 25.3398 17.6627C25.3398 19.4238 25.3398 21.1849 25.3398 22.9994C23.5787 22.9994 21.8176 22.9994 20.0032 22.9994C20.0032 21.2383 20.0032 19.4772 20.0032 17.6627Z" fill="black"/>
<path d="M11.0149 17.6627C12.776 17.6627 14.5371 17.6627 16.3516 17.6627C16.3516 19.4238 16.3516 21.1849 16.3516 22.9994C14.5905 22.9994 12.8294 22.9994 11.0149 22.9994C11.0149 21.2383 11.0149 19.4772 11.0149 17.6627Z" fill="black"/>
</svg>
