<svg width="20" height="20" viewBox="0 0 20 20" fill="none" xmlns="http://www.w3.org/2000/svg">
<path d="M4.18253 1.27271L1.27344 4.76361V16.9818C1.27344 17.4447 1.47777 17.8887 1.84147 18.216C2.20518 18.5434 2.69847 18.7273 3.21283 18.7273H16.7886C17.3029 18.7273 17.7962 18.5434 18.1599 18.216C18.5237 17.8887 18.728 17.4447 18.728 16.9818V4.76361L15.8189 1.27271H4.18253Z" stroke="#2F3841" stroke-width="1.5" stroke-linecap="round" stroke-linejoin="round"/>
<path d="M1.27344 4.76123H18.728" stroke="#2F3841" stroke-width="1.5" stroke-linecap="round" stroke-linejoin="round"/>
<path d="M13.8748 8.25366C13.8748 9.17951 13.4661 10.0674 12.7387 10.7221C12.0113 11.3768 11.0247 11.7446 9.99598 11.7446C8.96726 11.7446 7.98067 11.3768 7.25326 10.7221C6.52584 10.0674 6.11719 9.17951 6.11719 8.25366" stroke="#2F3841" stroke-width="1.5" stroke-linecap="round" stroke-linejoin="round"/>
</svg>
