<svg xmlns="http://www.w3.org/2000/svg" fill="none" viewBox="0 0 40 40" height="40" width="40">
<path fill="black" d="M6.24624 17.5127V36.0462C6.24624 36.1965 6.34636 36.3467 6.44664 36.447C6.54675 36.4971 6.64703 36.5471 6.74715 36.5471C6.7972 36.5471 6.84726 36.5471 6.89749 36.4971L15.7134 33.5417L24.5294 37.4488C24.5794 37.4989 24.6797 37.4989 24.7298 37.4989H24.8299L33.3453 35.4953C33.5958 35.4452 33.7461 35.2448 33.7461 34.9943V16.4608C33.7461 16.3105 33.696 16.1603 33.5457 16.06C33.4456 15.9599 33.2452 15.9097 33.0948 15.9599L26.7834 17.5127C28.2861 15.8096 29.1376 13.7058 29.1376 11.4016C29.1376 8.94714 28.1858 6.64301 26.4327 4.88984C22.9265 1.38349 17.1158 1.38349 13.5093 4.98995C10.8043 7.69489 10.053 11.9025 11.656 15.3086L6.54677 17.0117C6.39643 17.112 6.24609 17.2622 6.24609 17.5127L6.24624 17.5127ZM16.2644 32.6901V20.7185L19.6706 24.1247C19.7707 24.2248 19.9211 24.2751 20.0212 24.2751C20.1213 24.2751 20.2716 24.225 20.3717 24.1247L24.2789 20.2176V36.2466L16.2644 32.6901ZM32.7943 34.6437L25.2807 36.3969V19.2158L25.5311 18.9653L32.7943 17.1621V34.6437ZM14.2107 5.69133C15.8135 4.08851 17.9174 3.28689 20.0212 3.28689C22.1249 3.28689 24.2288 4.0883 25.8317 5.69133C27.3844 7.2441 28.2361 9.29777 28.2361 11.5018C28.2361 13.7059 27.3847 15.7595 25.8317 17.3124L20.0212 23.0728L14.2107 17.2623C13.6597 16.7113 13.1588 16.06 12.808 15.3587C11.1049 12.2031 11.7061 8.24587 14.2107 5.69125V5.69133ZM7.24805 17.8634L12.1569 16.2103C12.5577 16.8615 13.0084 17.4125 13.5093 17.9634L15.2625 19.7166V32.6901L7.24797 35.345L7.24805 17.8634Z"></path>
<path fill="black" d="M20.0238 15.7605C22.5283 15.7605 24.5319 13.7568 24.5319 11.2523C24.5319 8.74777 22.5283 6.74414 20.0238 6.74414C17.5193 6.74414 15.5156 8.74777 15.5156 11.2523C15.5156 13.7568 17.5193 15.7605 20.0238 15.7605ZM20.0238 7.74595C21.9774 7.74595 23.5301 9.29872 23.5301 11.2523C23.5301 13.2059 21.9774 14.7586 20.0238 14.7586C18.0702 14.7586 16.5174 13.2059 16.5174 11.2523C16.5174 9.29889 18.0702 7.74595 20.0238 7.74595Z"></path>
</svg>
