<svg xmlns="http://www.w3.org/2000/svg" fill="none" viewBox="0 0 40 40" height="40" width="40">
<mask fill="black" height="16" width="16" y="1.50049" x="11.4707" maskUnits="userSpaceOnUse" id="path-1-outside-1_24990_4310">
<rect height="16" width="16" y="1.50049" x="11.4707" fill="white"></rect>
<path d="M27.1881 7.2037C27.1826 7.18715 27.177 7.1742 27.1697 7.15952C27.166 7.15214 27.166 7.14663 27.1623 7.13926L24.1459 2.60731C24.1423 2.59994 24.1349 2.59628 24.1294 2.59076C24.1183 2.57788 24.1072 2.56685 24.0944 2.55576C24.0815 2.54653 24.0704 2.53735 24.0576 2.52998C24.0447 2.52261 24.0318 2.51709 24.017 2.51344C24.0005 2.50792 23.9839 2.5042 23.9673 2.5042C23.96 2.5042 23.9544 2.50055 23.9471 2.50055L15.7228 2.50049C15.7154 2.50049 15.7099 2.50414 15.7025 2.50414C15.6841 2.506 15.6675 2.50966 15.6509 2.51517C15.638 2.51883 15.6252 2.52441 15.6123 2.53172C15.5994 2.53909 15.5865 2.54826 15.5736 2.5575C15.5607 2.56853 15.5497 2.57962 15.5405 2.59065C15.5349 2.59616 15.5294 2.59988 15.5239 2.60719L12.5094 7.13929C12.5057 7.14481 12.5039 7.15218 12.502 7.15955C12.4946 7.1743 12.4891 7.18719 12.4836 7.20373C12.4781 7.22028 12.4762 7.23502 12.4744 7.25163C12.4744 7.259 12.4707 7.26452 12.4707 7.27189V8.46336C12.4707 9.16682 12.9864 9.74876 13.6584 9.86289V16.9932C13.6584 17.1258 13.7653 17.2326 13.8979 17.2326H25.7774C25.91 17.2326 26.0169 17.1258 26.0169 16.9932L26.0168 9.86289C26.689 9.75055 27.2045 9.16867 27.2045 8.46336V7.27189C27.2045 7.26452 27.2009 7.259 27.2009 7.25163C27.1954 7.23502 27.1917 7.22028 27.188 7.20373L27.1881 7.2037ZM15.8518 2.97928H23.8181L26.5159 7.03244H13.1558L15.8518 2.97928ZM24.3466 7.51123V8.46513C24.3466 8.98629 23.9231 9.40981 23.402 9.40981H23.3927C22.8716 9.40981 22.448 8.98623 22.448 8.46513V7.51123H24.3466ZM21.9711 7.51123V8.46513C21.9711 8.98629 21.5475 9.40981 21.0264 9.40981H21.0172C20.496 9.40981 20.0725 8.98623 20.0725 8.46513V7.51123H21.9711ZM19.5955 7.51123V8.46513C19.5955 8.98629 19.172 9.40981 18.6509 9.40981H18.6416C18.1205 9.40981 17.697 8.98623 17.697 8.46513V7.51123H19.5955ZM17.22 7.51123V8.46513C17.22 8.98629 16.7964 9.40981 16.2753 9.40981H16.2661C15.7449 9.40981 15.3214 8.98623 15.3214 8.46513V7.51123H17.22ZM13.8961 9.40798C13.8942 9.40798 13.8924 9.40984 13.8887 9.40984C13.3694 9.40798 12.9477 8.98626 12.9477 8.46697V7.51307H14.8444V8.46697C14.8444 8.98628 14.4227 9.40984 13.9016 9.40984C13.8997 9.40798 13.8979 9.40798 13.8961 9.40798H13.8961ZM19.1609 16.7538H15.7965V11.6141H19.1609V16.7538ZM25.5362 16.7538H19.6397V11.3747C19.6397 11.2421 19.5329 11.1353 19.4003 11.1353H15.5571C15.4245 11.1353 15.3177 11.2421 15.3177 11.3747L15.3177 16.7538H14.1336V9.86283C14.5277 9.79654 14.8684 9.57186 15.082 9.25145C15.338 9.6345 15.7726 9.88674 16.2661 9.88674H16.2753C16.7689 9.88674 17.2035 9.63444 17.4594 9.25145C17.7154 9.6345 18.15 9.88674 18.6435 9.88674H18.6528C19.1463 9.88674 19.5809 9.63444 19.8368 9.25145C20.0928 9.6345 20.5274 9.88674 21.0209 9.88674H21.0302C21.5237 9.88674 21.9583 9.63444 22.2142 9.25145C22.4702 9.6345 22.9048 9.88674 23.3983 9.88674H23.4076C23.9011 9.88674 24.3357 9.63444 24.5917 9.25145C24.8053 9.57186 25.146 9.79654 25.5401 9.86283L25.5399 16.7538H25.5362ZM26.7222 8.46513C26.7222 8.98444 26.3005 9.408 25.7812 9.408C25.7793 9.408 25.7775 9.40614 25.7738 9.40614C25.7719 9.40614 25.7683 9.408 25.7664 9.408C25.2471 9.40614 24.8236 8.98442 24.8236 8.46513V7.51123H26.7203V8.46513H26.7222Z"></path>
</mask>
<path fill="black" d="M27.1881 7.2037C27.1826 7.18715 27.177 7.1742 27.1697 7.15952C27.166 7.15214 27.166 7.14663 27.1623 7.13926L24.1459 2.60731C24.1423 2.59994 24.1349 2.59628 24.1294 2.59076C24.1183 2.57788 24.1072 2.56685 24.0944 2.55576C24.0815 2.54653 24.0704 2.53735 24.0576 2.52998C24.0447 2.52261 24.0318 2.51709 24.017 2.51344C24.0005 2.50792 23.9839 2.5042 23.9673 2.5042C23.96 2.5042 23.9544 2.50055 23.9471 2.50055L15.7228 2.50049C15.7154 2.50049 15.7099 2.50414 15.7025 2.50414C15.6841 2.506 15.6675 2.50966 15.6509 2.51517C15.638 2.51883 15.6252 2.52441 15.6123 2.53172C15.5994 2.53909 15.5865 2.54826 15.5736 2.5575C15.5607 2.56853 15.5497 2.57962 15.5405 2.59065C15.5349 2.59616 15.5294 2.59988 15.5239 2.60719L12.5094 7.13929C12.5057 7.14481 12.5039 7.15218 12.502 7.15955C12.4946 7.1743 12.4891 7.18719 12.4836 7.20373C12.4781 7.22028 12.4762 7.23502 12.4744 7.25163C12.4744 7.259 12.4707 7.26452 12.4707 7.27189V8.46336C12.4707 9.16682 12.9864 9.74876 13.6584 9.86289V16.9932C13.6584 17.1258 13.7653 17.2326 13.8979 17.2326H25.7774C25.91 17.2326 26.0169 17.1258 26.0169 16.9932L26.0168 9.86289C26.689 9.75055 27.2045 9.16867 27.2045 8.46336V7.27189C27.2045 7.26452 27.2009 7.259 27.2009 7.25163C27.1954 7.23502 27.1917 7.22028 27.188 7.20373L27.1881 7.2037ZM15.8518 2.97928H23.8181L26.5159 7.03244H13.1558L15.8518 2.97928ZM24.3466 7.51123V8.46513C24.3466 8.98629 23.9231 9.40981 23.402 9.40981H23.3927C22.8716 9.40981 22.448 8.98623 22.448 8.46513V7.51123H24.3466ZM21.9711 7.51123V8.46513C21.9711 8.98629 21.5475 9.40981 21.0264 9.40981H21.0172C20.496 9.40981 20.0725 8.98623 20.0725 8.46513V7.51123H21.9711ZM19.5955 7.51123V8.46513C19.5955 8.98629 19.172 9.40981 18.6509 9.40981H18.6416C18.1205 9.40981 17.697 8.98623 17.697 8.46513V7.51123H19.5955ZM17.22 7.51123V8.46513C17.22 8.98629 16.7964 9.40981 16.2753 9.40981H16.2661C15.7449 9.40981 15.3214 8.98623 15.3214 8.46513V7.51123H17.22ZM13.8961 9.40798C13.8942 9.40798 13.8924 9.40984 13.8887 9.40984C13.3694 9.40798 12.9477 8.98626 12.9477 8.46697V7.51307H14.8444V8.46697C14.8444 8.98628 14.4227 9.40984 13.9016 9.40984C13.8997 9.40798 13.8979 9.40798 13.8961 9.40798H13.8961ZM19.1609 16.7538H15.7965V11.6141H19.1609V16.7538ZM25.5362 16.7538H19.6397V11.3747C19.6397 11.2421 19.5329 11.1353 19.4003 11.1353H15.5571C15.4245 11.1353 15.3177 11.2421 15.3177 11.3747L15.3177 16.7538H14.1336V9.86283C14.5277 9.79654 14.8684 9.57186 15.082 9.25145C15.338 9.6345 15.7726 9.88674 16.2661 9.88674H16.2753C16.7689 9.88674 17.2035 9.63444 17.4594 9.25145C17.7154 9.6345 18.15 9.88674 18.6435 9.88674H18.6528C19.1463 9.88674 19.5809 9.63444 19.8368 9.25145C20.0928 9.6345 20.5274 9.88674 21.0209 9.88674H21.0302C21.5237 9.88674 21.9583 9.63444 22.2142 9.25145C22.4702 9.6345 22.9048 9.88674 23.3983 9.88674H23.4076C23.9011 9.88674 24.3357 9.63444 24.5917 9.25145C24.8053 9.57186 25.146 9.79654 25.5401 9.86283L25.5399 16.7538H25.5362ZM26.7222 8.46513C26.7222 8.98444 26.3005 9.408 25.7812 9.408C25.7793 9.408 25.7775 9.40614 25.7738 9.40614C25.7719 9.40614 25.7683 9.408 25.7664 9.408C25.2471 9.40614 24.8236 8.98442 24.8236 8.46513V7.51123H26.7203V8.46513H26.7222Z"></path>
<path mask="url(#path-1-outside-1_24990_4310)" stroke-width="0.375" stroke="black" d="M27.1881 7.2037C27.1826 7.18715 27.177 7.1742 27.1697 7.15952C27.166 7.15214 27.166 7.14663 27.1623 7.13926L24.1459 2.60731C24.1423 2.59994 24.1349 2.59628 24.1294 2.59076C24.1183 2.57788 24.1072 2.56685 24.0944 2.55576C24.0815 2.54653 24.0704 2.53735 24.0576 2.52998C24.0447 2.52261 24.0318 2.51709 24.017 2.51344C24.0005 2.50792 23.9839 2.5042 23.9673 2.5042C23.96 2.5042 23.9544 2.50055 23.9471 2.50055L15.7228 2.50049C15.7154 2.50049 15.7099 2.50414 15.7025 2.50414C15.6841 2.506 15.6675 2.50966 15.6509 2.51517C15.638 2.51883 15.6252 2.52441 15.6123 2.53172C15.5994 2.53909 15.5865 2.54826 15.5736 2.5575C15.5607 2.56853 15.5497 2.57962 15.5405 2.59065C15.5349 2.59616 15.5294 2.59988 15.5239 2.60719L12.5094 7.13929C12.5057 7.14481 12.5039 7.15218 12.502 7.15955C12.4946 7.1743 12.4891 7.18719 12.4836 7.20373C12.4781 7.22028 12.4762 7.23502 12.4744 7.25163C12.4744 7.259 12.4707 7.26452 12.4707 7.27189V8.46336C12.4707 9.16682 12.9864 9.74876 13.6584 9.86289V16.9932C13.6584 17.1258 13.7653 17.2326 13.8979 17.2326H25.7774C25.91 17.2326 26.0169 17.1258 26.0169 16.9932L26.0168 9.86289C26.689 9.75055 27.2045 9.16867 27.2045 8.46336V7.27189C27.2045 7.26452 27.2009 7.259 27.2009 7.25163C27.1954 7.23502 27.1917 7.22028 27.188 7.20373L27.1881 7.2037ZM15.8518 2.97928H23.8181L26.5159 7.03244H13.1558L15.8518 2.97928ZM24.3466 7.51123V8.46513C24.3466 8.98629 23.9231 9.40981 23.402 9.40981H23.3927C22.8716 9.40981 22.448 8.98623 22.448 8.46513V7.51123H24.3466ZM21.9711 7.51123V8.46513C21.9711 8.98629 21.5475 9.40981 21.0264 9.40981H21.0172C20.496 9.40981 20.0725 8.98623 20.0725 8.46513V7.51123H21.9711ZM19.5955 7.51123V8.46513C19.5955 8.98629 19.172 9.40981 18.6509 9.40981H18.6416C18.1205 9.40981 17.697 8.98623 17.697 8.46513V7.51123H19.5955ZM17.22 7.51123V8.46513C17.22 8.98629 16.7964 9.40981 16.2753 9.40981H16.2661C15.7449 9.40981 15.3214 8.98623 15.3214 8.46513V7.51123H17.22ZM13.8961 9.40798C13.8942 9.40798 13.8924 9.40984 13.8887 9.40984C13.3694 9.40798 12.9477 8.98626 12.9477 8.46697V7.51307H14.8444V8.46697C14.8444 8.98628 14.4227 9.40984 13.9016 9.40984C13.8997 9.40798 13.8979 9.40798 13.8961 9.40798H13.8961ZM19.1609 16.7538H15.7965V11.6141H19.1609V16.7538ZM25.5362 16.7538H19.6397V11.3747C19.6397 11.2421 19.5329 11.1353 19.4003 11.1353H15.5571C15.4245 11.1353 15.3177 11.2421 15.3177 11.3747L15.3177 16.7538H14.1336V9.86283C14.5277 9.79654 14.8684 9.57186 15.082 9.25145C15.338 9.6345 15.7726 9.88674 16.2661 9.88674H16.2753C16.7689 9.88674 17.2035 9.63444 17.4594 9.25145C17.7154 9.6345 18.15 9.88674 18.6435 9.88674H18.6528C19.1463 9.88674 19.5809 9.63444 19.8368 9.25145C20.0928 9.6345 20.5274 9.88674 21.0209 9.88674H21.0302C21.5237 9.88674 21.9583 9.63444 22.2142 9.25145C22.4702 9.6345 22.9048 9.88674 23.3983 9.88674H23.4076C23.9011 9.88674 24.3357 9.63444 24.5917 9.25145C24.8053 9.57186 25.146 9.79654 25.5401 9.86283L25.5399 16.7538H25.5362ZM26.7222 8.46513C26.7222 8.98444 26.3005 9.408 25.7812 9.408C25.7793 9.408 25.7775 9.40614 25.7738 9.40614C25.7719 9.40614 25.7683 9.408 25.7664 9.408C25.2471 9.40614 24.8236 8.98442 24.8236 8.46513V7.51123H26.7203V8.46513H26.7222Z"></path>
<path stroke-width="0.1875" stroke="black" fill="black" d="M24.1085 11.043H20.8527C20.6683 11.043 20.5195 11.1918 20.5195 11.3761V14.0021C20.5195 14.1865 20.6683 14.3353 20.8527 14.3353H24.1085C24.2929 14.3353 24.4417 14.1865 24.4417 14.0021L24.4416 11.3761C24.4416 11.1941 24.2933 11.043 24.1085 11.043ZM23.7772 13.669H21.1858V11.7093H23.7772L23.7772 13.669Z"></path>
<mask fill="black" height="16" width="16" y="20.813" x="23.3945" maskUnits="userSpaceOnUse" id="path-3-outside-2_24990_4310">
<rect height="16" width="16" y="20.813" x="23.3945" fill="white"></rect>
<path d="M39.1119 26.5162C39.1064 26.4997 39.1009 26.4867 39.0935 26.472C39.0898 26.4646 39.0898 26.4591 39.0861 26.4518L36.0697 21.9198C36.0661 21.9124 36.0587 21.9088 36.0532 21.9033C36.0422 21.8904 36.0311 21.8793 36.0182 21.8683C36.0053 21.859 35.9943 21.8499 35.9814 21.8425C35.9685 21.8351 35.9556 21.8296 35.9409 21.8259C35.9243 21.8204 35.9077 21.8167 35.8912 21.8167C35.8838 21.8167 35.8783 21.813 35.8709 21.813L27.6466 21.813C27.6392 21.813 27.6337 21.8166 27.6263 21.8166C27.6079 21.8185 27.5913 21.8222 27.5748 21.8277C27.5619 21.8313 27.549 21.8369 27.5361 21.8442C27.5232 21.8516 27.5103 21.8608 27.4974 21.87C27.4845 21.881 27.4735 21.8921 27.4643 21.9031C27.4588 21.9087 27.4533 21.9124 27.4477 21.9197L24.4332 26.4518C24.4295 26.4573 24.4277 26.4647 24.4258 26.4721C24.4184 26.4868 24.4129 26.4997 24.4074 26.5162C24.4019 26.5328 24.4 26.5475 24.3982 26.5641C24.3982 26.5715 24.3945 26.577 24.3945 26.5844V27.7759C24.3945 28.4793 24.9102 29.0613 25.5823 29.1754V36.3057C25.5823 36.4383 25.6891 36.5451 25.8217 36.5451H37.7013C37.8339 36.5451 37.9407 36.4383 37.9407 36.3057L37.9406 29.1754C38.6128 29.0631 39.1284 28.4812 39.1284 27.7759V26.5844C39.1284 26.577 39.1247 26.5715 39.1247 26.5641C39.1192 26.5475 39.1155 26.5328 39.1118 26.5162L39.1119 26.5162ZM27.7756 22.2918H35.7419L38.4398 26.3449H25.0796L27.7756 22.2918ZM36.2705 26.8237V27.7776C36.2705 28.2988 35.8469 28.7223 35.3258 28.7223H35.3165C34.7954 28.7223 34.3719 28.2987 34.3719 27.7776V26.8237H36.2705ZM33.8949 26.8237V27.7776C33.8949 28.2988 33.4713 28.7223 32.9502 28.7223H32.941C32.4198 28.7223 31.9963 28.2987 31.9963 27.7776V26.8237H33.8949ZM31.5194 26.8237V27.7776C31.5194 28.2988 31.0958 28.7223 30.5747 28.7223H30.5655C30.0443 28.7223 29.6208 28.2987 29.6208 27.7776V26.8237H31.5194ZM29.1438 26.8237V27.7776C29.1438 28.2988 28.7202 28.7223 28.1991 28.7223H28.1899C27.6688 28.7223 27.2452 28.2987 27.2452 27.7776V26.8237H29.1438ZM25.8199 28.7205C25.818 28.7205 25.8162 28.7223 25.8125 28.7223C25.2932 28.7205 24.8715 28.2988 24.8715 27.7795V26.8256H26.7683V27.7795C26.7683 28.2988 26.3466 28.7223 25.8254 28.7223C25.8235 28.7205 25.8218 28.7205 25.8199 28.7205H25.8199ZM31.0848 36.0663H27.7203V30.9266H31.0848V36.0663ZM37.4601 36.0663H31.5636V30.6872C31.5636 30.5546 31.4567 30.4478 31.3241 30.4478H27.4809C27.3483 30.4478 27.2415 30.5546 27.2415 30.6872L27.2415 36.0663H26.0575V29.1753C26.4515 29.109 26.7922 28.8844 27.0058 28.564C27.2618 28.947 27.6964 29.1992 28.1899 29.1992H28.1992C28.6927 29.1992 29.1273 28.9469 29.3833 28.564C29.6392 28.947 30.0738 29.1992 30.5673 29.1992H30.5766C31.0701 29.1992 31.5047 28.9469 31.7607 28.564C32.0166 28.947 32.4512 29.1992 32.9448 29.1992H32.954C33.4475 29.1992 33.8821 28.9469 34.1381 28.564C34.394 28.947 34.8286 29.1992 35.3222 29.1992H35.3314C35.8249 29.1992 36.2595 28.9469 36.5155 28.564C36.7291 28.8844 37.0698 29.109 37.4639 29.1753L37.4638 36.0663H37.4601ZM38.646 27.7776C38.646 28.2969 38.2243 28.7205 37.705 28.7205C37.7031 28.7205 37.7013 28.7186 37.6976 28.7186C37.6958 28.7186 37.6921 28.7205 37.6903 28.7205C37.171 28.7186 36.7474 28.2969 36.7474 27.7776V26.8237H38.6441V27.7776H38.646Z"></path>
</mask>
<path fill="black" d="M39.1119 26.5162C39.1064 26.4997 39.1009 26.4867 39.0935 26.472C39.0898 26.4646 39.0898 26.4591 39.0861 26.4518L36.0697 21.9198C36.0661 21.9124 36.0587 21.9088 36.0532 21.9033C36.0422 21.8904 36.0311 21.8793 36.0182 21.8683C36.0053 21.859 35.9943 21.8499 35.9814 21.8425C35.9685 21.8351 35.9556 21.8296 35.9409 21.8259C35.9243 21.8204 35.9077 21.8167 35.8912 21.8167C35.8838 21.8167 35.8783 21.813 35.8709 21.813L27.6466 21.813C27.6392 21.813 27.6337 21.8166 27.6263 21.8166C27.6079 21.8185 27.5913 21.8222 27.5748 21.8277C27.5619 21.8313 27.549 21.8369 27.5361 21.8442C27.5232 21.8516 27.5103 21.8608 27.4974 21.87C27.4845 21.881 27.4735 21.8921 27.4643 21.9031C27.4588 21.9087 27.4533 21.9124 27.4477 21.9197L24.4332 26.4518C24.4295 26.4573 24.4277 26.4647 24.4258 26.4721C24.4184 26.4868 24.4129 26.4997 24.4074 26.5162C24.4019 26.5328 24.4 26.5475 24.3982 26.5641C24.3982 26.5715 24.3945 26.577 24.3945 26.5844V27.7759C24.3945 28.4793 24.9102 29.0613 25.5823 29.1754V36.3057C25.5823 36.4383 25.6891 36.5451 25.8217 36.5451H37.7013C37.8339 36.5451 37.9407 36.4383 37.9407 36.3057L37.9406 29.1754C38.6128 29.0631 39.1284 28.4812 39.1284 27.7759V26.5844C39.1284 26.577 39.1247 26.5715 39.1247 26.5641C39.1192 26.5475 39.1155 26.5328 39.1118 26.5162L39.1119 26.5162ZM27.7756 22.2918H35.7419L38.4398 26.3449H25.0796L27.7756 22.2918ZM36.2705 26.8237V27.7776C36.2705 28.2988 35.8469 28.7223 35.3258 28.7223H35.3165C34.7954 28.7223 34.3719 28.2987 34.3719 27.7776V26.8237H36.2705ZM33.8949 26.8237V27.7776C33.8949 28.2988 33.4713 28.7223 32.9502 28.7223H32.941C32.4198 28.7223 31.9963 28.2987 31.9963 27.7776V26.8237H33.8949ZM31.5194 26.8237V27.7776C31.5194 28.2988 31.0958 28.7223 30.5747 28.7223H30.5655C30.0443 28.7223 29.6208 28.2987 29.6208 27.7776V26.8237H31.5194ZM29.1438 26.8237V27.7776C29.1438 28.2988 28.7202 28.7223 28.1991 28.7223H28.1899C27.6688 28.7223 27.2452 28.2987 27.2452 27.7776V26.8237H29.1438ZM25.8199 28.7205C25.818 28.7205 25.8162 28.7223 25.8125 28.7223C25.2932 28.7205 24.8715 28.2988 24.8715 27.7795V26.8256H26.7683V27.7795C26.7683 28.2988 26.3466 28.7223 25.8254 28.7223C25.8235 28.7205 25.8218 28.7205 25.8199 28.7205H25.8199ZM31.0848 36.0663H27.7203V30.9266H31.0848V36.0663ZM37.4601 36.0663H31.5636V30.6872C31.5636 30.5546 31.4567 30.4478 31.3241 30.4478H27.4809C27.3483 30.4478 27.2415 30.5546 27.2415 30.6872L27.2415 36.0663H26.0575V29.1753C26.4515 29.109 26.7922 28.8844 27.0058 28.564C27.2618 28.947 27.6964 29.1992 28.1899 29.1992H28.1992C28.6927 29.1992 29.1273 28.9469 29.3833 28.564C29.6392 28.947 30.0738 29.1992 30.5673 29.1992H30.5766C31.0701 29.1992 31.5047 28.9469 31.7607 28.564C32.0166 28.947 32.4512 29.1992 32.9448 29.1992H32.954C33.4475 29.1992 33.8821 28.9469 34.1381 28.564C34.394 28.947 34.8286 29.1992 35.3222 29.1992H35.3314C35.8249 29.1992 36.2595 28.9469 36.5155 28.564C36.7291 28.8844 37.0698 29.109 37.4639 29.1753L37.4638 36.0663H37.4601ZM38.646 27.7776C38.646 28.2969 38.2243 28.7205 37.705 28.7205C37.7031 28.7205 37.7013 28.7186 37.6976 28.7186C37.6958 28.7186 37.6921 28.7205 37.6903 28.7205C37.171 28.7186 36.7474 28.2969 36.7474 27.7776V26.8237H38.6441V27.7776H38.646Z"></path>
<path mask="url(#path-3-outside-2_24990_4310)" stroke-width="0.375" stroke="black" d="M39.1119 26.5162C39.1064 26.4997 39.1009 26.4867 39.0935 26.472C39.0898 26.4646 39.0898 26.4591 39.0861 26.4518L36.0697 21.9198C36.0661 21.9124 36.0587 21.9088 36.0532 21.9033C36.0422 21.8904 36.0311 21.8793 36.0182 21.8683C36.0053 21.859 35.9943 21.8499 35.9814 21.8425C35.9685 21.8351 35.9556 21.8296 35.9409 21.8259C35.9243 21.8204 35.9077 21.8167 35.8912 21.8167C35.8838 21.8167 35.8783 21.813 35.8709 21.813L27.6466 21.813C27.6392 21.813 27.6337 21.8166 27.6263 21.8166C27.6079 21.8185 27.5913 21.8222 27.5748 21.8277C27.5619 21.8313 27.549 21.8369 27.5361 21.8442C27.5232 21.8516 27.5103 21.8608 27.4974 21.87C27.4845 21.881 27.4735 21.8921 27.4643 21.9031C27.4588 21.9087 27.4533 21.9124 27.4477 21.9197L24.4332 26.4518C24.4295 26.4573 24.4277 26.4647 24.4258 26.4721C24.4184 26.4868 24.4129 26.4997 24.4074 26.5162C24.4019 26.5328 24.4 26.5475 24.3982 26.5641C24.3982 26.5715 24.3945 26.577 24.3945 26.5844V27.7759C24.3945 28.4793 24.9102 29.0613 25.5823 29.1754V36.3057C25.5823 36.4383 25.6891 36.5451 25.8217 36.5451H37.7013C37.8339 36.5451 37.9407 36.4383 37.9407 36.3057L37.9406 29.1754C38.6128 29.0631 39.1284 28.4812 39.1284 27.7759V26.5844C39.1284 26.577 39.1247 26.5715 39.1247 26.5641C39.1192 26.5475 39.1155 26.5328 39.1118 26.5162L39.1119 26.5162ZM27.7756 22.2918H35.7419L38.4398 26.3449H25.0796L27.7756 22.2918ZM36.2705 26.8237V27.7776C36.2705 28.2988 35.8469 28.7223 35.3258 28.7223H35.3165C34.7954 28.7223 34.3719 28.2987 34.3719 27.7776V26.8237H36.2705ZM33.8949 26.8237V27.7776C33.8949 28.2988 33.4713 28.7223 32.9502 28.7223H32.941C32.4198 28.7223 31.9963 28.2987 31.9963 27.7776V26.8237H33.8949ZM31.5194 26.8237V27.7776C31.5194 28.2988 31.0958 28.7223 30.5747 28.7223H30.5655C30.0443 28.7223 29.6208 28.2987 29.6208 27.7776V26.8237H31.5194ZM29.1438 26.8237V27.7776C29.1438 28.2988 28.7202 28.7223 28.1991 28.7223H28.1899C27.6688 28.7223 27.2452 28.2987 27.2452 27.7776V26.8237H29.1438ZM25.8199 28.7205C25.818 28.7205 25.8162 28.7223 25.8125 28.7223C25.2932 28.7205 24.8715 28.2988 24.8715 27.7795V26.8256H26.7683V27.7795C26.7683 28.2988 26.3466 28.7223 25.8254 28.7223C25.8235 28.7205 25.8218 28.7205 25.8199 28.7205H25.8199ZM31.0848 36.0663H27.7203V30.9266H31.0848V36.0663ZM37.4601 36.0663H31.5636V30.6872C31.5636 30.5546 31.4567 30.4478 31.3241 30.4478H27.4809C27.3483 30.4478 27.2415 30.5546 27.2415 30.6872L27.2415 36.0663H26.0575V29.1753C26.4515 29.109 26.7922 28.8844 27.0058 28.564C27.2618 28.947 27.6964 29.1992 28.1899 29.1992H28.1992C28.6927 29.1992 29.1273 28.9469 29.3833 28.564C29.6392 28.947 30.0738 29.1992 30.5673 29.1992H30.5766C31.0701 29.1992 31.5047 28.9469 31.7607 28.564C32.0166 28.947 32.4512 29.1992 32.9448 29.1992H32.954C33.4475 29.1992 33.8821 28.9469 34.1381 28.564C34.394 28.947 34.8286 29.1992 35.3222 29.1992H35.3314C35.8249 29.1992 36.2595 28.9469 36.5155 28.564C36.7291 28.8844 37.0698 29.109 37.4639 29.1753L37.4638 36.0663H37.4601ZM38.646 27.7776C38.646 28.2969 38.2243 28.7205 37.705 28.7205C37.7031 28.7205 37.7013 28.7186 37.6976 28.7186C37.6958 28.7186 37.6921 28.7205 37.6903 28.7205C37.171 28.7186 36.7474 28.2969 36.7474 27.7776V26.8237H38.6441V27.7776H38.646Z"></path>
<path stroke-width="0.1875" stroke="black" fill="black" d="M36.0323 30.3555H32.7765C32.5922 30.3555 32.4434 30.5043 32.4434 30.6886V33.3146C32.4434 33.499 32.5922 33.6478 32.7765 33.6478H36.0323C36.2167 33.6478 36.3655 33.499 36.3655 33.3146L36.3654 30.6886C36.3654 30.5066 36.2171 30.3555 36.0323 30.3555ZM35.701 32.9815H33.1097V31.0218H35.701L35.701 32.9815Z"></path>
<mask fill="black" height="16" width="16" y="21.1426" x="0.244141" maskUnits="userSpaceOnUse" id="path-5-outside-3_24990_4310">
<rect height="16" width="16" y="21.1426" x="0.244141" fill="white"></rect>
<path d="M15.9615 26.8458C15.956 26.8292 15.9505 26.8163 15.9431 26.8016C15.9395 26.7942 15.9395 26.7887 15.9357 26.7813L12.9193 22.2494C12.9157 22.242 12.9083 22.2384 12.9028 22.2329C12.8918 22.22 12.8807 22.2089 12.8678 22.1978C12.8549 22.1886 12.8439 22.1794 12.831 22.1721C12.8181 22.1647 12.8052 22.1592 12.7905 22.1555C12.7739 22.15 12.7573 22.1463 12.7408 22.1463C12.7334 22.1463 12.7279 22.1426 12.7205 22.1426L4.49619 22.1426C4.48882 22.1426 4.4833 22.1462 4.47593 22.1462C4.45752 22.1481 4.44092 22.1517 4.42437 22.1573C4.41149 22.1609 4.3986 22.1665 4.38571 22.1738C4.37282 22.1812 4.35993 22.1904 4.34705 22.1996C4.33416 22.2106 4.32313 22.2217 4.3139 22.2327C4.30838 22.2383 4.30287 22.242 4.29735 22.2493L1.2828 26.7814C1.27915 26.7869 1.27729 26.7943 1.27543 26.8016C1.26806 26.8164 1.26254 26.8293 1.25703 26.8458C1.25151 26.8624 1.24966 26.8771 1.2478 26.8937C1.2478 26.9011 1.24414 26.9066 1.24414 26.914V28.1055C1.24414 28.8089 1.75979 29.3909 2.43188 29.505V36.6353C2.43188 36.7679 2.5387 36.8747 2.67131 36.8747H14.5509C14.6835 36.8747 14.7903 36.7679 14.7903 36.6353L14.7902 29.505C15.4624 29.3926 15.978 28.8108 15.978 28.1055V26.914C15.978 26.9066 15.9743 26.9011 15.9743 26.8937C15.9688 26.8771 15.9651 26.8624 15.9614 26.8458L15.9615 26.8458ZM4.62519 22.6214H12.5916L15.2894 26.6745H1.92923L4.62519 22.6214ZM13.1201 27.1533V28.1072C13.1201 28.6284 12.6965 29.0519 12.1754 29.0519H12.1662C11.645 29.0519 11.2215 28.6283 11.2215 28.1072V27.1533H13.1201ZM10.7445 27.1533V28.1072C10.7445 28.6284 10.3209 29.0519 9.79984 29.0519H9.79061C9.26945 29.0519 8.84594 28.6283 8.84594 28.1072V27.1533H10.7445ZM8.36898 27.1533V28.1072C8.36898 28.6284 7.9454 29.0519 7.4243 29.0519H7.41507C6.89391 29.0519 6.47039 28.6283 6.47039 28.1072V27.1533H8.36898ZM5.99343 27.1533V28.1072C5.99343 28.6284 5.56986 29.0519 5.04876 29.0519H5.03952C4.51836 29.0519 4.09485 28.6283 4.09485 28.1072V27.1533H5.99343ZM2.66951 29.0501C2.66766 29.0501 2.66586 29.0519 2.66214 29.0519C2.14284 29.0501 1.72113 28.6284 1.72113 28.1091V27.1552H3.61788V28.1091C3.61788 28.6284 3.19618 29.0519 2.67502 29.0519C2.67316 29.0501 2.67136 29.0501 2.6695 29.0501H2.66951ZM7.93438 36.3958H4.56995V31.2562H7.93438V36.3958ZM14.3097 36.3958H8.41317V31.0168C8.41317 30.8842 8.30635 30.7774 8.17375 30.7774H4.33052C4.19793 30.7774 4.0911 30.8842 4.0911 31.0168L4.09116 36.3958H2.90707V29.5049C3.30115 29.4386 3.64181 29.214 3.85546 28.8935C4.11143 29.2766 4.54602 29.5288 5.03955 29.5288H5.04878C5.5423 29.5288 5.9769 29.2765 6.23287 28.8935C6.48884 29.2766 6.92343 29.5288 7.41696 29.5288H7.42619C7.91971 29.5288 8.35431 29.2765 8.61028 28.8935C8.86625 29.2766 9.30084 29.5288 9.79437 29.5288H9.8036C10.2971 29.5288 10.7317 29.2765 10.9877 28.8935C11.2437 29.2766 11.6783 29.5288 12.1718 29.5288H12.181C12.6745 29.5288 13.1091 29.2765 13.3651 28.8935C13.5787 29.214 13.9194 29.4386 14.3135 29.5049L14.3134 36.3958H14.3097ZM15.4956 28.1072C15.4956 28.6265 15.0739 29.0501 14.5546 29.0501C14.5528 29.0501 14.551 29.0482 14.5472 29.0482C14.5454 29.0482 14.5417 29.0501 14.5399 29.0501C14.0206 29.0482 13.597 28.6265 13.597 28.1072V27.1533H15.4938V28.1072H15.4956Z"></path>
</mask>
<path fill="black" d="M15.9615 26.8458C15.956 26.8292 15.9505 26.8163 15.9431 26.8016C15.9395 26.7942 15.9395 26.7887 15.9357 26.7813L12.9193 22.2494C12.9157 22.242 12.9083 22.2384 12.9028 22.2329C12.8918 22.22 12.8807 22.2089 12.8678 22.1978C12.8549 22.1886 12.8439 22.1794 12.831 22.1721C12.8181 22.1647 12.8052 22.1592 12.7905 22.1555C12.7739 22.15 12.7573 22.1463 12.7408 22.1463C12.7334 22.1463 12.7279 22.1426 12.7205 22.1426L4.49619 22.1426C4.48882 22.1426 4.4833 22.1462 4.47593 22.1462C4.45752 22.1481 4.44092 22.1517 4.42437 22.1573C4.41149 22.1609 4.3986 22.1665 4.38571 22.1738C4.37282 22.1812 4.35993 22.1904 4.34705 22.1996C4.33416 22.2106 4.32313 22.2217 4.3139 22.2327C4.30838 22.2383 4.30287 22.242 4.29735 22.2493L1.2828 26.7814C1.27915 26.7869 1.27729 26.7943 1.27543 26.8016C1.26806 26.8164 1.26254 26.8293 1.25703 26.8458C1.25151 26.8624 1.24966 26.8771 1.2478 26.8937C1.2478 26.9011 1.24414 26.9066 1.24414 26.914V28.1055C1.24414 28.8089 1.75979 29.3909 2.43188 29.505V36.6353C2.43188 36.7679 2.5387 36.8747 2.67131 36.8747H14.5509C14.6835 36.8747 14.7903 36.7679 14.7903 36.6353L14.7902 29.505C15.4624 29.3926 15.978 28.8108 15.978 28.1055V26.914C15.978 26.9066 15.9743 26.9011 15.9743 26.8937C15.9688 26.8771 15.9651 26.8624 15.9614 26.8458L15.9615 26.8458ZM4.62519 22.6214H12.5916L15.2894 26.6745H1.92923L4.62519 22.6214ZM13.1201 27.1533V28.1072C13.1201 28.6284 12.6965 29.0519 12.1754 29.0519H12.1662C11.645 29.0519 11.2215 28.6283 11.2215 28.1072V27.1533H13.1201ZM10.7445 27.1533V28.1072C10.7445 28.6284 10.3209 29.0519 9.79984 29.0519H9.79061C9.26945 29.0519 8.84594 28.6283 8.84594 28.1072V27.1533H10.7445ZM8.36898 27.1533V28.1072C8.36898 28.6284 7.9454 29.0519 7.4243 29.0519H7.41507C6.89391 29.0519 6.47039 28.6283 6.47039 28.1072V27.1533H8.36898ZM5.99343 27.1533V28.1072C5.99343 28.6284 5.56986 29.0519 5.04876 29.0519H5.03952C4.51836 29.0519 4.09485 28.6283 4.09485 28.1072V27.1533H5.99343ZM2.66951 29.0501C2.66766 29.0501 2.66586 29.0519 2.66214 29.0519C2.14284 29.0501 1.72113 28.6284 1.72113 28.1091V27.1552H3.61788V28.1091C3.61788 28.6284 3.19618 29.0519 2.67502 29.0519C2.67316 29.0501 2.67136 29.0501 2.6695 29.0501H2.66951ZM7.93438 36.3958H4.56995V31.2562H7.93438V36.3958ZM14.3097 36.3958H8.41317V31.0168C8.41317 30.8842 8.30635 30.7774 8.17375 30.7774H4.33052C4.19793 30.7774 4.0911 30.8842 4.0911 31.0168L4.09116 36.3958H2.90707V29.5049C3.30115 29.4386 3.64181 29.214 3.85546 28.8935C4.11143 29.2766 4.54602 29.5288 5.03955 29.5288H5.04878C5.5423 29.5288 5.9769 29.2765 6.23287 28.8935C6.48884 29.2766 6.92343 29.5288 7.41696 29.5288H7.42619C7.91971 29.5288 8.35431 29.2765 8.61028 28.8935C8.86625 29.2766 9.30084 29.5288 9.79437 29.5288H9.8036C10.2971 29.5288 10.7317 29.2765 10.9877 28.8935C11.2437 29.2766 11.6783 29.5288 12.1718 29.5288H12.181C12.6745 29.5288 13.1091 29.2765 13.3651 28.8935C13.5787 29.214 13.9194 29.4386 14.3135 29.5049L14.3134 36.3958H14.3097ZM15.4956 28.1072C15.4956 28.6265 15.0739 29.0501 14.5546 29.0501C14.5528 29.0501 14.551 29.0482 14.5472 29.0482C14.5454 29.0482 14.5417 29.0501 14.5399 29.0501C14.0206 29.0482 13.597 28.6265 13.597 28.1072V27.1533H15.4938V28.1072H15.4956Z"></path>
<path mask="url(#path-5-outside-3_24990_4310)" stroke-width="0.375" stroke="black" d="M15.9615 26.8458C15.956 26.8292 15.9505 26.8163 15.9431 26.8016C15.9395 26.7942 15.9395 26.7887 15.9357 26.7813L12.9193 22.2494C12.9157 22.242 12.9083 22.2384 12.9028 22.2329C12.8918 22.22 12.8807 22.2089 12.8678 22.1978C12.8549 22.1886 12.8439 22.1794 12.831 22.1721C12.8181 22.1647 12.8052 22.1592 12.7905 22.1555C12.7739 22.15 12.7573 22.1463 12.7408 22.1463C12.7334 22.1463 12.7279 22.1426 12.7205 22.1426L4.49619 22.1426C4.48882 22.1426 4.4833 22.1462 4.47593 22.1462C4.45752 22.1481 4.44092 22.1517 4.42437 22.1573C4.41149 22.1609 4.3986 22.1665 4.38571 22.1738C4.37282 22.1812 4.35993 22.1904 4.34705 22.1996C4.33416 22.2106 4.32313 22.2217 4.3139 22.2327C4.30838 22.2383 4.30287 22.242 4.29735 22.2493L1.2828 26.7814C1.27915 26.7869 1.27729 26.7943 1.27543 26.8016C1.26806 26.8164 1.26254 26.8293 1.25703 26.8458C1.25151 26.8624 1.24966 26.8771 1.2478 26.8937C1.2478 26.9011 1.24414 26.9066 1.24414 26.914V28.1055C1.24414 28.8089 1.75979 29.3909 2.43188 29.505V36.6353C2.43188 36.7679 2.5387 36.8747 2.67131 36.8747H14.5509C14.6835 36.8747 14.7903 36.7679 14.7903 36.6353L14.7902 29.505C15.4624 29.3926 15.978 28.8108 15.978 28.1055V26.914C15.978 26.9066 15.9743 26.9011 15.9743 26.8937C15.9688 26.8771 15.9651 26.8624 15.9614 26.8458L15.9615 26.8458ZM4.62519 22.6214H12.5916L15.2894 26.6745H1.92923L4.62519 22.6214ZM13.1201 27.1533V28.1072C13.1201 28.6284 12.6965 29.0519 12.1754 29.0519H12.1662C11.645 29.0519 11.2215 28.6283 11.2215 28.1072V27.1533H13.1201ZM10.7445 27.1533V28.1072C10.7445 28.6284 10.3209 29.0519 9.79984 29.0519H9.79061C9.26945 29.0519 8.84594 28.6283 8.84594 28.1072V27.1533H10.7445ZM8.36898 27.1533V28.1072C8.36898 28.6284 7.9454 29.0519 7.4243 29.0519H7.41507C6.89391 29.0519 6.47039 28.6283 6.47039 28.1072V27.1533H8.36898ZM5.99343 27.1533V28.1072C5.99343 28.6284 5.56986 29.0519 5.04876 29.0519H5.03952C4.51836 29.0519 4.09485 28.6283 4.09485 28.1072V27.1533H5.99343ZM2.66951 29.0501C2.66766 29.0501 2.66586 29.0519 2.66214 29.0519C2.14284 29.0501 1.72113 28.6284 1.72113 28.1091V27.1552H3.61788V28.1091C3.61788 28.6284 3.19618 29.0519 2.67502 29.0519C2.67316 29.0501 2.67136 29.0501 2.6695 29.0501H2.66951ZM7.93438 36.3958H4.56995V31.2562H7.93438V36.3958ZM14.3097 36.3958H8.41317V31.0168C8.41317 30.8842 8.30635 30.7774 8.17375 30.7774H4.33052C4.19793 30.7774 4.0911 30.8842 4.0911 31.0168L4.09116 36.3958H2.90707V29.5049C3.30115 29.4386 3.64181 29.214 3.85546 28.8935C4.11143 29.2766 4.54602 29.5288 5.03955 29.5288H5.04878C5.5423 29.5288 5.9769 29.2765 6.23287 28.8935C6.48884 29.2766 6.92343 29.5288 7.41696 29.5288H7.42619C7.91971 29.5288 8.35431 29.2765 8.61028 28.8935C8.86625 29.2766 9.30084 29.5288 9.79437 29.5288H9.8036C10.2971 29.5288 10.7317 29.2765 10.9877 28.8935C11.2437 29.2766 11.6783 29.5288 12.1718 29.5288H12.181C12.6745 29.5288 13.1091 29.2765 13.3651 28.8935C13.5787 29.214 13.9194 29.4386 14.3135 29.5049L14.3134 36.3958H14.3097ZM15.4956 28.1072C15.4956 28.6265 15.0739 29.0501 14.5546 29.0501C14.5528 29.0501 14.551 29.0482 14.5472 29.0482C14.5454 29.0482 14.5417 29.0501 14.5399 29.0501C14.0206 29.0482 13.597 28.6265 13.597 28.1072V27.1533H15.4938V28.1072H15.4956Z"></path>
<path stroke-width="0.1875" stroke="black" fill="black" d="M12.8839 30.6846H9.6281C9.44373 30.6846 9.29492 30.8334 9.29492 31.0177V33.6437C9.29492 33.8281 9.44371 33.9769 9.6281 33.9769H12.8839C13.0683 33.9769 13.2171 33.8281 13.2171 33.6437L13.217 31.0177C13.217 30.8357 13.0687 30.6846 12.8839 30.6846ZM12.5526 33.3106H9.96121V31.3509H12.5526L12.5526 33.3106Z"></path>
<path stroke-width="0.9375" stroke="black" d="M28.2539 11.6201H34.2169V22.1843"></path>
<path stroke-width="0.9375" stroke="black" d="M11.0631 10.9185H6.15234V22.1429"></path>
</svg>
