<svg xmlns="http://www.w3.org/2000/svg" fill="none" viewBox="0 0 40 40" height="40" width="40">
<g clip-path="url(#clip0_24990_4325)">
<path fill="black" d="M35.4215 24.713H29.1135V17.1316H29.5987C30.4023 17.1316 31.0531 16.4795 31.0544 15.676V12.8293C31.0531 12.0257 30.4022 11.3749 29.5987 11.3736H28.5467L28.7214 10.1495V10.1508C28.9323 8.67831 28.3255 7.20709 27.1376 6.31295C25.9485 5.41884 24.3673 5.24155 23.0113 5.85102L22.9362 5.88596H22.9349C21.2916 6.63902 19.8049 7.6975 18.5548 9.00309H16.2516C15.0016 7.69621 13.5149 6.63906 11.8715 5.88596L11.7964 5.85232C10.4391 5.24156 8.85786 5.41755 7.67003 6.31295C6.48091 7.20706 5.87403 8.67828 6.08493 10.1508L6.25962 11.3749L5.20763 11.3736C4.40409 11.3749 3.75325 12.0258 3.75195 12.8293V15.676C3.75325 16.4795 4.40412 17.1316 5.20763 17.1316H5.69285V33.5441C5.69414 34.3476 6.34501 34.9985 7.14853 34.9998H35.4214C36.2249 34.9985 36.8758 34.3476 36.8771 33.5441V26.1685C36.8758 25.3649 36.2249 24.7141 35.4214 24.7128L35.4215 24.713ZM32.5425 28.4395C32.5425 28.1523 32.7159 27.8922 32.9811 27.7822C33.2477 27.6722 33.5531 27.733 33.7562 27.9362C33.9606 28.1393 34.0214 28.446 33.9114 28.7126C33.8015 28.9778 33.5414 29.1512 33.2541 29.1512H32.5425L32.5425 28.4395ZM27.9878 12.3441H29.5988C29.8666 12.3454 30.084 12.5615 30.084 12.8293V15.676C30.084 15.9438 29.8666 16.1612 29.5988 16.1612H20.6745V12.3442L27.9878 12.3441ZM20.6523 11.3736C21.9656 10.7318 23.3993 10.2751 24.7306 10.0784C25.3103 9.99297 26.1436 9.92309 26.687 10.3009H26.6883C27.0597 10.5571 27.3275 10.9376 27.4401 11.3736L20.6523 11.3736ZM16.5298 9.97356H18.2767V11.3736H16.5298V9.97356ZM5.20771 16.1613C4.93987 16.1613 4.7225 15.9439 4.7225 15.6761V12.8294C4.7225 12.5616 4.93988 12.3455 5.20771 12.3442H14.1332V16.1612L5.20771 16.1613ZM7.36601 11.3738C7.47858 10.9377 7.74641 10.5573 8.11778 10.3011C8.66123 9.92324 9.49452 9.99311 10.0742 10.0785C11.4057 10.2752 12.8407 10.732 14.1526 11.3738L7.36601 11.3738ZM14.6174 34.0296H7.14871C6.88086 34.0296 6.66349 33.8122 6.66349 33.5444V17.1435H14.6175L14.6174 34.0296ZM10.2167 9.11993C9.47402 9.00994 8.39099 8.93101 7.56416 9.50554C7.37136 9.63881 7.19538 9.79667 7.04141 9.97396C6.8952 8.85728 7.3649 7.74835 8.26936 7.07681C9.17255 6.40527 10.3694 6.27456 11.3968 6.73652L11.4667 6.76757V6.76887C13.0026 7.47277 14.3923 8.46135 15.5593 9.68284V11.0363C15.3704 10.9289 15.2125 10.8396 15.1064 10.7788C15.0171 10.727 14.9589 10.6947 14.9408 10.6856C13.445 9.90409 11.768 9.34898 10.2165 9.11995L10.2167 9.11993ZM19.2188 34.0296H15.588V17.1435H19.2175L19.2188 34.0296ZM19.704 16.1616H15.1026V12.3446H19.704V16.1616ZM19.7001 10.7775C19.594 10.8383 19.4375 10.9289 19.2472 11.035V9.68154C20.4144 8.46006 21.8041 7.47147 23.3398 6.76886L23.4097 6.73651C24.4371 6.27458 25.634 6.40526 26.5372 7.0768C27.4417 7.74835 27.9113 8.85727 27.7651 9.97395C27.6111 9.79668 27.4352 9.63883 27.2424 9.50553C26.4155 8.93101 25.3325 9.00995 24.5898 9.11992C23.0396 9.34895 21.3614 9.90535 19.8655 10.6843C19.8474 10.6934 19.7892 10.727 19.6999 10.7788L19.7001 10.7775ZM22.0163 34.0296H20.1893V17.1435H28.1432V24.7132H23.3881C22.5846 24.7145 21.9338 25.3654 21.9325 26.1689V33.5445C21.9325 33.7101 21.9609 33.8744 22.0153 34.0297L22.0163 34.0296ZM31.5722 34.0296H23.388C23.1202 34.0296 22.9028 33.8122 22.9028 33.5444V30.1246H30.8826L29.9626 31.0445C29.7737 31.2335 29.7737 31.5414 29.9639 31.7303C30.1528 31.9192 30.4595 31.9192 30.6497 31.7303L31.5723 30.8077L31.5722 34.0296ZM31.5722 29.1513H30.8605C30.572 29.1513 30.3132 28.9779 30.2019 28.7126C30.0919 28.4461 30.1527 28.1394 30.3572 27.9363C30.5603 27.7331 30.867 27.6723 31.1323 27.7823C31.3988 27.8923 31.5722 28.1524 31.5722 28.4396L31.5722 29.1513ZM31.5722 26.9153C30.9304 26.6164 30.1696 26.7497 29.6688 27.2505C29.1693 27.7525 29.0361 28.5134 29.3376 29.1539H22.9027V26.1687C22.9027 25.9009 23.1201 25.6835 23.3879 25.6835H31.5721L31.5722 26.9153ZM35.9069 33.5443C35.9069 33.8122 35.6896 34.0295 35.4217 34.0295H32.5427V30.8076L33.4653 31.7302H33.464C33.6542 31.9204 33.9609 31.9204 34.1511 31.7302C34.34 31.5413 34.34 31.2333 34.1511 31.0444L33.2311 30.1244H35.907L35.9069 33.5443ZM35.9069 29.1539H34.776C35.0775 28.5134 34.9442 27.7526 34.4448 27.2505C33.944 26.7498 33.1832 26.6165 32.5427 26.9154V25.6836H35.4217C35.6895 25.6836 35.9069 25.9009 35.9069 26.1688L35.9069 29.1539Z"></path>
</g>
<defs>
<clipPath id="clip0_24990_4325">
<rect transform="translate(3.75195 1.875)" fill="white" height="33.125" width="33.125"></rect>
</clipPath>
</defs>
</svg>
