<svg width="26" height="27" viewBox="0 0 26 27" fill="none" xmlns="http://www.w3.org/2000/svg">
<path d="M13 22.6667H19.9333C20.5401 22.6667 20.8438 22.6666 21.0756 22.5486C21.2794 22.4447 21.4443 22.279 21.5482 22.0752C21.6663 21.8434 21.6667 21.54 21.6667 20.9333V15.7333C21.6667 15.1266 21.6663 14.8233 21.5482 14.5915C21.4443 14.3877 21.2794 14.2219 21.0756 14.1181C20.8438 14 20.5396 14 19.9329 14H14.7329M13 22.6667V15.7333M13 22.6667H6.06624C5.45952 22.6667 5.15646 22.6666 4.92472 22.5486C4.72088 22.4447 4.55527 22.279 4.45141 22.0752C4.33333 21.8434 4.33333 21.54 4.33333 20.9333V15.7333C4.33333 15.1266 4.33333 14.8233 4.45141 14.5915C4.55527 14.3877 4.72088 14.2219 4.92472 14.1181C5.15646 14 5.45952 14 6.06624 14H11.2662M13 15.7333C13 15.1266 13 14.8233 13.1181 14.5915C13.2219 14.3877 13.3875 14.2219 13.5914 14.1181C13.8231 14 14.1262 14 14.7329 14M13 15.7333C13 15.1266 12.9996 14.8233 12.8815 14.5915C12.7776 14.3877 12.6128 14.2219 12.4089 14.1181C12.1772 14 11.873 14 11.2662 14M14.7329 14H21.0162C21.623 14 21.9272 14 22.1589 13.8819C22.3628 13.778 22.5276 13.6124 22.6315 13.4085C22.7496 13.1768 22.75 12.8734 22.75 12.2666V11.4C22.75 10.7932 22.7496 10.4899 22.6315 10.2582C22.5276 10.0543 22.3628 9.88861 22.1589 9.78474C21.9272 9.66667 21.623 9.66667 21.0162 9.66667H14.7329C14.1262 9.66667 13.8231 9.66667 13.5914 9.78474C13.3875 9.88861 13.2219 10.0543 13.1181 10.2582C13 10.4899 13 10.7932 13 11.4M14.7329 14C14.1262 14 13.8231 14 13.5914 13.8819C13.3875 13.778 13.2219 13.6124 13.1181 13.4085C13 13.1768 13 12.8734 13 12.2666M11.2662 14H4.98291C4.37619 14 4.07313 14 3.84139 13.8819C3.63755 13.778 3.47194 13.6124 3.36808 13.4085C3.25 13.1768 3.25 12.8734 3.25 12.2666V11.4C3.25 10.7932 3.25 10.4899 3.36808 10.2582C3.47194 10.0543 3.63755 9.88861 3.84139 9.78474C4.07313 9.66667 4.37619 9.66667 4.98291 9.66667H11.2662C11.873 9.66667 12.1772 9.66667 12.4089 9.78474C12.6128 9.88861 12.7776 10.0543 12.8815 10.2582C12.9996 10.4899 13 10.7932 13 11.4M11.2662 14C11.873 14 12.1772 14 12.4089 13.8819C12.6128 13.778 12.7776 13.6124 12.8815 13.4085C12.9996 13.1768 13 12.8734 13 12.2666M13 12.2666V11.4M13 6.95833V9.66667M13 6.95833C13 5.46256 14.2126 4.25 15.7083 4.25C17.2041 4.25 18.4167 5.46256 18.4167 6.95833C18.4167 8.4541 17.2041 9.66667 15.7083 9.66667H13M13 6.95833C13 5.46256 11.7874 4.25 10.2917 4.25C8.7959 4.25 7.58333 5.46256 7.58333 6.95833C7.58333 8.4541 8.7959 9.66667 10.2917 9.66667H13" stroke="#221F20" stroke-opacity="0.9" stroke-width="1.3" stroke-linecap="round" stroke-linejoin="round"/>
<mask id="mask0_6785_12777" style="mask-type:alpha" maskUnits="userSpaceOnUse" x="0" y="1" width="26" height="26">
<path d="M13 22.6667H19.9333C20.5401 22.6667 20.8438 22.6666 21.0756 22.5486C21.2794 22.4447 21.4443 22.279 21.5482 22.0752C21.6663 21.8434 21.6667 21.54 21.6667 20.9333V15.7333C21.6667 15.1266 21.6663 14.8233 21.5482 14.5915C21.4443 14.3877 21.2794 14.2219 21.0756 14.1181C20.8438 14 20.5396 14 19.9329 14H14.7329M13 22.6667V15.7333M13 22.6667H6.06624C5.45952 22.6667 5.15646 22.6666 4.92472 22.5486C4.72088 22.4447 4.55527 22.279 4.45141 22.0752C4.33333 21.8434 4.33333 21.54 4.33333 20.9333V15.7333C4.33333 15.1266 4.33333 14.8233 4.45141 14.5915C4.55527 14.3877 4.72088 14.2219 4.92472 14.1181C5.15646 14 5.45952 14 6.06624 14H11.2662M13 15.7333C13 15.1266 13 14.8233 13.1181 14.5915C13.2219 14.3877 13.3875 14.2219 13.5914 14.1181C13.8231 14 14.1262 14 14.7329 14M13 15.7333C13 15.1266 12.9996 14.8233 12.8815 14.5915C12.7776 14.3877 12.6128 14.2219 12.4089 14.1181C12.1772 14 11.873 14 11.2662 14M14.7329 14H21.0162C21.623 14 21.9272 14 22.1589 13.8819C22.3628 13.778 22.5276 13.6124 22.6315 13.4085C22.7496 13.1768 22.75 12.8734 22.75 12.2666V11.4C22.75 10.7932 22.7496 10.4899 22.6315 10.2582C22.5276 10.0543 22.3628 9.88861 22.1589 9.78474C21.9272 9.66667 21.623 9.66667 21.0162 9.66667H14.7329C14.1262 9.66667 13.8231 9.66667 13.5914 9.78474C13.3875 9.88861 13.2219 10.0543 13.1181 10.2582C13 10.4899 13 10.7932 13 11.4M14.7329 14C14.1262 14 13.8231 14 13.5914 13.8819C13.3875 13.778 13.2219 13.6124 13.1181 13.4085C13 13.1768 13 12.8734 13 12.2666M11.2662 14H4.98291C4.37619 14 4.07313 14 3.84139 13.8819C3.63755 13.778 3.47194 13.6124 3.36808 13.4085C3.25 13.1768 3.25 12.8734 3.25 12.2666V11.4C3.25 10.7932 3.25 10.4899 3.36808 10.2582C3.47194 10.0543 3.63755 9.88861 3.84139 9.78474C4.07313 9.66667 4.37619 9.66667 4.98291 9.66667H11.2662C11.873 9.66667 12.1772 9.66667 12.4089 9.78474C12.6128 9.88861 12.7776 10.0543 12.8815 10.2582C12.9996 10.4899 13 10.7932 13 11.4M11.2662 14C11.873 14 12.1772 14 12.4089 13.8819C12.6128 13.778 12.7776 13.6124 12.8815 13.4085C12.9996 13.1768 13 12.8734 13 12.2666M13 12.2666V11.4M13 6.95833V9.66667M13 6.95833C13 5.46256 14.2126 4.25 15.7083 4.25C17.2041 4.25 18.4167 5.46256 18.4167 6.95833C18.4167 8.4541 17.2041 9.66667 15.7083 9.66667H13M13 6.95833C13 5.46256 11.7874 4.25 10.2917 4.25C8.7959 4.25 7.58333 5.46256 7.58333 6.95833C7.58333 8.4541 8.7959 9.66667 10.2917 9.66667H13" stroke="#221F20" stroke-opacity="0.9" stroke-width="1.3" stroke-linecap="round" stroke-linejoin="round"/>
</mask>
<g mask="url(#mask0_6785_12777)">
<rect x="5" width="17" height="9" fill="#428BC1"/>
<path d="M12 10H14V22H12V10Z" fill="#428BC1"/>
</g>
</svg>
