<svg width="33" height="18" viewBox="0 0 33 18" fill="none" xmlns="http://www.w3.org/2000/svg">
<path d="M21.6969 12.1324C23.1573 12.1324 24.3047 11.8717 25.1392 11.3501C25.9737 10.8285 26.8082 10.0723 27.6427 9.08131H27.721C27.8774 9.08131 28.0078 9.15954 28.1121 9.31601C28.2686 9.42032 28.2947 9.52464 28.1904 9.62895C25.9477 12.9148 24.1483 15.1053 22.7922 16.2006C21.4362 17.2959 19.9236 17.8435 18.2546 17.8435C17.3158 17.8435 16.4031 17.7392 15.5164 17.5306C14.6298 17.2698 13.6127 16.9047 12.4653 16.4353C11.3179 15.9659 10.2748 15.6008 9.33594 15.34C8.44929 15.0793 7.4844 14.9489 6.44128 14.9489C5.18953 14.9489 4.22464 15.1314 3.54661 15.4965C2.92074 15.8616 2.32095 16.331 1.74723 16.9047C1.17351 17.4263 0.782342 17.7914 0.573717 18H0.495483C0.391171 18 0.26078 17.9478 0.104312 17.8435C6.7661e-08 17.6871 -0.026078 17.5567 0.026078 17.4524C1.27782 15.314 2.71212 13.4363 4.32896 11.8195C5.99795 10.1505 7.77126 9.31601 9.64888 9.31601C10.3791 9.31601 11.1875 9.4464 12.0741 9.70718C13.0129 9.96796 13.9518 10.2548 14.8906 10.5678C17.707 11.6109 19.9758 12.1324 21.6969 12.1324Z" fill="url(#paint0_linear_250_1799)"/>
<path d="M25.7331 3.05113C27.1934 3.05113 28.3409 2.79035 29.1754 2.26879C30.0099 1.74723 30.8444 0.990966 31.6789 0H31.7571C31.9136 0 32.044 0.0782339 32.1483 0.234702C32.3047 0.339014 32.3308 0.443327 32.2265 0.547639C29.9838 3.83347 28.1844 6.02403 26.8284 7.11931C25.4723 8.21458 23.9598 8.76222 22.2908 8.76222C21.352 8.76222 20.4392 8.65791 19.5526 8.44929C18.6659 8.18851 17.6489 7.82341 16.5014 7.35401C15.354 6.8846 14.3109 6.51951 13.3721 6.25873C12.4854 5.99795 11.5205 5.86756 10.4774 5.86756C9.22567 5.86756 8.26078 6.05011 7.58275 6.4152C6.95688 6.78029 6.35708 7.2497 5.78337 7.82341C5.20965 8.34497 4.81848 8.71007 4.60985 8.91869H4.53162C4.42731 8.91869 4.29692 8.86654 4.14045 8.76222C4.03614 8.60576 4.01006 8.47537 4.06222 8.37105C5.31396 6.23265 6.74825 4.35503 8.36509 2.73819C10.0341 1.0692 11.8074 0.234702 13.685 0.234702C14.4152 0.234702 15.2236 0.365092 16.1103 0.625872C17.0491 0.886652 17.9879 1.17351 18.9267 1.48645C21.7431 2.52957 24.0119 3.05113 25.7331 3.05113Z" fill="url(#paint1_linear_250_1799)"/>
<defs>
<linearGradient id="paint0_linear_250_1799" x1="-3.53162" y1="18.1626" x2="38.8478" y2="3.27123e-06" gradientUnits="userSpaceOnUse">
<stop stop-color="#CBE5F3"/>
<stop offset="1" stop-color="#15A0EE"/>
</linearGradient>
<linearGradient id="paint1_linear_250_1799" x1="-3.53162" y1="18.1626" x2="38.8478" y2="3.27123e-06" gradientUnits="userSpaceOnUse">
<stop stop-color="#CBE5F3"/>
<stop offset="1" stop-color="#15A0EE"/>
</linearGradient>
</defs>
</svg>
