<svg width="26" height="21" viewBox="0 0 26 21" fill="none" xmlns="http://www.w3.org/2000/svg">
<path d="M16.4628 20.8915C16.6898 20.8324 16.8656 20.6536 16.9183 20.4267C16.9183 20.4267 16.9183 20.4267 16.9183 20.4267L17.8572 16.3931H22.0876C23.7206 16.3929 25.05 15.0794 25.05 13.4635V13.415L25.0496 13.415V3.8794C25.0496 2.2635 23.7204 0.95 22.0874 0.95H3.91221C2.27928 0.95 0.95 2.26344 0.95 3.8794V13.4635C0.95 15.0794 2.27923 16.3929 3.91221 16.3929H11.845L15.8355 20.7086L15.8355 20.7087C15.957 20.84 16.1271 20.9121 16.3021 20.9121C16.3556 20.9121 16.4097 20.9054 16.4628 20.8915ZM16.4628 20.8915L16.4502 20.8431M16.4628 20.8915C16.4628 20.8915 16.4629 20.8915 16.4629 20.8915L16.4502 20.8431M16.4502 20.8431C16.6595 20.7886 16.8211 20.6239 16.8696 20.4154M16.4502 20.8431C16.4014 20.8559 16.3514 20.8621 16.3021 20.8621C16.1407 20.8621 15.9841 20.7956 15.8722 20.6747L16.8696 20.4154M16.8696 20.4154L17.8175 16.3431L16.8696 20.4154ZM16.7373 15.6265L16.7373 15.6265L15.9556 18.9847L12.5897 15.3445L12.5897 15.3445C12.4697 15.215 12.3006 15.1411 12.1232 15.1411H3.91187C2.97542 15.1411 2.21459 14.388 2.21459 13.4635V3.87939C2.21459 2.95486 2.97547 2.20179 3.91187 2.20179H22.0871C23.0235 2.20179 23.7843 2.95491 23.7843 3.87939L23.7847 13.4635C23.7847 14.388 23.0239 15.1411 22.0875 15.1411H17.3537C17.0593 15.1411 16.8036 15.3421 16.7373 15.6265Z" fill="#5C9FED" stroke="#5C9FED" stroke-width="0.1"/>
<circle cx="8.03447" cy="8.86198" r="1.24138" fill="#5C9FED"/>
<circle cx="13" cy="8.86198" r="1.24138" fill="#5C9FED"/>
<circle cx="17.9655" cy="8.86198" r="1.24138" fill="#5C9FED"/>
</svg>
