<svg width="15" height="15" viewBox="0 0 15 15" fill="none" xmlns="http://www.w3.org/2000/svg">
<path d="M11.4222 8.85039L11.3795 8.87637C11.323 8.78351 11.2253 8.73494 11.0786 8.66447C11.0761 8.66327 11.0641 8.65741 11.0443 8.64772C10.9584 8.60562 10.7251 8.49134 10.4819 8.37419C10.179 8.22834 9.8603 8.07787 9.76623 8.044C9.68694 8.01553 9.60926 7.99065 9.52842 7.99065C9.40065 7.99065 9.29093 8.05302 9.20166 8.18657L9.20158 8.18669C9.09016 8.35231 8.75714 8.74137 8.65544 8.8563C8.64816 8.86461 8.63849 8.87497 8.62827 8.88368C8.62315 8.88804 8.61672 8.89299 8.60945 8.89709C8.60311 8.90067 8.59094 8.90662 8.57553 8.90662C8.56968 8.90662 8.5649 8.90558 8.5636 8.90529L8.56352 8.90528L8.55805 8.90388L8.54866 8.90086C8.54222 8.89865 8.53401 8.89561 8.52481 8.8921C8.5063 8.88504 8.48227 8.87549 8.45719 8.86534C8.40706 8.84506 8.35151 8.8219 8.32535 8.81053C7.73041 8.5521 7.20925 8.11331 6.8225 7.71513C6.43585 7.31704 6.18011 6.95593 6.11665 6.84853L6.11658 6.84841C6.11266 6.84173 6.10935 6.83557 6.10656 6.8299H6.07595L6.09315 6.76676C6.09692 6.7529 6.1055 6.74085 6.11016 6.73455C6.11613 6.7265 6.12327 6.71813 6.13022 6.71039C6.14404 6.69501 6.15974 6.67927 6.1698 6.66919L6.17008 6.6689L6.17031 6.66867L11.4222 8.85039ZM11.4222 8.85039C11.3566 8.74249 11.2435 8.68818 11.1003 8.61944L11.1002 8.6194L5.55781 3.93266C5.51012 3.93467 5.34751 3.95363 5.1655 3.99174C4.98221 4.03012 4.78842 4.08612 4.67302 4.15887M11.4222 8.85039L11.3794 8.87623C11.398 8.90701 11.4124 8.95587 11.4197 9.02221C11.427 9.08769 11.4268 9.16634 11.4193 9.25365C11.4041 9.42828 11.3596 9.63345 11.289 9.82979L11.336 9.84672L11.289 9.82979C11.2032 10.0682 10.9678 10.2919 10.7014 10.4616C10.4354 10.6311 10.1508 10.7389 9.97892 10.7541L9.9786 10.7542L9.92493 10.7593L9.92477 10.7593C9.84027 10.7676 9.74651 10.7768 9.62938 10.7768H9.62938H9.62937H9.62937H9.62936H9.62936H9.62936H9.62935H9.62935H9.62934H9.62934H9.62934H9.62933C9.35237 10.7768 8.85732 10.7299 7.80229 10.3084C6.71388 9.87364 5.63593 8.93936 4.76943 7.67391C4.76704 7.67041 4.76473 7.66702 4.76251 7.66378C4.75135 7.64743 4.74255 7.63453 4.73713 7.62729L4.73693 7.62703C4.51032 7.32836 3.99043 6.55227 3.99043 5.73584C3.99043 4.82517 4.42608 4.31455 4.67302 4.15887M4.67302 4.15887L4.64636 4.11657L4.67302 4.15887ZM6.44244 6.35489C6.41298 6.38894 6.38305 6.42499 6.35355 6.46051L5.55782 3.93266C5.6211 3.92999 5.62601 3.92935 5.63094 3.92919C5.63285 3.92914 5.63476 3.92915 5.64006 3.92915C5.7372 3.92915 5.81883 3.95821 5.89024 4.01845C5.96283 4.07969 6.02743 4.17535 6.08474 4.31249L6.08476 4.31254C6.09653 4.34061 6.13204 4.42606 6.1796 4.5405C6.23114 4.66451 6.29682 4.82257 6.36177 4.97853C6.48583 5.27646 6.60888 5.57084 6.62284 5.59875L6.62301 5.5991C6.6537 5.65928 6.74017 5.83043 6.63775 6.03391L6.63765 6.03412L6.61315 6.08336L6.61308 6.08351C6.56663 6.17765 6.52858 6.25468 6.44233 6.35502L6.48025 6.38761L6.44244 6.35489Z" fill="#221F20" fill-opacity="0.54" stroke="white" stroke-width="0.1"/>
<path d="M1.32307 11.026L1.33045 11.0043L1.31875 10.9845C0.662208 9.87502 0.315606 8.60731 0.315606 7.31216C0.315606 3.3082 3.59793 0.05 7.63314 0.05C11.668 0.05 14.95 3.30819 14.95 7.31216C14.95 11.3157 11.668 14.5736 7.63319 14.5735C6.42303 14.5735 5.22734 14.2751 4.16954 13.7099L4.15094 13.7L4.13084 13.7064L0.238629 14.9432L0.238573 14.9432C0.224221 14.9478 0.209485 14.95 0.194794 14.95C0.156504 14.95 0.11905 14.9348 0.0914719 14.9066L0.0914205 14.9066C0.0531974 14.8677 0.0401396 14.8105 0.0576664 14.7587C0.0576679 14.7587 0.0576692 14.7587 0.0576707 14.7587L1.32307 11.026ZM4.39452 12.1848L4.39454 12.1848C5.35718 12.8165 6.47706 13.1504 7.63314 13.1504C10.8778 13.1504 13.5181 10.5318 13.5181 7.31216C13.5181 4.09215 10.8777 1.47318 7.6331 1.47318C4.38807 1.47318 1.74741 4.09214 1.74741 7.31216C1.74741 8.5497 2.13502 9.7334 2.86808 10.7351C2.89596 10.7731 2.90353 10.8224 2.8884 10.8671L2.25898 12.724L2.22724 12.8177L2.32148 12.7877L4.27122 12.168C4.28563 12.1634 4.30039 12.1611 4.31512 12.1611C4.34304 12.1611 4.37072 12.1692 4.39452 12.1848Z" fill="#221F20" fill-opacity="0.54" stroke="white" stroke-width="0.1"/>
</svg>
