<svg width="22" height="23" viewBox="0 0 22 23" fill="none" xmlns="http://www.w3.org/2000/svg">
<path d="M21.6035 8.26385L21.6133 8.30123H21.6137C22.5987 12.1348 21.3853 16.3773 18.4291 19.0837L18.429 19.0838C15.2542 22.0079 10.6582 22.7603 6.68875 21.1307L6.6727 21.1241L6.65602 21.1289C5.92206 21.3386 5.17755 21.5378 4.43256 21.7372L4.43184 21.7374C3.68733 21.9366 2.94235 22.136 2.20778 22.3458C1.99372 22.4041 1.72551 22.346 1.52022 22.2058C1.31567 22.0661 1.18327 21.8523 1.22145 21.6042L1.22155 21.6035C1.32651 20.8478 1.42097 20.0921 1.51538 19.3368L1.51541 19.3366C1.60984 18.5811 1.70423 17.826 1.80909 17.071L1.81163 17.0527L1.80168 17.0372C-0.872291 12.8591 -0.454236 7.34414 2.84596 3.66797L2.84612 3.66779C5.51939 0.660361 9.73918 -0.593466 13.6243 0.367678C17.5091 1.32872 20.6009 4.42038 21.6035 8.26385ZM18.6642 16.5108V16.5156L18.7557 16.3793C20.8227 13.2996 20.9496 9.24986 19.0086 6.08523L19.0085 6.08513C17.11 3.0049 13.4398 1.233 9.76897 1.73913C6.22444 2.16129 3.10284 4.73467 2.00576 8.15241C1.37278 10.0934 1.41513 12.2449 2.09005 14.1853L2.09002 14.1853L2.09061 14.1868C2.30102 14.7339 2.55366 15.2815 2.84869 15.7874C2.9129 15.9156 2.98744 16.0326 3.06092 16.1428C3.07983 16.1712 3.0986 16.199 3.11709 16.2264C3.1709 16.3062 3.22242 16.3825 3.26849 16.4592C3.34672 16.6166 3.36714 16.7852 3.36206 16.9582C3.35824 17.0879 3.34038 17.2167 3.32267 17.3443C3.31646 17.389 3.31027 17.4336 3.30472 17.4781C3.24177 17.9816 3.17883 18.4747 3.11588 18.9678L3.11587 18.9679C3.05292 19.461 2.98997 19.9541 2.92701 20.4578L2.91763 20.5328L2.99036 20.5121C3.57744 20.3443 4.16458 20.1871 4.75219 20.0297L4.75263 20.0295C5.33904 19.8725 5.92593 19.7153 6.51287 19.5476C6.75303 19.5081 6.95125 19.5485 7.10904 19.6274L7.11959 19.6327H7.1314H7.16257C11.2047 21.4608 16.1076 20.1223 18.6642 16.5108Z" fill="#6BBC69" stroke="#FDFDFD" stroke-width="0.1"/>
<path d="M15.0734 13.7321V15.0669C15.0739 15.1908 15.0485 15.3135 14.9988 15.427C14.949 15.5405 14.8761 15.6425 14.7846 15.7262C14.6931 15.81 14.5851 15.8738 14.4674 15.9135C14.3498 15.9532 14.2252 15.9679 14.1015 15.9568C12.7297 15.808 11.4119 15.3402 10.2541 14.5908C9.17688 13.9077 8.26361 12.9962 7.57912 11.9212C6.82566 10.7604 6.35678 9.43883 6.21044 8.06352C6.1993 7.94048 6.21395 7.81647 6.25346 7.69939C6.29297 7.58231 6.35648 7.47473 6.43993 7.38348C6.52339 7.29224 6.62497 7.21934 6.7382 7.16942C6.85143 7.1195 6.97384 7.09367 7.09763 7.09355H8.4351C8.65146 7.09142 8.86122 7.16789 9.02527 7.30869C9.18932 7.4495 9.29647 7.64503 9.32675 7.85885C9.3832 8.28602 9.48789 8.70545 9.63883 9.10913C9.69881 9.26839 9.71179 9.44147 9.67623 9.60786C9.64068 9.77425 9.55807 9.92698 9.43821 10.048L8.87201 10.613C9.50666 11.727 10.4308 12.6493 11.547 13.2827L12.1132 12.7176C12.2344 12.598 12.3874 12.5155 12.5541 12.48C12.7208 12.4446 12.8943 12.4575 13.0538 12.5174C13.4583 12.668 13.8786 12.7725 14.3066 12.8288C14.5232 12.8593 14.721 12.9682 14.8623 13.1347C15.0037 13.3013 15.0789 13.5139 15.0734 13.7321Z" stroke="#6BBC69" stroke-width="1.4" stroke-linecap="round" stroke-linejoin="round"/>
</svg>
